%TF.GenerationSoftware,KiCad,Pcbnew,8.0.5*%
%TF.CreationDate,2024-09-22T14:43:58-07:00*%
%TF.ProjectId,keyboard_pcb,6b657962-6f61-4726-945f-7063622e6b69,rev?*%
%TF.SameCoordinates,Original*%
%TF.FileFunction,Soldermask,Bot*%
%TF.FilePolarity,Negative*%
%FSLAX46Y46*%
G04 Gerber Fmt 4.6, Leading zero omitted, Abs format (unit mm)*
G04 Created by KiCad (PCBNEW 8.0.5) date 2024-09-22 14:43:58*
%MOMM*%
%LPD*%
G01*
G04 APERTURE LIST*
G04 Aperture macros list*
%AMRoundRect*
0 Rectangle with rounded corners*
0 $1 Rounding radius*
0 $2 $3 $4 $5 $6 $7 $8 $9 X,Y pos of 4 corners*
0 Add a 4 corners polygon primitive as box body*
4,1,4,$2,$3,$4,$5,$6,$7,$8,$9,$2,$3,0*
0 Add four circle primitives for the rounded corners*
1,1,$1+$1,$2,$3*
1,1,$1+$1,$4,$5*
1,1,$1+$1,$6,$7*
1,1,$1+$1,$8,$9*
0 Add four rect primitives between the rounded corners*
20,1,$1+$1,$2,$3,$4,$5,0*
20,1,$1+$1,$4,$5,$6,$7,0*
20,1,$1+$1,$6,$7,$8,$9,0*
20,1,$1+$1,$8,$9,$2,$3,0*%
G04 Aperture macros list end*
%ADD10C,1.700000*%
%ADD11C,4.000000*%
%ADD12C,2.200000*%
%ADD13C,3.050000*%
%ADD14RoundRect,0.225000X0.225000X0.375000X-0.225000X0.375000X-0.225000X-0.375000X0.225000X-0.375000X0*%
%ADD15RoundRect,0.250000X0.337500X0.475000X-0.337500X0.475000X-0.337500X-0.475000X0.337500X-0.475000X0*%
%ADD16RoundRect,0.250000X0.475000X-0.337500X0.475000X0.337500X-0.475000X0.337500X-0.475000X-0.337500X0*%
%ADD17R,1.800000X2.100000*%
%ADD18RoundRect,0.250000X-0.350000X-0.450000X0.350000X-0.450000X0.350000X0.450000X-0.350000X0.450000X0*%
%ADD19R,0.550000X1.500000*%
%ADD20R,1.500000X0.550000*%
%ADD21RoundRect,0.250000X-0.475000X0.337500X-0.475000X-0.337500X0.475000X-0.337500X0.475000X0.337500X0*%
%ADD22R,0.500000X2.250000*%
%ADD23O,1.700000X2.700000*%
%ADD24RoundRect,0.250000X-0.337500X-0.475000X0.337500X-0.475000X0.337500X0.475000X-0.337500X0.475000X0*%
%ADD25RoundRect,0.250000X-0.450000X0.350000X-0.450000X-0.350000X0.450000X-0.350000X0.450000X0.350000X0*%
%ADD26R,1.100000X1.800000*%
%ADD27RoundRect,0.250000X0.350000X0.450000X-0.350000X0.450000X-0.350000X-0.450000X0.350000X-0.450000X0*%
%ADD28RoundRect,0.250001X0.624999X-0.462499X0.624999X0.462499X-0.624999X0.462499X-0.624999X-0.462499X0*%
G04 APERTURE END LIST*
D10*
%TO.C,SW83*%
X281463750Y-195262500D03*
D11*
X286543750Y-195262500D03*
D10*
X291623750Y-195262500D03*
D12*
X289083750Y-190182500D03*
X282733750Y-192722500D03*
%TD*%
D10*
%TO.C,SW11*%
X269557500Y-97631250D03*
D11*
X274637500Y-97631250D03*
D10*
X279717500Y-97631250D03*
D12*
X277177500Y-92551250D03*
X270827500Y-95091250D03*
%TD*%
D10*
%TO.C,SW51*%
X48101250Y-157162500D03*
D11*
X53181250Y-157162500D03*
D10*
X58261250Y-157162500D03*
D12*
X55721250Y-152082500D03*
X49371250Y-154622500D03*
%TD*%
D10*
%TO.C,SW15*%
X350520000Y-97631250D03*
D11*
X355600000Y-97631250D03*
D10*
X360680000Y-97631250D03*
D12*
X358140000Y-92551250D03*
X351790000Y-95091250D03*
%TD*%
D10*
%TO.C,SW41*%
X183832500Y-138112500D03*
D11*
X188912500Y-138112500D03*
D10*
X193992500Y-138112500D03*
D12*
X191452500Y-133032500D03*
X185102500Y-135572500D03*
%TD*%
D10*
%TO.C,SW55*%
X131445000Y-157162500D03*
D11*
X136525000Y-157162500D03*
D10*
X141605000Y-157162500D03*
D12*
X139065000Y-152082500D03*
X132715000Y-154622500D03*
%TD*%
D10*
%TO.C,SW73*%
X236220000Y-176212500D03*
D11*
X241300000Y-176212500D03*
D10*
X246380000Y-176212500D03*
D12*
X243840000Y-171132500D03*
X237490000Y-173672500D03*
%TD*%
D10*
%TO.C,SW79*%
X90963750Y-195262500D03*
D11*
X96043750Y-195262500D03*
D10*
X101123750Y-195262500D03*
D12*
X98583750Y-190182500D03*
X92233750Y-192722500D03*
%TD*%
D10*
%TO.C,SW28*%
X250507500Y-119062500D03*
D11*
X255587500Y-119062500D03*
D10*
X260667500Y-119062500D03*
D12*
X258127500Y-113982500D03*
X251777500Y-116522500D03*
%TD*%
D10*
%TO.C,SW71*%
X198120000Y-176212500D03*
D11*
X203200000Y-176212500D03*
D10*
X208280000Y-176212500D03*
D12*
X205740000Y-171132500D03*
X199390000Y-173672500D03*
%TD*%
D10*
%TO.C,SW33*%
X369570000Y-119062500D03*
D11*
X374650000Y-119062500D03*
D10*
X379730000Y-119062500D03*
D12*
X377190000Y-113982500D03*
X370840000Y-116522500D03*
%TD*%
D10*
%TO.C,SW5*%
X129857500Y-97631250D03*
D11*
X134937500Y-97631250D03*
D10*
X140017500Y-97631250D03*
D12*
X137477500Y-92551250D03*
X131127500Y-95091250D03*
%TD*%
D10*
%TO.C,SW82*%
X257651250Y-195262500D03*
D11*
X262731250Y-195262500D03*
D10*
X267811250Y-195262500D03*
D12*
X265271250Y-190182500D03*
X258921250Y-192722500D03*
%TD*%
D10*
%TO.C,SW8*%
X199707500Y-97631250D03*
D11*
X204787500Y-97631250D03*
D10*
X209867500Y-97631250D03*
D12*
X207327500Y-92551250D03*
X200977500Y-95091250D03*
%TD*%
D10*
%TO.C,SW86*%
X350520000Y-195262500D03*
D11*
X355600000Y-195262500D03*
D10*
X360680000Y-195262500D03*
D12*
X358140000Y-190182500D03*
X351790000Y-192722500D03*
%TD*%
D10*
%TO.C,SW31*%
X331470000Y-119062500D03*
D11*
X336550000Y-119062500D03*
D10*
X341630000Y-119062500D03*
D12*
X339090000Y-113982500D03*
X332740000Y-116522500D03*
%TD*%
D10*
%TO.C,SW72*%
X217170000Y-176212500D03*
D11*
X222250000Y-176212500D03*
D10*
X227330000Y-176212500D03*
D12*
X224790000Y-171132500D03*
X218440000Y-173672500D03*
%TD*%
D10*
%TO.C,SW70*%
X179070000Y-176212500D03*
D11*
X184150000Y-176212500D03*
D10*
X189230000Y-176212500D03*
D12*
X186690000Y-171132500D03*
X180340000Y-173672500D03*
%TD*%
D10*
%TO.C,SW58*%
X188595000Y-157162500D03*
D11*
X193675000Y-157162500D03*
D10*
X198755000Y-157162500D03*
D12*
X196215000Y-152082500D03*
X189865000Y-154622500D03*
%TD*%
D10*
%TO.C,SW26*%
X212407500Y-119062500D03*
D11*
X217487500Y-119062500D03*
D10*
X222567500Y-119062500D03*
D12*
X220027500Y-113982500D03*
X213677500Y-116522500D03*
%TD*%
D10*
%TO.C,SW78*%
X67151250Y-195262500D03*
D11*
X72231250Y-195262500D03*
D10*
X77311250Y-195262500D03*
D12*
X74771250Y-190182500D03*
X68421250Y-192722500D03*
%TD*%
D10*
%TO.C,SW87*%
X369570000Y-195262500D03*
D11*
X374650000Y-195262500D03*
D10*
X379730000Y-195262500D03*
D12*
X377190000Y-190182500D03*
X370840000Y-192722500D03*
%TD*%
D10*
%TO.C,SW10*%
X250507500Y-97631250D03*
D11*
X255587500Y-97631250D03*
D10*
X260667500Y-97631250D03*
D12*
X258127500Y-92551250D03*
X251777500Y-95091250D03*
%TD*%
D10*
%TO.C,SW19*%
X79057500Y-119062500D03*
D11*
X84137500Y-119062500D03*
D10*
X89217500Y-119062500D03*
D12*
X86677500Y-113982500D03*
X80327500Y-116522500D03*
%TD*%
D10*
%TO.C,SW67*%
X121920000Y-176212500D03*
D11*
X127000000Y-176212500D03*
D10*
X132080000Y-176212500D03*
D12*
X129540000Y-171132500D03*
X123190000Y-173672500D03*
%TD*%
D10*
%TO.C,SW35*%
X69532500Y-138112500D03*
D11*
X74612500Y-138112500D03*
D10*
X79692500Y-138112500D03*
D12*
X77152500Y-133032500D03*
X70802500Y-135572500D03*
%TD*%
D10*
%TO.C,SW16*%
X369570000Y-97631250D03*
D11*
X374650000Y-97631250D03*
D10*
X379730000Y-97631250D03*
D12*
X377190000Y-92551250D03*
X370840000Y-95091250D03*
%TD*%
D10*
%TO.C,SW36*%
X88582500Y-138112500D03*
D11*
X93662500Y-138112500D03*
D10*
X98742500Y-138112500D03*
D12*
X96202500Y-133032500D03*
X89852500Y-135572500D03*
%TD*%
D10*
%TO.C,SW81*%
X233838750Y-195262500D03*
D11*
X238918750Y-195262500D03*
D10*
X243998750Y-195262500D03*
D12*
X241458750Y-190182500D03*
X235108750Y-192722500D03*
%TD*%
D10*
%TO.C,SW12*%
X288607500Y-97631250D03*
D11*
X293687500Y-97631250D03*
D10*
X298767500Y-97631250D03*
D12*
X296227500Y-92551250D03*
X289877500Y-95091250D03*
%TD*%
D10*
%TO.C,SW14*%
X331470000Y-97631250D03*
D11*
X336550000Y-97631250D03*
D10*
X341630000Y-97631250D03*
D12*
X339090000Y-92551250D03*
X332740000Y-95091250D03*
%TD*%
D10*
%TO.C,SW34*%
X45720000Y-138112500D03*
D11*
X50800000Y-138112500D03*
D10*
X55880000Y-138112500D03*
D12*
X53340000Y-133032500D03*
X46990000Y-135572500D03*
%TD*%
D10*
%TO.C,SW3*%
X91757500Y-97631250D03*
D11*
X96837500Y-97631250D03*
D10*
X101917500Y-97631250D03*
D12*
X99377500Y-92551250D03*
X93027500Y-95091250D03*
%TD*%
D10*
%TO.C,SW18*%
X60007500Y-119062500D03*
D11*
X65087500Y-119062500D03*
D10*
X70167500Y-119062500D03*
D12*
X67627500Y-113982500D03*
X61277500Y-116522500D03*
%TD*%
D10*
%TO.C,SW68*%
X140970000Y-176212500D03*
D11*
X146050000Y-176212500D03*
D10*
X151130000Y-176212500D03*
D12*
X148590000Y-171132500D03*
X142240000Y-173672500D03*
%TD*%
D10*
%TO.C,SW52*%
X74295000Y-157162500D03*
D11*
X79375000Y-157162500D03*
D10*
X84455000Y-157162500D03*
D12*
X81915000Y-152082500D03*
X75565000Y-154622500D03*
%TD*%
D10*
%TO.C,SW29*%
X269557500Y-119062500D03*
D11*
X274637500Y-119062500D03*
D10*
X279717500Y-119062500D03*
D12*
X277177500Y-113982500D03*
X270827500Y-116522500D03*
%TD*%
D10*
%TO.C,SW54*%
X112395000Y-157162500D03*
D11*
X117475000Y-157162500D03*
D10*
X122555000Y-157162500D03*
D12*
X120015000Y-152082500D03*
X113665000Y-154622500D03*
%TD*%
D10*
%TO.C,SW43*%
X221932500Y-138112500D03*
D11*
X227012500Y-138112500D03*
D10*
X232092500Y-138112500D03*
D12*
X229552500Y-133032500D03*
X223202500Y-135572500D03*
%TD*%
D10*
%TO.C,SW44*%
X240982500Y-138112500D03*
D11*
X246062500Y-138112500D03*
D10*
X251142500Y-138112500D03*
D12*
X248602500Y-133032500D03*
X242252500Y-135572500D03*
%TD*%
D10*
%TO.C,SW84*%
X305276250Y-195262500D03*
D11*
X310356250Y-195262500D03*
D10*
X315436250Y-195262500D03*
D12*
X312896250Y-190182500D03*
X306546250Y-192722500D03*
%TD*%
D10*
%TO.C,SW56*%
X150495000Y-157162500D03*
D11*
X155575000Y-157162500D03*
D10*
X160655000Y-157162500D03*
D12*
X158115000Y-152082500D03*
X151765000Y-154622500D03*
%TD*%
D10*
%TO.C,SW65*%
X83820000Y-176212500D03*
D11*
X88900000Y-176212500D03*
D10*
X93980000Y-176212500D03*
D12*
X91440000Y-171132500D03*
X85090000Y-173672500D03*
%TD*%
D10*
%TO.C,SW60*%
X226695000Y-157162500D03*
D11*
X231775000Y-157162500D03*
D10*
X236855000Y-157162500D03*
D12*
X234315000Y-152082500D03*
X227965000Y-154622500D03*
%TD*%
D10*
%TO.C,SW59*%
X207645000Y-157162500D03*
D11*
X212725000Y-157162500D03*
D10*
X217805000Y-157162500D03*
D12*
X215265000Y-152082500D03*
X208915000Y-154622500D03*
%TD*%
D13*
%TO.C,SW80*%
X117481250Y-188262500D03*
D11*
X117481250Y-203502500D03*
D10*
X162401250Y-195262500D03*
D11*
X167481250Y-195262500D03*
D10*
X172561250Y-195262500D03*
D13*
X217481250Y-188262500D03*
D11*
X217481250Y-203502500D03*
D12*
X170021250Y-190182500D03*
X163671250Y-192722500D03*
%TD*%
D10*
%TO.C,SW27*%
X231457500Y-119062500D03*
D11*
X236537500Y-119062500D03*
D10*
X241617500Y-119062500D03*
D12*
X239077500Y-113982500D03*
X232727500Y-116522500D03*
%TD*%
D10*
%TO.C,SW40*%
X164782500Y-138112500D03*
D11*
X169862500Y-138112500D03*
D10*
X174942500Y-138112500D03*
D12*
X172402500Y-133032500D03*
X166052500Y-135572500D03*
%TD*%
D10*
%TO.C,SW25*%
X193357500Y-119062500D03*
D11*
X198437500Y-119062500D03*
D10*
X203517500Y-119062500D03*
D12*
X200977500Y-113982500D03*
X194627500Y-116522500D03*
%TD*%
D10*
%TO.C,SW21*%
X117157500Y-119062500D03*
D11*
X122237500Y-119062500D03*
D10*
X127317500Y-119062500D03*
D12*
X124777500Y-113982500D03*
X118427500Y-116522500D03*
%TD*%
D10*
%TO.C,SW7*%
X180657500Y-97631250D03*
D11*
X185737500Y-97631250D03*
D10*
X190817500Y-97631250D03*
D12*
X188277500Y-92551250D03*
X181927500Y-95091250D03*
%TD*%
D10*
%TO.C,SW46*%
X279082500Y-138112500D03*
D11*
X284162500Y-138112500D03*
D10*
X289242500Y-138112500D03*
D12*
X286702500Y-133032500D03*
X280352500Y-135572500D03*
%TD*%
D13*
%TO.C,SW63*%
X288931250Y-150162500D03*
D11*
X288931250Y-165402500D03*
D10*
X295751250Y-157162500D03*
D11*
X300831250Y-157162500D03*
D10*
X305911250Y-157162500D03*
D13*
X312731250Y-150162500D03*
D11*
X312731250Y-165402500D03*
D12*
X303371250Y-152082500D03*
X297021250Y-154622500D03*
%TD*%
D10*
%TO.C,SW49*%
X350520000Y-138112500D03*
D11*
X355600000Y-138112500D03*
D10*
X360680000Y-138112500D03*
D12*
X358140000Y-133032500D03*
X351790000Y-135572500D03*
%TD*%
D10*
%TO.C,SW6*%
X161607500Y-97631250D03*
D11*
X166687500Y-97631250D03*
D10*
X171767500Y-97631250D03*
D12*
X169227500Y-92551250D03*
X162877500Y-95091250D03*
%TD*%
D13*
%TO.C,SW30*%
X291312500Y-112062500D03*
D11*
X291312500Y-127302500D03*
D10*
X298132500Y-119062500D03*
D11*
X303212500Y-119062500D03*
D10*
X308292500Y-119062500D03*
D13*
X315112500Y-112062500D03*
D11*
X315112500Y-127302500D03*
D12*
X305752500Y-113982500D03*
X299402500Y-116522500D03*
%TD*%
D10*
%TO.C,SW50*%
X369570000Y-138112500D03*
D11*
X374650000Y-138112500D03*
D10*
X379730000Y-138112500D03*
D12*
X377190000Y-133032500D03*
X370840000Y-135572500D03*
%TD*%
D10*
%TO.C,SW45*%
X260032500Y-138112500D03*
D11*
X265112500Y-138112500D03*
D10*
X270192500Y-138112500D03*
D12*
X267652500Y-133032500D03*
X261302500Y-135572500D03*
%TD*%
D10*
%TO.C,SW20*%
X98107500Y-119062500D03*
D11*
X103187500Y-119062500D03*
D10*
X108267500Y-119062500D03*
D12*
X105727500Y-113982500D03*
X99377500Y-116522500D03*
%TD*%
D10*
%TO.C,SW61*%
X245745000Y-157162500D03*
D11*
X250825000Y-157162500D03*
D10*
X255905000Y-157162500D03*
D12*
X253365000Y-152082500D03*
X247015000Y-154622500D03*
%TD*%
D13*
%TO.C,SW75*%
X284168750Y-169212500D03*
D11*
X284168750Y-184452500D03*
D10*
X290988750Y-176212500D03*
D11*
X296068750Y-176212500D03*
D10*
X301148750Y-176212500D03*
D13*
X307968750Y-169212500D03*
D11*
X307968750Y-184452500D03*
D12*
X298608750Y-171132500D03*
X292258750Y-173672500D03*
%TD*%
D10*
%TO.C,SW42*%
X202882500Y-138112500D03*
D11*
X207962500Y-138112500D03*
D10*
X213042500Y-138112500D03*
D12*
X210502500Y-133032500D03*
X204152500Y-135572500D03*
%TD*%
D10*
%TO.C,SW62*%
X264795000Y-157162500D03*
D11*
X269875000Y-157162500D03*
D10*
X274955000Y-157162500D03*
D12*
X272415000Y-152082500D03*
X266065000Y-154622500D03*
%TD*%
D10*
%TO.C,SW17*%
X40957500Y-119062500D03*
D11*
X46037500Y-119062500D03*
D10*
X51117500Y-119062500D03*
D12*
X48577500Y-113982500D03*
X42227500Y-116522500D03*
%TD*%
D10*
%TO.C,SW47*%
X302895000Y-138112500D03*
D11*
X307975000Y-138112500D03*
D10*
X313055000Y-138112500D03*
D12*
X310515000Y-133032500D03*
X304165000Y-135572500D03*
%TD*%
D10*
%TO.C,SW1*%
X40957500Y-97631250D03*
D11*
X46037500Y-97631250D03*
D10*
X51117500Y-97631250D03*
D12*
X48577500Y-92551250D03*
X42227500Y-95091250D03*
%TD*%
D10*
%TO.C,SW37*%
X107632500Y-138112500D03*
D11*
X112712500Y-138112500D03*
D10*
X117792500Y-138112500D03*
D12*
X115252500Y-133032500D03*
X108902500Y-135572500D03*
%TD*%
D10*
%TO.C,SW24*%
X174307500Y-119062500D03*
D11*
X179387500Y-119062500D03*
D10*
X184467500Y-119062500D03*
D12*
X181927500Y-113982500D03*
X175577500Y-116522500D03*
%TD*%
D10*
%TO.C,SW32*%
X350520000Y-119062500D03*
D11*
X355600000Y-119062500D03*
D10*
X360680000Y-119062500D03*
D12*
X358140000Y-113982500D03*
X351790000Y-116522500D03*
%TD*%
D10*
%TO.C,SW2*%
X72707500Y-97631250D03*
D11*
X77787500Y-97631250D03*
D10*
X82867500Y-97631250D03*
D12*
X80327500Y-92551250D03*
X73977500Y-95091250D03*
%TD*%
D10*
%TO.C,SW76*%
X350520000Y-176212500D03*
D11*
X355600000Y-176212500D03*
D10*
X360680000Y-176212500D03*
D12*
X358140000Y-171132500D03*
X351790000Y-173672500D03*
%TD*%
D10*
%TO.C,SW69*%
X160020000Y-176212500D03*
D11*
X165100000Y-176212500D03*
D10*
X170180000Y-176212500D03*
D12*
X167640000Y-171132500D03*
X161290000Y-173672500D03*
%TD*%
D10*
%TO.C,SW39*%
X145732500Y-138112500D03*
D11*
X150812500Y-138112500D03*
D10*
X155892500Y-138112500D03*
D12*
X153352500Y-133032500D03*
X147002500Y-135572500D03*
%TD*%
D10*
%TO.C,SW48*%
X331470000Y-138112500D03*
D11*
X336550000Y-138112500D03*
D10*
X341630000Y-138112500D03*
D12*
X339090000Y-133032500D03*
X332740000Y-135572500D03*
%TD*%
D10*
%TO.C,SW57*%
X169545000Y-157162500D03*
D11*
X174625000Y-157162500D03*
D10*
X179705000Y-157162500D03*
D12*
X177165000Y-152082500D03*
X170815000Y-154622500D03*
%TD*%
D10*
%TO.C,SW77*%
X43338750Y-195262500D03*
D11*
X48418750Y-195262500D03*
D10*
X53498750Y-195262500D03*
D12*
X50958750Y-190182500D03*
X44608750Y-192722500D03*
%TD*%
D10*
%TO.C,SW38*%
X126682500Y-138112500D03*
D11*
X131762500Y-138112500D03*
D10*
X136842500Y-138112500D03*
D12*
X134302500Y-133032500D03*
X127952500Y-135572500D03*
%TD*%
D10*
%TO.C,SW9*%
X218757500Y-97631250D03*
D11*
X223837500Y-97631250D03*
D10*
X228917500Y-97631250D03*
D12*
X226377500Y-92551250D03*
X220027500Y-95091250D03*
%TD*%
D10*
%TO.C,SW23*%
X155257500Y-119062500D03*
D11*
X160337500Y-119062500D03*
D10*
X165417500Y-119062500D03*
D12*
X162877500Y-113982500D03*
X156527500Y-116522500D03*
%TD*%
D10*
%TO.C,SW13*%
X307657500Y-97631250D03*
D11*
X312737500Y-97631250D03*
D10*
X317817500Y-97631250D03*
D12*
X315277500Y-92551250D03*
X308927500Y-95091250D03*
%TD*%
D10*
%TO.C,SW53*%
X93345000Y-157162500D03*
D11*
X98425000Y-157162500D03*
D10*
X103505000Y-157162500D03*
D12*
X100965000Y-152082500D03*
X94615000Y-154622500D03*
%TD*%
D13*
%TO.C,SW64*%
X46043750Y-169212500D03*
D11*
X46043750Y-184452500D03*
D10*
X52863750Y-176212500D03*
D11*
X57943750Y-176212500D03*
D10*
X63023750Y-176212500D03*
D13*
X69843750Y-169212500D03*
D11*
X69843750Y-184452500D03*
D12*
X60483750Y-171132500D03*
X54133750Y-173672500D03*
%TD*%
D10*
%TO.C,SW85*%
X331470000Y-195262500D03*
D11*
X336550000Y-195262500D03*
D10*
X341630000Y-195262500D03*
D12*
X339090000Y-190182500D03*
X332740000Y-192722500D03*
%TD*%
D10*
%TO.C,SW22*%
X136207500Y-119062500D03*
D11*
X141287500Y-119062500D03*
D10*
X146367500Y-119062500D03*
D12*
X143827500Y-113982500D03*
X137477500Y-116522500D03*
%TD*%
D10*
%TO.C,SW66*%
X102870000Y-176212500D03*
D11*
X107950000Y-176212500D03*
D10*
X113030000Y-176212500D03*
D12*
X110490000Y-171132500D03*
X104140000Y-173672500D03*
%TD*%
D10*
%TO.C,SW4*%
X110807500Y-97631250D03*
D11*
X115887500Y-97631250D03*
D10*
X120967500Y-97631250D03*
D12*
X118427500Y-92551250D03*
X112077500Y-95091250D03*
%TD*%
D10*
%TO.C,SW74*%
X255270000Y-176212500D03*
D11*
X260350000Y-176212500D03*
D10*
X265430000Y-176212500D03*
D12*
X262890000Y-171132500D03*
X256540000Y-173672500D03*
%TD*%
D14*
%TO.C,D61*%
X252475000Y-161925000D03*
X249175000Y-161925000D03*
%TD*%
%TO.C,D47*%
X309625000Y-142875000D03*
X306325000Y-142875000D03*
%TD*%
%TO.C,D34*%
X52450000Y-142875000D03*
X49150000Y-142875000D03*
%TD*%
%TO.C,D79*%
X97693750Y-200025000D03*
X94393750Y-200025000D03*
%TD*%
%TO.C,D81*%
X240568750Y-200025000D03*
X237268750Y-200025000D03*
%TD*%
%TO.C,D84*%
X312006250Y-200025000D03*
X308706250Y-200025000D03*
%TD*%
%TO.C,D80*%
X169131250Y-200025000D03*
X165831250Y-200025000D03*
%TD*%
%TO.C,D48*%
X338200000Y-142875000D03*
X334900000Y-142875000D03*
%TD*%
%TO.C,D24*%
X181037500Y-123825000D03*
X177737500Y-123825000D03*
%TD*%
D15*
%TO.C,C2*%
X197037500Y-185500000D03*
X194962500Y-185500000D03*
%TD*%
D14*
%TO.C,D53*%
X100075000Y-161925000D03*
X96775000Y-161925000D03*
%TD*%
%TO.C,D31*%
X338200000Y-123825000D03*
X334900000Y-123825000D03*
%TD*%
%TO.C,D15*%
X357250000Y-102393750D03*
X353950000Y-102393750D03*
%TD*%
%TO.C,D63*%
X302481250Y-161925000D03*
X299181250Y-161925000D03*
%TD*%
D16*
%TO.C,C5*%
X210000000Y-200037500D03*
X210000000Y-197962500D03*
%TD*%
D14*
%TO.C,D64*%
X59593750Y-180975000D03*
X56293750Y-180975000D03*
%TD*%
%TO.C,D12*%
X295337500Y-102393750D03*
X292037500Y-102393750D03*
%TD*%
%TO.C,D8*%
X206437500Y-102393750D03*
X203137500Y-102393750D03*
%TD*%
%TO.C,D41*%
X190562500Y-142875000D03*
X187262500Y-142875000D03*
%TD*%
%TO.C,D22*%
X142937500Y-123825000D03*
X139637500Y-123825000D03*
%TD*%
%TO.C,D3*%
X98487500Y-102393750D03*
X95187500Y-102393750D03*
%TD*%
%TO.C,D35*%
X76262500Y-142875000D03*
X72962500Y-142875000D03*
%TD*%
%TO.C,D21*%
X123887500Y-123825000D03*
X120587500Y-123825000D03*
%TD*%
%TO.C,D2*%
X79437500Y-102393750D03*
X76137500Y-102393750D03*
%TD*%
%TO.C,D67*%
X128650000Y-180975000D03*
X125350000Y-180975000D03*
%TD*%
%TO.C,D14*%
X338200000Y-102393750D03*
X334900000Y-102393750D03*
%TD*%
%TO.C,D40*%
X171512500Y-142875000D03*
X168212500Y-142875000D03*
%TD*%
D17*
%TO.C,Y1*%
X189650000Y-191550000D03*
X189650000Y-194450000D03*
X187350000Y-194450000D03*
X187350000Y-191550000D03*
%TD*%
D16*
%TO.C,C4*%
X192000000Y-200537500D03*
X192000000Y-198462500D03*
%TD*%
D14*
%TO.C,D72*%
X223900000Y-180975000D03*
X220600000Y-180975000D03*
%TD*%
%TO.C,D9*%
X225487500Y-102393750D03*
X222187500Y-102393750D03*
%TD*%
%TO.C,D42*%
X209612500Y-142875000D03*
X206312500Y-142875000D03*
%TD*%
%TO.C,D25*%
X200087500Y-123825000D03*
X196787500Y-123825000D03*
%TD*%
D18*
%TO.C,R1*%
X205500000Y-186000000D03*
X207500000Y-186000000D03*
%TD*%
D14*
%TO.C,D45*%
X266762500Y-142875000D03*
X263462500Y-142875000D03*
%TD*%
%TO.C,D78*%
X73881250Y-200025000D03*
X70581250Y-200025000D03*
%TD*%
D19*
%TO.C,U1*%
X205000000Y-199700000D03*
X204200000Y-199700000D03*
X203400000Y-199700000D03*
X202600000Y-199700000D03*
X201800000Y-199700000D03*
X201000000Y-199700000D03*
X200200000Y-199700000D03*
X199400000Y-199700000D03*
X198600000Y-199700000D03*
X197800000Y-199700000D03*
X197000000Y-199700000D03*
D20*
X195300000Y-198000000D03*
X195300000Y-197200000D03*
X195300000Y-196400000D03*
X195300000Y-195600000D03*
X195300000Y-194800000D03*
X195300000Y-194000000D03*
X195300000Y-193200000D03*
X195300000Y-192400000D03*
X195300000Y-191600000D03*
X195300000Y-190800000D03*
X195300000Y-190000000D03*
D19*
X197000000Y-188300000D03*
X197800000Y-188300000D03*
X198600000Y-188300000D03*
X199400000Y-188300000D03*
X200200000Y-188300000D03*
X201000000Y-188300000D03*
X201800000Y-188300000D03*
X202600000Y-188300000D03*
X203400000Y-188300000D03*
X204200000Y-188300000D03*
X205000000Y-188300000D03*
D20*
X206700000Y-190000000D03*
X206700000Y-190800000D03*
X206700000Y-191600000D03*
X206700000Y-192400000D03*
X206700000Y-193200000D03*
X206700000Y-194000000D03*
X206700000Y-194800000D03*
X206700000Y-195600000D03*
X206700000Y-196400000D03*
X206700000Y-197200000D03*
X206700000Y-198000000D03*
%TD*%
D14*
%TO.C,D39*%
X152462500Y-142875000D03*
X149162500Y-142875000D03*
%TD*%
%TO.C,D46*%
X285812500Y-142875000D03*
X282512500Y-142875000D03*
%TD*%
%TO.C,D62*%
X271525000Y-161925000D03*
X268225000Y-161925000D03*
%TD*%
D21*
%TO.C,C3*%
X210000000Y-187962500D03*
X210000000Y-190037500D03*
%TD*%
D14*
%TO.C,D71*%
X204850000Y-180975000D03*
X201550000Y-180975000D03*
%TD*%
%TO.C,D27*%
X238187500Y-123825000D03*
X234887500Y-123825000D03*
%TD*%
%TO.C,D36*%
X95312500Y-142875000D03*
X92012500Y-142875000D03*
%TD*%
%TO.C,D29*%
X276287500Y-123825000D03*
X272987500Y-123825000D03*
%TD*%
%TO.C,D50*%
X376300000Y-142875000D03*
X373000000Y-142875000D03*
%TD*%
%TO.C,D73*%
X242950000Y-180975000D03*
X239650000Y-180975000D03*
%TD*%
%TO.C,D5*%
X136587500Y-102393750D03*
X133287500Y-102393750D03*
%TD*%
%TO.C,D56*%
X157225000Y-161925000D03*
X153925000Y-161925000D03*
%TD*%
%TO.C,D44*%
X247712500Y-142875000D03*
X244412500Y-142875000D03*
%TD*%
%TO.C,D74*%
X262000000Y-180975000D03*
X258700000Y-180975000D03*
%TD*%
D22*
%TO.C,USB1*%
X241312500Y-94193750D03*
X240512500Y-94193750D03*
X239712500Y-94193750D03*
X238912500Y-94193750D03*
X238112500Y-94193750D03*
D23*
X243362500Y-89693750D03*
X236062500Y-89693750D03*
X243362500Y-94193750D03*
X236062500Y-94193750D03*
%TD*%
D14*
%TO.C,D7*%
X187387500Y-102393750D03*
X184087500Y-102393750D03*
%TD*%
%TO.C,D38*%
X133412500Y-142875000D03*
X130112500Y-142875000D03*
%TD*%
%TO.C,D30*%
X304862500Y-123825000D03*
X301562500Y-123825000D03*
%TD*%
D24*
%TO.C,C6*%
X187462500Y-188500000D03*
X189537500Y-188500000D03*
%TD*%
D14*
%TO.C,D68*%
X147700000Y-180975000D03*
X144400000Y-180975000D03*
%TD*%
%TO.C,D28*%
X257237500Y-123825000D03*
X253937500Y-123825000D03*
%TD*%
D25*
%TO.C,R2*%
X242137500Y-100287500D03*
X242137500Y-102287500D03*
%TD*%
D14*
%TO.C,D86*%
X357250000Y-200025000D03*
X353950000Y-200025000D03*
%TD*%
%TO.C,D70*%
X185800000Y-180975000D03*
X182500000Y-180975000D03*
%TD*%
%TO.C,D76*%
X357250000Y-180975000D03*
X353950000Y-180975000D03*
%TD*%
%TO.C,D49*%
X357250000Y-142875000D03*
X353950000Y-142875000D03*
%TD*%
%TO.C,D18*%
X66737500Y-123825000D03*
X63437500Y-123825000D03*
%TD*%
%TO.C,D26*%
X219137500Y-123825000D03*
X215837500Y-123825000D03*
%TD*%
D25*
%TO.C,R3*%
X239137500Y-100287500D03*
X239137500Y-102287500D03*
%TD*%
D14*
%TO.C,D55*%
X138175000Y-161925000D03*
X134875000Y-161925000D03*
%TD*%
%TO.C,D1*%
X47687500Y-102393750D03*
X44387500Y-102393750D03*
%TD*%
%TO.C,D6*%
X168337500Y-102393750D03*
X165037500Y-102393750D03*
%TD*%
%TO.C,D11*%
X276287500Y-102393750D03*
X272987500Y-102393750D03*
%TD*%
D26*
%TO.C,SW88*%
X183350000Y-196600000D03*
X183350000Y-190400000D03*
X179650000Y-196600000D03*
X179650000Y-190400000D03*
%TD*%
D24*
%TO.C,C1*%
X200462500Y-202500000D03*
X202537500Y-202500000D03*
%TD*%
D14*
%TO.C,D20*%
X104837500Y-123825000D03*
X101537500Y-123825000D03*
%TD*%
%TO.C,D69*%
X166750000Y-180975000D03*
X163450000Y-180975000D03*
%TD*%
%TO.C,D82*%
X264381250Y-200025000D03*
X261081250Y-200025000D03*
%TD*%
%TO.C,D51*%
X54831250Y-161925000D03*
X51531250Y-161925000D03*
%TD*%
%TO.C,D43*%
X228662500Y-142875000D03*
X225362500Y-142875000D03*
%TD*%
%TO.C,D87*%
X376300000Y-200025000D03*
X373000000Y-200025000D03*
%TD*%
%TO.C,D77*%
X50068750Y-200025000D03*
X46768750Y-200025000D03*
%TD*%
%TO.C,D33*%
X376300000Y-123825000D03*
X373000000Y-123825000D03*
%TD*%
%TO.C,D75*%
X297718750Y-180975000D03*
X294418750Y-180975000D03*
%TD*%
%TO.C,D32*%
X357250000Y-123825000D03*
X353950000Y-123825000D03*
%TD*%
%TO.C,D23*%
X161987500Y-123825000D03*
X158687500Y-123825000D03*
%TD*%
%TO.C,D16*%
X376300000Y-102393750D03*
X373000000Y-102393750D03*
%TD*%
%TO.C,D57*%
X176275000Y-161925000D03*
X172975000Y-161925000D03*
%TD*%
D27*
%TO.C,R4*%
X189500000Y-200500000D03*
X187500000Y-200500000D03*
%TD*%
D14*
%TO.C,D17*%
X47687500Y-123825000D03*
X44387500Y-123825000D03*
%TD*%
%TO.C,D4*%
X117537500Y-102393750D03*
X114237500Y-102393750D03*
%TD*%
D28*
%TO.C,F1*%
X236137500Y-102775000D03*
X236137500Y-99800000D03*
%TD*%
D14*
%TO.C,D58*%
X195325000Y-161925000D03*
X192025000Y-161925000D03*
%TD*%
%TO.C,D10*%
X257237500Y-102393750D03*
X253937500Y-102393750D03*
%TD*%
%TO.C,D19*%
X85787500Y-123825000D03*
X82487500Y-123825000D03*
%TD*%
%TO.C,D59*%
X214375000Y-161925000D03*
X211075000Y-161925000D03*
%TD*%
%TO.C,D65*%
X90550000Y-180975000D03*
X87250000Y-180975000D03*
%TD*%
%TO.C,D37*%
X114362500Y-142875000D03*
X111062500Y-142875000D03*
%TD*%
%TO.C,D54*%
X119125000Y-161925000D03*
X115825000Y-161925000D03*
%TD*%
D15*
%TO.C,C7*%
X189537500Y-197500000D03*
X187462500Y-197500000D03*
%TD*%
D14*
%TO.C,D60*%
X233425000Y-161925000D03*
X230125000Y-161925000D03*
%TD*%
%TO.C,D83*%
X288193750Y-200025000D03*
X284893750Y-200025000D03*
%TD*%
%TO.C,D66*%
X109600000Y-180975000D03*
X106300000Y-180975000D03*
%TD*%
%TO.C,D13*%
X314387500Y-102393750D03*
X311087500Y-102393750D03*
%TD*%
%TO.C,D52*%
X81025000Y-161925000D03*
X77725000Y-161925000D03*
%TD*%
%TO.C,D85*%
X338200000Y-200025000D03*
X334900000Y-200025000D03*
%TD*%
M02*
