M48
; DRILL file {KiCad 8.0.5} date 2024-09-22T12:20:47-0700
; FORMAT={-:-/ absolute / inch / decimal}
; #@! TF.CreationDate,2024-09-22T12:20:47-07:00
; #@! TF.GenerationSoftware,Kicad,Pcbnew,8.0.5
; #@! TF.FileFunction,Plated,1,2,PTH
FMAT,2
INCH
; #@! TA.AperFunction,Plated,PTH,ViaDrill
T1C0.0118
; #@! TA.AperFunction,Plated,PTH,ComponentDrill
T2C0.0276
; #@! TA.AperFunction,Plated,PTH,ComponentDrill
T3C0.0591
%
G90
G05
T1
X1.875Y-4.125
X1.875Y-4.9688
X1.9688Y-7.9688
X2.0625Y-5.7188
X2.1562Y-6.4688
X2.3438Y-7.2188
X2.625Y-4.9688
X2.9062Y-7.9688
X3.0Y-5.7188
X3.125Y-4.125
X3.1875Y-6.4688
X3.375Y-4.9688
X3.5625Y-7.2188
X3.75Y-5.7188
X3.8438Y-7.9688
X3.875Y-4.125
X3.9375Y-6.4688
X4.125Y-4.9688
X4.3125Y-7.2188
X4.5Y-5.7188
X4.625Y-4.125
X4.6875Y-6.4688
X4.875Y-4.9688
X5.0625Y-7.2188
X5.25Y-5.7188
X5.375Y-4.125
X5.4375Y-6.4688
X5.625Y-4.9688
X5.8125Y-7.2188
X6.0Y-5.7188
X6.1875Y-6.4688
X6.375Y-4.9688
X6.5625Y-7.2188
X6.625Y-4.125
X6.6562Y-7.9688
X6.75Y-5.7188
X6.9375Y-6.4688
X7.125Y-4.9688
X7.3125Y-7.2188
X7.375Y-4.125
X7.4213Y-4.9688
X7.4803Y-4.125
X7.5Y-5.7188
X7.5591Y-7.9528
X7.5984Y-7.2188
X7.6875Y-6.4688
X7.7756Y-5.7188
X7.7756Y-6.4688
X7.815Y-7.3031
X7.8346Y-7.9724
X7.875Y-4.9688
X8.0625Y-7.2188
X8.125Y-4.125
X8.25Y-5.7188
X8.2677Y-7.3425
X8.2677Y-7.9331
X8.3071Y-7.9528
X8.3071Y-7.9921
X8.345Y-8.03
X8.3661Y-7.5
X8.4375Y-6.4688
X8.625Y-4.9688
X8.8125Y-7.2188
X8.875Y-4.125
X9.0Y-5.7188
X9.0354Y-7.2638
X9.0945Y-7.2638
X9.1535Y-7.2638
X9.1875Y-6.4688
X9.2126Y-7.2638
X9.375Y-4.9688
X9.4688Y-7.9688
X9.5625Y-7.2188
X9.75Y-5.7188
X9.9375Y-6.4688
X10.125Y-4.125
X10.125Y-4.9688
X10.3125Y-7.2188
X10.4062Y-7.9688
X10.5Y-5.7188
X10.6875Y-6.4688
X10.875Y-4.125
X10.875Y-4.9688
X11.25Y-5.7188
X11.3438Y-7.9688
X11.625Y-4.125
X11.7188Y-7.2188
X11.9062Y-6.4688
X12.0Y-4.9688
X12.1875Y-5.7188
X12.2812Y-7.9688
X12.375Y-4.125
X13.3125Y-4.125
X13.3125Y-4.9688
X13.3125Y-5.7188
X13.3125Y-7.9688
X14.0625Y-4.125
X14.0625Y-4.9688
X14.0625Y-5.7188
X14.0625Y-7.2188
X14.0625Y-7.9688
X14.8125Y-4.125
X14.8125Y-4.9688
X14.8125Y-5.7188
X14.8125Y-7.9688
T3
X1.6625Y-3.7437
X1.6625Y-4.5875
X1.7562Y-7.5875
X1.85Y-5.3375
X1.9125Y-3.6437
X1.9125Y-4.4875
X1.9437Y-6.0875
X2.0063Y-7.4875
X2.1Y-5.2375
X2.1313Y-6.8375
X2.1938Y-5.9875
X2.3813Y-6.7375
X2.4125Y-4.5875
X2.6625Y-4.4875
X2.6938Y-7.5875
X2.7875Y-5.3375
X2.9125Y-3.7437
X2.9438Y-7.4875
X2.975Y-6.0875
X3.0375Y-5.2375
X3.1625Y-3.6437
X3.1625Y-4.5875
X3.225Y-5.9875
X3.35Y-6.8375
X3.4125Y-4.4875
X3.5375Y-5.3375
X3.6Y-6.7375
X3.6313Y-7.5875
X3.6625Y-3.7437
X3.725Y-6.0875
X3.7875Y-5.2375
X3.8813Y-7.4875
X3.9125Y-3.6437
X3.9125Y-4.5875
X3.975Y-5.9875
X4.1Y-6.8375
X4.1625Y-4.4875
X4.2875Y-5.3375
X4.35Y-6.7375
X4.4125Y-3.7437
X4.475Y-6.0875
X4.5375Y-5.2375
X4.6625Y-3.6437
X4.6625Y-4.5875
X4.725Y-5.9875
X4.85Y-6.8375
X4.9125Y-4.4875
X5.0375Y-5.3375
X5.1Y-6.7375
X5.1625Y-3.7437
X5.225Y-6.0875
X5.2875Y-5.2375
X5.4125Y-3.6437
X5.4125Y-4.5875
X5.475Y-5.9875
X5.6Y-6.8375
X5.6625Y-4.4875
X5.7875Y-5.3375
X5.85Y-6.7375
X5.975Y-6.0875
X6.0375Y-5.2375
X6.1625Y-4.5875
X6.225Y-5.9875
X6.35Y-6.8375
X6.4125Y-3.7437
X6.4125Y-4.4875
X6.4437Y-7.5875
X6.5375Y-5.3375
X6.6Y-6.7375
X6.6625Y-3.6437
X6.6937Y-7.4875
X6.725Y-6.0875
X6.7875Y-5.2375
X6.9125Y-4.5875
X6.975Y-5.9875
X7.1Y-6.8375
X7.1625Y-3.7437
X7.1625Y-4.4875
X7.2875Y-5.3375
X7.35Y-6.7375
X7.4125Y-3.6437
X7.475Y-6.0875
X7.5375Y-5.2375
X7.6625Y-4.5875
X7.725Y-5.9875
X7.85Y-6.8375
X7.9125Y-3.7437
X7.9125Y-4.4875
X8.0375Y-5.3375
X8.1Y-6.7375
X8.1625Y-3.6437
X8.225Y-6.0875
X8.2875Y-5.2375
X8.4125Y-4.5875
X8.475Y-5.9875
X8.6Y-6.8375
X8.6625Y-3.7437
X8.6625Y-4.4875
X8.7875Y-5.3375
X8.85Y-6.7375
X8.9125Y-3.6437
X8.975Y-6.0875
X9.0375Y-5.2375
X9.1625Y-4.5875
X9.225Y-5.9875
X9.2562Y-7.5875
X9.35Y-6.8375
X9.4125Y-4.4875
X9.5062Y-7.4875
X9.5375Y-5.3375
X9.6Y-6.7375
X9.725Y-6.0875
X9.7875Y-5.2375
X9.9125Y-3.7437
X9.9125Y-4.5875
X9.975Y-5.9875
X10.1Y-6.8375
X10.1625Y-3.6437
X10.1625Y-4.4875
X10.1937Y-7.5875
X10.2875Y-5.3375
X10.35Y-6.7375
X10.4437Y-7.4875
X10.475Y-6.0875
X10.5375Y-5.2375
X10.6625Y-3.7437
X10.6625Y-4.5875
X10.725Y-5.9875
X10.9125Y-3.6437
X10.9125Y-4.4875
X11.0375Y-5.3375
X11.1312Y-7.5875
X11.2875Y-5.2375
X11.3812Y-7.4875
X11.4125Y-3.7437
X11.5062Y-6.8375
X11.6625Y-3.6437
X11.6937Y-6.0875
X11.7562Y-6.7375
X11.7875Y-4.5875
X11.9437Y-5.9875
X11.975Y-5.3375
X12.0375Y-4.4875
X12.0687Y-7.5875
X12.1625Y-3.7437
X12.225Y-5.2375
X12.3187Y-7.4875
X12.4125Y-3.6437
X13.1Y-3.7437
X13.1Y-4.5875
X13.1Y-5.3375
X13.1Y-7.5875
X13.35Y-3.6437
X13.35Y-4.4875
X13.35Y-5.2375
X13.35Y-7.4875
X13.85Y-3.7437
X13.85Y-4.5875
X13.85Y-5.3375
X13.85Y-6.8375
X13.85Y-7.5875
X14.1Y-3.6437
X14.1Y-4.4875
X14.1Y-5.2375
X14.1Y-6.7375
X14.1Y-7.4875
X14.6Y-3.7437
X14.6Y-4.5875
X14.6Y-5.3375
X14.6Y-7.5875
X14.85Y-3.6437
X14.85Y-4.4875
X14.85Y-5.2375
X14.85Y-7.4875
T2
G00X9.2938Y-3.5076
M15
G01X9.2938Y-3.5549
M16
G05
G00X9.2938Y-3.6848
M15
G01X9.2938Y-3.732
M16
G05
G00X9.5812Y-3.5076
M15
G01X9.5812Y-3.5549
M16
G05
G00X9.5812Y-3.6848
M15
G01X9.5812Y-3.732
M16
G05
M30
