%TF.GenerationSoftware,KiCad,Pcbnew,8.0.5*%
%TF.CreationDate,2024-09-22T12:20:42-07:00*%
%TF.ProjectId,keyboard_pcb,6b657962-6f61-4726-945f-7063622e6b69,rev?*%
%TF.SameCoordinates,Original*%
%TF.FileFunction,Copper,L1,Top*%
%TF.FilePolarity,Positive*%
%FSLAX46Y46*%
G04 Gerber Fmt 4.6, Leading zero omitted, Abs format (unit mm)*
G04 Created by KiCad (PCBNEW 8.0.5) date 2024-09-22 12:20:42*
%MOMM*%
%LPD*%
G01*
G04 APERTURE LIST*
%TA.AperFunction,ComponentPad*%
%ADD10C,2.200000*%
%TD*%
%TA.AperFunction,ComponentPad*%
%ADD11O,1.700000X2.700000*%
%TD*%
%TA.AperFunction,ViaPad*%
%ADD12C,0.600000*%
%TD*%
%TA.AperFunction,Conductor*%
%ADD13C,0.200000*%
%TD*%
%TA.AperFunction,Conductor*%
%ADD14C,0.381000*%
%TD*%
G04 APERTURE END LIST*
D10*
%TO.P,SW83,1,COL*%
%TO.N,COL12*%
X289083750Y-190182500D03*
%TO.P,SW83,2,ROW*%
%TO.N,Net-(D83-A)*%
X282733750Y-192722500D03*
%TD*%
%TO.P,SW11,1,COL*%
%TO.N,COL11*%
X277177500Y-92551250D03*
%TO.P,SW11,2,ROW*%
%TO.N,Net-(D11-A)*%
X270827500Y-95091250D03*
%TD*%
%TO.P,SW51,1,COL*%
%TO.N,COL0*%
X55721250Y-152082500D03*
%TO.P,SW51,2,ROW*%
%TO.N,Net-(D51-A)*%
X49371250Y-154622500D03*
%TD*%
%TO.P,SW15,1,COL*%
%TO.N,COL15*%
X358140000Y-92551250D03*
%TO.P,SW15,2,ROW*%
%TO.N,Net-(D15-A)*%
X351790000Y-95091250D03*
%TD*%
%TO.P,SW41,1,COL*%
%TO.N,COL7*%
X191452500Y-133032500D03*
%TO.P,SW41,2,ROW*%
%TO.N,Net-(D41-A)*%
X185102500Y-135572500D03*
%TD*%
%TO.P,SW55,1,COL*%
%TO.N,COL4*%
X139065000Y-152082500D03*
%TO.P,SW55,2,ROW*%
%TO.N,Net-(D55-A)*%
X132715000Y-154622500D03*
%TD*%
%TO.P,SW73,1,COL*%
%TO.N,COL10*%
X243840000Y-171132500D03*
%TO.P,SW73,2,ROW*%
%TO.N,Net-(D73-A)*%
X237490000Y-173672500D03*
%TD*%
%TO.P,SW79,1,COL*%
%TO.N,COL2*%
X98583750Y-190182500D03*
%TO.P,SW79,2,ROW*%
%TO.N,Net-(D79-A)*%
X92233750Y-192722500D03*
%TD*%
%TO.P,SW28,1,COL*%
%TO.N,COL11*%
X258127500Y-113982500D03*
%TO.P,SW28,2,ROW*%
%TO.N,Net-(D28-A)*%
X251777500Y-116522500D03*
%TD*%
%TO.P,SW71,1,COL*%
%TO.N,COL8*%
X205740000Y-171132500D03*
%TO.P,SW71,2,ROW*%
%TO.N,Net-(D71-A)*%
X199390000Y-173672500D03*
%TD*%
%TO.P,SW33,1,COL*%
%TO.N,COL16*%
X377190000Y-113982500D03*
%TO.P,SW33,2,ROW*%
%TO.N,Net-(D33-A)*%
X370840000Y-116522500D03*
%TD*%
%TO.P,SW5,1,COL*%
%TO.N,COL5*%
X137477500Y-92551250D03*
%TO.P,SW5,2,ROW*%
%TO.N,Net-(D5-A)*%
X131127500Y-95091250D03*
%TD*%
%TO.P,SW82,1,COL*%
%TO.N,COL11*%
X265271250Y-190182500D03*
%TO.P,SW82,2,ROW*%
%TO.N,Net-(D82-A)*%
X258921250Y-192722500D03*
%TD*%
%TO.P,SW8,1,COL*%
%TO.N,COL8*%
X207327500Y-92551250D03*
%TO.P,SW8,2,ROW*%
%TO.N,Net-(D8-A)*%
X200977500Y-95091250D03*
%TD*%
%TO.P,SW86,1,COL*%
%TO.N,COL15*%
X358140000Y-190182500D03*
%TO.P,SW86,2,ROW*%
%TO.N,Net-(D86-A)*%
X351790000Y-192722500D03*
%TD*%
%TO.P,SW31,1,COL*%
%TO.N,COL14*%
X339090000Y-113982500D03*
%TO.P,SW31,2,ROW*%
%TO.N,Net-(D31-A)*%
X332740000Y-116522500D03*
%TD*%
%TO.P,SW72,1,COL*%
%TO.N,COL9*%
X224790000Y-171132500D03*
%TO.P,SW72,2,ROW*%
%TO.N,Net-(D72-A)*%
X218440000Y-173672500D03*
%TD*%
%TO.P,SW70,1,COL*%
%TO.N,COL7*%
X186690000Y-171132500D03*
%TO.P,SW70,2,ROW*%
%TO.N,Net-(D70-A)*%
X180340000Y-173672500D03*
%TD*%
%TO.P,SW58,1,COL*%
%TO.N,COL7*%
X196215000Y-152082500D03*
%TO.P,SW58,2,ROW*%
%TO.N,Net-(D58-A)*%
X189865000Y-154622500D03*
%TD*%
%TO.P,SW26,1,COL*%
%TO.N,COL9*%
X220027500Y-113982500D03*
%TO.P,SW26,2,ROW*%
%TO.N,Net-(D26-A)*%
X213677500Y-116522500D03*
%TD*%
%TO.P,SW78,1,COL*%
%TO.N,COL1*%
X74771250Y-190182500D03*
%TO.P,SW78,2,ROW*%
%TO.N,Net-(D78-A)*%
X68421250Y-192722500D03*
%TD*%
%TO.P,SW87,1,COL*%
%TO.N,COL16*%
X377190000Y-190182500D03*
%TO.P,SW87,2,ROW*%
%TO.N,Net-(D87-A)*%
X370840000Y-192722500D03*
%TD*%
%TO.P,SW10,1,COL*%
%TO.N,COL10*%
X258127500Y-92551250D03*
%TO.P,SW10,2,ROW*%
%TO.N,Net-(D10-A)*%
X251777500Y-95091250D03*
%TD*%
%TO.P,SW19,1,COL*%
%TO.N,COL2*%
X86677500Y-113982500D03*
%TO.P,SW19,2,ROW*%
%TO.N,Net-(D19-A)*%
X80327500Y-116522500D03*
%TD*%
%TO.P,SW67,1,COL*%
%TO.N,COL4*%
X129540000Y-171132500D03*
%TO.P,SW67,2,ROW*%
%TO.N,Net-(D67-A)*%
X123190000Y-173672500D03*
%TD*%
%TO.P,SW35,1,COL*%
%TO.N,COL1*%
X77152500Y-133032500D03*
%TO.P,SW35,2,ROW*%
%TO.N,Net-(D35-A)*%
X70802500Y-135572500D03*
%TD*%
%TO.P,SW16,1,COL*%
%TO.N,COL16*%
X377190000Y-92551250D03*
%TO.P,SW16,2,ROW*%
%TO.N,Net-(D16-A)*%
X370840000Y-95091250D03*
%TD*%
%TO.P,SW36,1,COL*%
%TO.N,COL2*%
X96202500Y-133032500D03*
%TO.P,SW36,2,ROW*%
%TO.N,Net-(D36-A)*%
X89852500Y-135572500D03*
%TD*%
%TO.P,SW81,1,COL*%
%TO.N,COL10*%
X241458750Y-190182500D03*
%TO.P,SW81,2,ROW*%
%TO.N,Net-(D81-A)*%
X235108750Y-192722500D03*
%TD*%
%TO.P,SW12,1,COL*%
%TO.N,COL12*%
X296227500Y-92551250D03*
%TO.P,SW12,2,ROW*%
%TO.N,Net-(D12-A)*%
X289877500Y-95091250D03*
%TD*%
%TO.P,SW14,1,COL*%
%TO.N,COL14*%
X339090000Y-92551250D03*
%TO.P,SW14,2,ROW*%
%TO.N,Net-(D14-A)*%
X332740000Y-95091250D03*
%TD*%
%TO.P,SW34,1,COL*%
%TO.N,COL0*%
X53340000Y-133032500D03*
%TO.P,SW34,2,ROW*%
%TO.N,Net-(D34-A)*%
X46990000Y-135572500D03*
%TD*%
%TO.P,SW3,1,COL*%
%TO.N,COL3*%
X99377500Y-92551250D03*
%TO.P,SW3,2,ROW*%
%TO.N,Net-(D3-A)*%
X93027500Y-95091250D03*
%TD*%
%TO.P,SW18,1,COL*%
%TO.N,COL1*%
X67627500Y-113982500D03*
%TO.P,SW18,2,ROW*%
%TO.N,Net-(D18-A)*%
X61277500Y-116522500D03*
%TD*%
%TO.P,SW68,1,COL*%
%TO.N,COL5*%
X148590000Y-171132500D03*
%TO.P,SW68,2,ROW*%
%TO.N,Net-(D68-A)*%
X142240000Y-173672500D03*
%TD*%
%TO.P,SW52,1,COL*%
%TO.N,COL1*%
X81915000Y-152082500D03*
%TO.P,SW52,2,ROW*%
%TO.N,Net-(D52-A)*%
X75565000Y-154622500D03*
%TD*%
%TO.P,SW29,1,COL*%
%TO.N,COL12*%
X277177500Y-113982500D03*
%TO.P,SW29,2,ROW*%
%TO.N,Net-(D29-A)*%
X270827500Y-116522500D03*
%TD*%
%TO.P,SW54,1,COL*%
%TO.N,COL3*%
X120015000Y-152082500D03*
%TO.P,SW54,2,ROW*%
%TO.N,Net-(D54-A)*%
X113665000Y-154622500D03*
%TD*%
%TO.P,SW43,1,COL*%
%TO.N,COL9*%
X229552500Y-133032500D03*
%TO.P,SW43,2,ROW*%
%TO.N,Net-(D43-A)*%
X223202500Y-135572500D03*
%TD*%
%TO.P,SW44,1,COL*%
%TO.N,COL10*%
X248602500Y-133032500D03*
%TO.P,SW44,2,ROW*%
%TO.N,Net-(D44-A)*%
X242252500Y-135572500D03*
%TD*%
%TO.P,SW84,1,COL*%
%TO.N,COL13*%
X312896250Y-190182500D03*
%TO.P,SW84,2,ROW*%
%TO.N,Net-(D84-A)*%
X306546250Y-192722500D03*
%TD*%
%TO.P,SW56,1,COL*%
%TO.N,COL5*%
X158115000Y-152082500D03*
%TO.P,SW56,2,ROW*%
%TO.N,Net-(D56-A)*%
X151765000Y-154622500D03*
%TD*%
%TO.P,SW65,1,COL*%
%TO.N,COL2*%
X91440000Y-171132500D03*
%TO.P,SW65,2,ROW*%
%TO.N,Net-(D65-A)*%
X85090000Y-173672500D03*
%TD*%
%TO.P,SW60,1,COL*%
%TO.N,COL9*%
X234315000Y-152082500D03*
%TO.P,SW60,2,ROW*%
%TO.N,Net-(D60-A)*%
X227965000Y-154622500D03*
%TD*%
%TO.P,SW59,1,COL*%
%TO.N,COL8*%
X215265000Y-152082500D03*
%TO.P,SW59,2,ROW*%
%TO.N,Net-(D59-A)*%
X208915000Y-154622500D03*
%TD*%
%TO.P,SW80,1,COL*%
%TO.N,COL6*%
X170021250Y-190182500D03*
%TO.P,SW80,2,ROW*%
%TO.N,Net-(D80-A)*%
X163671250Y-192722500D03*
%TD*%
%TO.P,SW27,1,COL*%
%TO.N,COL10*%
X239077500Y-113982500D03*
%TO.P,SW27,2,ROW*%
%TO.N,Net-(D27-A)*%
X232727500Y-116522500D03*
%TD*%
%TO.P,SW40,1,COL*%
%TO.N,COL6*%
X172402500Y-133032500D03*
%TO.P,SW40,2,ROW*%
%TO.N,Net-(D40-A)*%
X166052500Y-135572500D03*
%TD*%
%TO.P,SW25,1,COL*%
%TO.N,COL8*%
X200977500Y-113982500D03*
%TO.P,SW25,2,ROW*%
%TO.N,Net-(D25-A)*%
X194627500Y-116522500D03*
%TD*%
%TO.P,SW21,1,COL*%
%TO.N,COL4*%
X124777500Y-113982500D03*
%TO.P,SW21,2,ROW*%
%TO.N,Net-(D21-A)*%
X118427500Y-116522500D03*
%TD*%
%TO.P,SW7,1,COL*%
%TO.N,COL7*%
X188277500Y-92551250D03*
%TO.P,SW7,2,ROW*%
%TO.N,Net-(D7-A)*%
X181927500Y-95091250D03*
%TD*%
%TO.P,SW46,1,COL*%
%TO.N,COL12*%
X286702500Y-133032500D03*
%TO.P,SW46,2,ROW*%
%TO.N,Net-(D46-A)*%
X280352500Y-135572500D03*
%TD*%
%TO.P,SW63,1,COL*%
%TO.N,COL13*%
X303371250Y-152082500D03*
%TO.P,SW63,2,ROW*%
%TO.N,Net-(D63-A)*%
X297021250Y-154622500D03*
%TD*%
%TO.P,SW49,1,COL*%
%TO.N,COL15*%
X358140000Y-133032500D03*
%TO.P,SW49,2,ROW*%
%TO.N,Net-(D49-A)*%
X351790000Y-135572500D03*
%TD*%
%TO.P,SW6,1,COL*%
%TO.N,COL6*%
X169227500Y-92551250D03*
%TO.P,SW6,2,ROW*%
%TO.N,Net-(D6-A)*%
X162877500Y-95091250D03*
%TD*%
%TO.P,SW30,1,COL*%
%TO.N,COL13*%
X305752500Y-113982500D03*
%TO.P,SW30,2,ROW*%
%TO.N,Net-(D30-A)*%
X299402500Y-116522500D03*
%TD*%
%TO.P,SW50,1,COL*%
%TO.N,COL16*%
X377190000Y-133032500D03*
%TO.P,SW50,2,ROW*%
%TO.N,Net-(D50-A)*%
X370840000Y-135572500D03*
%TD*%
%TO.P,SW45,1,COL*%
%TO.N,COL11*%
X267652500Y-133032500D03*
%TO.P,SW45,2,ROW*%
%TO.N,Net-(D45-A)*%
X261302500Y-135572500D03*
%TD*%
%TO.P,SW20,1,COL*%
%TO.N,COL3*%
X105727500Y-113982500D03*
%TO.P,SW20,2,ROW*%
%TO.N,Net-(D20-A)*%
X99377500Y-116522500D03*
%TD*%
%TO.P,SW61,1,COL*%
%TO.N,COL10*%
X253365000Y-152082500D03*
%TO.P,SW61,2,ROW*%
%TO.N,Net-(D61-A)*%
X247015000Y-154622500D03*
%TD*%
%TO.P,SW75,1,COL*%
%TO.N,COL13*%
X298608750Y-171132500D03*
%TO.P,SW75,2,ROW*%
%TO.N,Net-(D75-A)*%
X292258750Y-173672500D03*
%TD*%
%TO.P,SW42,1,COL*%
%TO.N,COL8*%
X210502500Y-133032500D03*
%TO.P,SW42,2,ROW*%
%TO.N,Net-(D42-A)*%
X204152500Y-135572500D03*
%TD*%
%TO.P,SW62,1,COL*%
%TO.N,COL11*%
X272415000Y-152082500D03*
%TO.P,SW62,2,ROW*%
%TO.N,Net-(D62-A)*%
X266065000Y-154622500D03*
%TD*%
%TO.P,SW17,1,COL*%
%TO.N,COL0*%
X48577500Y-113982500D03*
%TO.P,SW17,2,ROW*%
%TO.N,Net-(D17-A)*%
X42227500Y-116522500D03*
%TD*%
%TO.P,SW47,1,COL*%
%TO.N,COL13*%
X310515000Y-133032500D03*
%TO.P,SW47,2,ROW*%
%TO.N,Net-(D47-A)*%
X304165000Y-135572500D03*
%TD*%
%TO.P,SW1,1,COL*%
%TO.N,COL0*%
X48577500Y-92551250D03*
%TO.P,SW1,2,ROW*%
%TO.N,Net-(D1-A)*%
X42227500Y-95091250D03*
%TD*%
%TO.P,SW37,1,COL*%
%TO.N,COL3*%
X115252500Y-133032500D03*
%TO.P,SW37,2,ROW*%
%TO.N,Net-(D37-A)*%
X108902500Y-135572500D03*
%TD*%
%TO.P,SW24,1,COL*%
%TO.N,COL7*%
X181927500Y-113982500D03*
%TO.P,SW24,2,ROW*%
%TO.N,Net-(D24-A)*%
X175577500Y-116522500D03*
%TD*%
%TO.P,SW32,1,COL*%
%TO.N,COL15*%
X358140000Y-113982500D03*
%TO.P,SW32,2,ROW*%
%TO.N,Net-(D32-A)*%
X351790000Y-116522500D03*
%TD*%
%TO.P,SW2,1,COL*%
%TO.N,COL2*%
X80327500Y-92551250D03*
%TO.P,SW2,2,ROW*%
%TO.N,Net-(D2-A)*%
X73977500Y-95091250D03*
%TD*%
%TO.P,SW76,1,COL*%
%TO.N,COL15*%
X358140000Y-171132500D03*
%TO.P,SW76,2,ROW*%
%TO.N,Net-(D76-A)*%
X351790000Y-173672500D03*
%TD*%
%TO.P,SW69,1,COL*%
%TO.N,COL6*%
X167640000Y-171132500D03*
%TO.P,SW69,2,ROW*%
%TO.N,Net-(D69-A)*%
X161290000Y-173672500D03*
%TD*%
%TO.P,SW39,1,COL*%
%TO.N,COL5*%
X153352500Y-133032500D03*
%TO.P,SW39,2,ROW*%
%TO.N,Net-(D39-A)*%
X147002500Y-135572500D03*
%TD*%
%TO.P,SW48,1,COL*%
%TO.N,COL14*%
X339090000Y-133032500D03*
%TO.P,SW48,2,ROW*%
%TO.N,Net-(D48-A)*%
X332740000Y-135572500D03*
%TD*%
%TO.P,SW57,1,COL*%
%TO.N,COL6*%
X177165000Y-152082500D03*
%TO.P,SW57,2,ROW*%
%TO.N,Net-(D57-A)*%
X170815000Y-154622500D03*
%TD*%
%TO.P,SW77,1,COL*%
%TO.N,COL0*%
X50958750Y-190182500D03*
%TO.P,SW77,2,ROW*%
%TO.N,Net-(D77-A)*%
X44608750Y-192722500D03*
%TD*%
%TO.P,SW38,1,COL*%
%TO.N,COL4*%
X134302500Y-133032500D03*
%TO.P,SW38,2,ROW*%
%TO.N,Net-(D38-A)*%
X127952500Y-135572500D03*
%TD*%
%TO.P,SW9,1,COL*%
%TO.N,COL9*%
X226377500Y-92551250D03*
%TO.P,SW9,2,ROW*%
%TO.N,Net-(D9-A)*%
X220027500Y-95091250D03*
%TD*%
%TO.P,SW23,1,COL*%
%TO.N,COL6*%
X162877500Y-113982500D03*
%TO.P,SW23,2,ROW*%
%TO.N,Net-(D23-A)*%
X156527500Y-116522500D03*
%TD*%
%TO.P,SW13,1,COL*%
%TO.N,COL13*%
X315277500Y-92551250D03*
%TO.P,SW13,2,ROW*%
%TO.N,Net-(D13-A)*%
X308927500Y-95091250D03*
%TD*%
%TO.P,SW53,1,COL*%
%TO.N,COL2*%
X100965000Y-152082500D03*
%TO.P,SW53,2,ROW*%
%TO.N,Net-(D53-A)*%
X94615000Y-154622500D03*
%TD*%
%TO.P,SW64,1,COL*%
%TO.N,COL0*%
X60483750Y-171132500D03*
%TO.P,SW64,2,ROW*%
%TO.N,Net-(D64-A)*%
X54133750Y-173672500D03*
%TD*%
%TO.P,SW85,1,COL*%
%TO.N,COL14*%
X339090000Y-190182500D03*
%TO.P,SW85,2,ROW*%
%TO.N,Net-(D85-A)*%
X332740000Y-192722500D03*
%TD*%
%TO.P,SW22,1,COL*%
%TO.N,COL5*%
X143827500Y-113982500D03*
%TO.P,SW22,2,ROW*%
%TO.N,Net-(D22-A)*%
X137477500Y-116522500D03*
%TD*%
%TO.P,SW66,1,COL*%
%TO.N,COL3*%
X110490000Y-171132500D03*
%TO.P,SW66,2,ROW*%
%TO.N,Net-(D66-A)*%
X104140000Y-173672500D03*
%TD*%
%TO.P,SW4,1,COL*%
%TO.N,COL4*%
X118427500Y-92551250D03*
%TO.P,SW4,2,ROW*%
%TO.N,Net-(D4-A)*%
X112077500Y-95091250D03*
%TD*%
%TO.P,SW74,1,COL*%
%TO.N,COL11*%
X262890000Y-171132500D03*
%TO.P,SW74,2,ROW*%
%TO.N,Net-(D74-A)*%
X256540000Y-173672500D03*
%TD*%
D11*
%TO.P,USB1,6,SHIELD*%
%TO.N,unconnected-(USB1-SHIELD-Pad6)_1*%
X243362500Y-89693750D03*
%TO.N,unconnected-(USB1-SHIELD-Pad6)_2*%
X236062500Y-89693750D03*
%TO.N,unconnected-(USB1-SHIELD-Pad6)*%
X243362500Y-94193750D03*
%TO.N,unconnected-(USB1-SHIELD-Pad6)_3*%
X236062500Y-94193750D03*
%TD*%
D12*
%TO.N,GND*%
X212500000Y-190500000D03*
X234000000Y-184500000D03*
%TO.N,+5V*%
X198500000Y-185500000D03*
X229500000Y-184500000D03*
X210000000Y-201500000D03*
X210000000Y-186500000D03*
X192000000Y-202000000D03*
X199000000Y-202500000D03*
%TO.N,ROW0*%
X117475000Y-104775000D03*
X187325000Y-104775000D03*
X225425000Y-104775000D03*
X190000000Y-104775000D03*
X314325000Y-104775000D03*
X376237500Y-104775000D03*
X357187500Y-104775000D03*
X168275000Y-104775000D03*
X295275000Y-104775000D03*
X206375000Y-104775000D03*
X98425000Y-104775000D03*
X338137500Y-104775000D03*
X79375000Y-104775000D03*
X257175000Y-104775000D03*
X276225000Y-104775000D03*
X47625000Y-104775000D03*
X136525000Y-104775000D03*
%TO.N,ROW1*%
X85725000Y-126206250D03*
X142875000Y-126206250D03*
X123825000Y-126206250D03*
X104775000Y-126206250D03*
X47625000Y-126206250D03*
X338137500Y-126206250D03*
X376237500Y-126206250D03*
X180975000Y-126206250D03*
X188500000Y-126206250D03*
X276225000Y-126206250D03*
X66675000Y-126206250D03*
X357187500Y-126206250D03*
X257175000Y-126206250D03*
X161925000Y-126206250D03*
X304800000Y-126206250D03*
X238125000Y-126206250D03*
X200025000Y-126206250D03*
X219075000Y-126206250D03*
%TO.N,ROW2*%
X52387500Y-145256250D03*
X171450000Y-145256250D03*
X152400000Y-145256250D03*
X76200000Y-145256250D03*
X376237500Y-145256250D03*
X114300000Y-145256250D03*
X285750000Y-145256250D03*
X266700000Y-145256250D03*
X247650000Y-145256250D03*
X95250000Y-145256250D03*
X197500000Y-145256250D03*
X338137500Y-145256250D03*
X309562500Y-145256250D03*
X357187500Y-145256250D03*
X228600000Y-145256250D03*
X209550000Y-145256250D03*
X190500000Y-145256250D03*
X133350000Y-145256250D03*
%TO.N,ROW3*%
X119062500Y-164306250D03*
X54768750Y-164306250D03*
X252412500Y-164306250D03*
X271462500Y-164306250D03*
X80962500Y-164306250D03*
X233362500Y-164306250D03*
X214312500Y-164306250D03*
X100012500Y-164306250D03*
X138112500Y-164306250D03*
X176212500Y-164306250D03*
X197500000Y-164306250D03*
X302418750Y-164306250D03*
X157162500Y-164306250D03*
X195262500Y-164306250D03*
%TO.N,ROW4*%
X128587500Y-183356250D03*
X59531250Y-183356250D03*
X223837500Y-183356250D03*
X147637500Y-183356250D03*
X261937500Y-183356250D03*
X204787500Y-183356250D03*
X109537500Y-183356250D03*
X297656250Y-183356250D03*
X166687500Y-183356250D03*
X90487500Y-183356250D03*
X185737500Y-183356250D03*
X357187500Y-183356250D03*
X242887500Y-183356250D03*
X193000000Y-183356250D03*
%TO.N,ROW5*%
X211962500Y-203962500D03*
X288131250Y-202406250D03*
X357187500Y-202406250D03*
X311943750Y-202406250D03*
X240506250Y-202406250D03*
X264318750Y-202406250D03*
X50006250Y-202406250D03*
X97631250Y-202406250D03*
X338137500Y-202406250D03*
X376237500Y-202406250D03*
X169068750Y-202406250D03*
X73818750Y-202406250D03*
%TO.N,Net-(U1-D+)*%
X211000000Y-203000000D03*
X232500000Y-184500000D03*
%TO.N,Net-(U1-D-)*%
X231000000Y-184500000D03*
X211000000Y-202000000D03*
%TD*%
D13*
%TO.N,Net-(U1-D+)*%
X211600000Y-202400000D02*
X211000000Y-203000000D01*
X212065686Y-188500000D02*
X211600000Y-188965686D01*
X216500000Y-191000000D02*
X214000000Y-188500000D01*
X211600000Y-188965686D02*
X211600000Y-202400000D01*
X221000000Y-188500000D02*
X218500000Y-191000000D01*
X218500000Y-191000000D02*
X216500000Y-191000000D01*
X228500000Y-188500000D02*
X221000000Y-188500000D01*
X214000000Y-188500000D02*
X212065686Y-188500000D01*
X232500000Y-184500000D02*
X228500000Y-188500000D01*
%TO.N,Net-(U1-D-)*%
X211000000Y-189000000D02*
X211000000Y-202000000D01*
X212000000Y-188000000D02*
X211000000Y-189000000D01*
X214000000Y-188000000D02*
X212000000Y-188000000D01*
X216500000Y-185500000D02*
X214000000Y-188000000D01*
X218500000Y-185500000D02*
X216500000Y-185500000D01*
X227500000Y-188000000D02*
X221000000Y-188000000D01*
X221000000Y-188000000D02*
X218500000Y-185500000D01*
X231000000Y-184500000D02*
X227500000Y-188000000D01*
D14*
%TO.N,GND*%
X234000000Y-184500000D02*
X227000000Y-191500000D01*
X213500000Y-191500000D02*
X212500000Y-190500000D01*
X227000000Y-191500000D02*
X213500000Y-191500000D01*
%TO.N,+5V*%
X192500000Y-202500000D02*
X192000000Y-202000000D01*
X198500000Y-185500000D02*
X209000000Y-185500000D01*
X210000000Y-201500000D02*
X209000000Y-202500000D01*
X229500000Y-184500000D02*
X212000000Y-184500000D01*
X210000000Y-186500000D02*
X210000000Y-201500000D01*
X209000000Y-202500000D02*
X199000000Y-202500000D01*
X212000000Y-184500000D02*
X210000000Y-186500000D01*
X209000000Y-185500000D02*
X210000000Y-186500000D01*
X199000000Y-202500000D02*
X192500000Y-202500000D01*
D13*
%TO.N,ROW0*%
X190000000Y-104775000D02*
X376237500Y-104775000D01*
X47625000Y-104775000D02*
X190000000Y-104775000D01*
%TO.N,ROW1*%
X47625000Y-126206250D02*
X188500000Y-126206250D01*
X189000000Y-126206250D02*
X276225000Y-126206250D01*
X316706250Y-123825000D02*
X319087500Y-126206250D01*
X289718750Y-123825000D02*
X292893750Y-123825000D01*
X295275000Y-126206250D02*
X304800000Y-126206250D01*
X313531250Y-123825000D02*
X316706250Y-123825000D01*
X319087500Y-126206250D02*
X338137500Y-126206250D01*
X311150000Y-126206250D02*
X313531250Y-123825000D01*
X304800000Y-126206250D02*
X311150000Y-126206250D01*
X276225000Y-126206250D02*
X287337500Y-126206250D01*
X188500000Y-126206250D02*
X189000000Y-126206250D01*
X292893750Y-123825000D02*
X295275000Y-126206250D01*
X338137500Y-126206250D02*
X376237500Y-126206250D01*
X287337500Y-126206250D02*
X289718750Y-123825000D01*
%TO.N,ROW2*%
X52387500Y-145256250D02*
X197500000Y-145256250D01*
X197500000Y-145256250D02*
X376237500Y-145256250D01*
%TO.N,ROW3*%
X292893750Y-164306250D02*
X302418750Y-164306250D01*
X271462500Y-164306250D02*
X284956250Y-164306250D01*
X284956250Y-164306250D02*
X287337500Y-161925000D01*
X54768750Y-164306250D02*
X197500000Y-164306250D01*
X290512500Y-161925000D02*
X292893750Y-164306250D01*
X287337500Y-161925000D02*
X290512500Y-161925000D01*
X197500000Y-164306250D02*
X271462500Y-164306250D01*
%TO.N,ROW4*%
X261937500Y-183356250D02*
X280193750Y-183356250D01*
X306387500Y-180975000D02*
X309562500Y-180975000D01*
X285750000Y-180975000D02*
X288131250Y-183356250D01*
X90487500Y-183356250D02*
X193000000Y-183356250D01*
X309562500Y-180975000D02*
X311943750Y-183356250D01*
X68262500Y-180975000D02*
X71437500Y-180975000D01*
X280193750Y-183356250D02*
X282575000Y-180975000D01*
X304006250Y-183356250D02*
X306387500Y-180975000D01*
X193000000Y-183356250D02*
X261937500Y-183356250D01*
X288131250Y-183356250D02*
X297656250Y-183356250D01*
X59531250Y-183356250D02*
X65881250Y-183356250D01*
X71437500Y-180975000D02*
X73818750Y-183356250D01*
X297656250Y-183356250D02*
X304006250Y-183356250D01*
X73818750Y-183356250D02*
X90487500Y-183356250D01*
X65881250Y-183356250D02*
X68262500Y-180975000D01*
X282575000Y-180975000D02*
X285750000Y-180975000D01*
X311943750Y-183356250D02*
X357187500Y-183356250D01*
%TO.N,ROW5*%
X115887500Y-200025000D02*
X119062500Y-200025000D01*
X97631250Y-202406250D02*
X113506250Y-202406250D01*
X221456250Y-202406250D02*
X240506250Y-202406250D01*
X50006250Y-202406250D02*
X97631250Y-202406250D01*
X211962500Y-203962500D02*
X215900000Y-200025000D01*
X169068750Y-202406250D02*
X190500000Y-202406250D01*
X190500000Y-202406250D02*
X192087500Y-203993750D01*
X219075000Y-200025000D02*
X221456250Y-202406250D01*
X192087500Y-203993750D02*
X211931250Y-203993750D01*
X240506250Y-202406250D02*
X376237500Y-202406250D01*
X215900000Y-200025000D02*
X219075000Y-200025000D01*
X119062500Y-200025000D02*
X121443750Y-202406250D01*
X121443750Y-202406250D02*
X169068750Y-202406250D01*
X113506250Y-202406250D02*
X115887500Y-200025000D01*
X211931250Y-203993750D02*
X211962500Y-203962500D01*
%TD*%
M02*
