M48
; DRILL file {KiCad 8.0.5} date 2024-09-22T14:44:06-0700
; FORMAT={-:-/ absolute / inch / decimal}
; #@! TF.CreationDate,2024-09-22T14:44:06-07:00
; #@! TF.GenerationSoftware,Kicad,Pcbnew,8.0.5
; #@! TF.FileFunction,NonPlated,1,2,NPTH
FMAT,2
INCH
; #@! TA.AperFunction,NonPlated,NPTH,ComponentDrill
T1C0.0669
; #@! TA.AperFunction,NonPlated,NPTH,ComponentDrill
T2C0.1201
; #@! TA.AperFunction,NonPlated,NPTH,ComponentDrill
T3C0.1575
%
G90
G05
T1
X1.6125Y-3.8438
X1.6125Y-4.6875
X1.7063Y-7.6875
X1.8Y-5.4375
X1.8938Y-6.1875
X2.0125Y-3.8438
X2.0125Y-4.6875
X2.0812Y-6.9375
X2.1062Y-7.6875
X2.2Y-5.4375
X2.2937Y-6.1875
X2.3625Y-4.6875
X2.4812Y-6.9375
X2.6437Y-7.6875
X2.7375Y-5.4375
X2.7625Y-4.6875
X2.8625Y-3.8438
X2.925Y-6.1875
X3.0437Y-7.6875
X3.1125Y-4.6875
X3.1375Y-5.4375
X3.2625Y-3.8438
X3.3Y-6.9375
X3.325Y-6.1875
X3.4875Y-5.4375
X3.5125Y-4.6875
X3.5812Y-7.6875
X3.6125Y-3.8438
X3.675Y-6.1875
X3.7Y-6.9375
X3.8625Y-4.6875
X3.8875Y-5.4375
X3.9812Y-7.6875
X4.0125Y-3.8438
X4.05Y-6.9375
X4.075Y-6.1875
X4.2375Y-5.4375
X4.2625Y-4.6875
X4.3625Y-3.8438
X4.425Y-6.1875
X4.45Y-6.9375
X4.6125Y-4.6875
X4.6375Y-5.4375
X4.7625Y-3.8438
X4.8Y-6.9375
X4.825Y-6.1875
X4.9875Y-5.4375
X5.0125Y-4.6875
X5.1125Y-3.8438
X5.175Y-6.1875
X5.2Y-6.9375
X5.3625Y-4.6875
X5.3875Y-5.4375
X5.5125Y-3.8438
X5.55Y-6.9375
X5.575Y-6.1875
X5.7375Y-5.4375
X5.7625Y-4.6875
X5.925Y-6.1875
X5.95Y-6.9375
X6.1125Y-4.6875
X6.1375Y-5.4375
X6.3Y-6.9375
X6.325Y-6.1875
X6.3625Y-3.8438
X6.3937Y-7.6875
X6.4875Y-5.4375
X6.5125Y-4.6875
X6.675Y-6.1875
X6.7Y-6.9375
X6.7625Y-3.8438
X6.7938Y-7.6875
X6.8625Y-4.6875
X6.8875Y-5.4375
X7.05Y-6.9375
X7.075Y-6.1875
X7.1125Y-3.8438
X7.2375Y-5.4375
X7.2625Y-4.6875
X7.425Y-6.1875
X7.45Y-6.9375
X7.5125Y-3.8438
X7.6125Y-4.6875
X7.6375Y-5.4375
X7.8Y-6.9375
X7.825Y-6.1875
X7.8625Y-3.8438
X7.9875Y-5.4375
X8.0125Y-4.6875
X8.175Y-6.1875
X8.2Y-6.9375
X8.2625Y-3.8438
X8.3625Y-4.6875
X8.3875Y-5.4375
X8.55Y-6.9375
X8.575Y-6.1875
X8.6125Y-3.8438
X8.7375Y-5.4375
X8.7625Y-4.6875
X8.925Y-6.1875
X8.95Y-6.9375
X9.0125Y-3.8438
X9.1125Y-4.6875
X9.1375Y-5.4375
X9.2062Y-7.6875
X9.3Y-6.9375
X9.325Y-6.1875
X9.4875Y-5.4375
X9.5125Y-4.6875
X9.6062Y-7.6875
X9.675Y-6.1875
X9.7Y-6.9375
X9.8625Y-3.8438
X9.8625Y-4.6875
X9.8875Y-5.4375
X10.05Y-6.9375
X10.075Y-6.1875
X10.1437Y-7.6875
X10.2375Y-5.4375
X10.2625Y-3.8438
X10.2625Y-4.6875
X10.425Y-6.1875
X10.45Y-6.9375
X10.5437Y-7.6875
X10.6125Y-3.8438
X10.6125Y-4.6875
X10.6375Y-5.4375
X10.825Y-6.1875
X10.9875Y-5.4375
X11.0125Y-3.8438
X11.0125Y-4.6875
X11.0812Y-7.6875
X11.3625Y-3.8438
X11.3875Y-5.4375
X11.4562Y-6.9375
X11.4812Y-7.6875
X11.6437Y-6.1875
X11.7375Y-4.6875
X11.7625Y-3.8438
X11.8562Y-6.9375
X11.925Y-5.4375
X12.0187Y-7.6875
X12.0437Y-6.1875
X12.1125Y-3.8438
X12.1375Y-4.6875
X12.325Y-5.4375
X12.4187Y-7.6875
X12.5125Y-3.8438
X13.05Y-3.8438
X13.05Y-4.6875
X13.05Y-5.4375
X13.05Y-7.6875
X13.45Y-3.8438
X13.45Y-4.6875
X13.45Y-5.4375
X13.45Y-7.6875
X13.8Y-3.8438
X13.8Y-4.6875
X13.8Y-5.4375
X13.8Y-6.9375
X13.8Y-7.6875
X14.2Y-3.8438
X14.2Y-4.6875
X14.2Y-5.4375
X14.2Y-6.9375
X14.2Y-7.6875
X14.55Y-3.8438
X14.55Y-4.6875
X14.55Y-5.4375
X14.55Y-7.6875
X14.95Y-3.8438
X14.95Y-4.6875
X14.95Y-5.4375
X14.95Y-7.6875
T2
X1.8127Y-6.6619
X2.7498Y-6.6619
X4.6252Y-7.4119
X8.5623Y-7.4119
X11.1877Y-6.6619
X11.3752Y-5.9119
X11.469Y-4.4119
X12.1248Y-6.6619
X12.3123Y-5.9119
X12.406Y-4.4119
T3
X1.8125Y-3.8438
X1.8125Y-4.6875
X1.8127Y-7.2619
X1.9062Y-7.6875
X2.0Y-5.4375
X2.0938Y-6.1875
X2.2812Y-6.9375
X2.5625Y-4.6875
X2.7498Y-7.2619
X2.8438Y-7.6875
X2.9375Y-5.4375
X3.0625Y-3.8438
X3.125Y-6.1875
X3.3125Y-4.6875
X3.5Y-6.9375
X3.6875Y-5.4375
X3.7812Y-7.6875
X3.8125Y-3.8438
X3.875Y-6.1875
X4.0625Y-4.6875
X4.25Y-6.9375
X4.4375Y-5.4375
X4.5625Y-3.8438
X4.625Y-6.1875
X4.6252Y-8.0119
X4.8125Y-4.6875
X5.0Y-6.9375
X5.1875Y-5.4375
X5.3125Y-3.8438
X5.375Y-6.1875
X5.5625Y-4.6875
X5.75Y-6.9375
X5.9375Y-5.4375
X6.125Y-6.1875
X6.3125Y-4.6875
X6.5Y-6.9375
X6.5625Y-3.8438
X6.5938Y-7.6875
X6.6875Y-5.4375
X6.875Y-6.1875
X7.0625Y-4.6875
X7.25Y-6.9375
X7.3125Y-3.8438
X7.4375Y-5.4375
X7.625Y-6.1875
X7.8125Y-4.6875
X8.0Y-6.9375
X8.0625Y-3.8438
X8.1875Y-5.4375
X8.375Y-6.1875
X8.5623Y-8.0119
X8.5625Y-4.6875
X8.75Y-6.9375
X8.8125Y-3.8438
X8.9375Y-5.4375
X9.125Y-6.1875
X9.3125Y-4.6875
X9.4062Y-7.6875
X9.5Y-6.9375
X9.6875Y-5.4375
X9.875Y-6.1875
X10.0625Y-3.8438
X10.0625Y-4.6875
X10.25Y-6.9375
X10.3438Y-7.6875
X10.4375Y-5.4375
X10.625Y-6.1875
X10.8125Y-3.8438
X10.8125Y-4.6875
X11.1875Y-5.4375
X11.1877Y-7.2619
X11.2812Y-7.6875
X11.3752Y-6.5119
X11.469Y-5.0119
X11.5625Y-3.8438
X11.6562Y-6.9375
X11.8438Y-6.1875
X11.9375Y-4.6875
X12.1248Y-7.2619
X12.125Y-5.4375
X12.2188Y-7.6875
X12.3123Y-6.5119
X12.3125Y-3.8438
X12.406Y-5.0119
X13.25Y-3.8438
X13.25Y-4.6875
X13.25Y-5.4375
X13.25Y-7.6875
X14.0Y-3.8438
X14.0Y-4.6875
X14.0Y-5.4375
X14.0Y-6.9375
X14.0Y-7.6875
X14.75Y-3.8438
X14.75Y-4.6875
X14.75Y-5.4375
X14.75Y-7.6875
M30
