%TF.GenerationSoftware,KiCad,Pcbnew,8.0.5*%
%TF.CreationDate,2024-09-22T12:20:42-07:00*%
%TF.ProjectId,keyboard_pcb,6b657962-6f61-4726-945f-7063622e6b69,rev?*%
%TF.SameCoordinates,Original*%
%TF.FileFunction,Copper,L2,Bot*%
%TF.FilePolarity,Positive*%
%FSLAX46Y46*%
G04 Gerber Fmt 4.6, Leading zero omitted, Abs format (unit mm)*
G04 Created by KiCad (PCBNEW 8.0.5) date 2024-09-22 12:20:42*
%MOMM*%
%LPD*%
G01*
G04 APERTURE LIST*
G04 Aperture macros list*
%AMRoundRect*
0 Rectangle with rounded corners*
0 $1 Rounding radius*
0 $2 $3 $4 $5 $6 $7 $8 $9 X,Y pos of 4 corners*
0 Add a 4 corners polygon primitive as box body*
4,1,4,$2,$3,$4,$5,$6,$7,$8,$9,$2,$3,0*
0 Add four circle primitives for the rounded corners*
1,1,$1+$1,$2,$3*
1,1,$1+$1,$4,$5*
1,1,$1+$1,$6,$7*
1,1,$1+$1,$8,$9*
0 Add four rect primitives between the rounded corners*
20,1,$1+$1,$2,$3,$4,$5,0*
20,1,$1+$1,$4,$5,$6,$7,0*
20,1,$1+$1,$6,$7,$8,$9,0*
20,1,$1+$1,$8,$9,$2,$3,0*%
G04 Aperture macros list end*
%TA.AperFunction,ComponentPad*%
%ADD10C,2.200000*%
%TD*%
%TA.AperFunction,SMDPad,CuDef*%
%ADD11RoundRect,0.225000X0.225000X0.375000X-0.225000X0.375000X-0.225000X-0.375000X0.225000X-0.375000X0*%
%TD*%
%TA.AperFunction,SMDPad,CuDef*%
%ADD12RoundRect,0.250000X0.337500X0.475000X-0.337500X0.475000X-0.337500X-0.475000X0.337500X-0.475000X0*%
%TD*%
%TA.AperFunction,SMDPad,CuDef*%
%ADD13RoundRect,0.250000X0.475000X-0.337500X0.475000X0.337500X-0.475000X0.337500X-0.475000X-0.337500X0*%
%TD*%
%TA.AperFunction,SMDPad,CuDef*%
%ADD14R,1.800000X2.100000*%
%TD*%
%TA.AperFunction,SMDPad,CuDef*%
%ADD15RoundRect,0.250000X-0.350000X-0.450000X0.350000X-0.450000X0.350000X0.450000X-0.350000X0.450000X0*%
%TD*%
%TA.AperFunction,SMDPad,CuDef*%
%ADD16R,0.550000X1.500000*%
%TD*%
%TA.AperFunction,SMDPad,CuDef*%
%ADD17R,1.500000X0.550000*%
%TD*%
%TA.AperFunction,SMDPad,CuDef*%
%ADD18RoundRect,0.250000X-0.475000X0.337500X-0.475000X-0.337500X0.475000X-0.337500X0.475000X0.337500X0*%
%TD*%
%TA.AperFunction,SMDPad,CuDef*%
%ADD19R,0.500000X2.250000*%
%TD*%
%TA.AperFunction,ComponentPad*%
%ADD20O,1.700000X2.700000*%
%TD*%
%TA.AperFunction,SMDPad,CuDef*%
%ADD21RoundRect,0.250000X-0.337500X-0.475000X0.337500X-0.475000X0.337500X0.475000X-0.337500X0.475000X0*%
%TD*%
%TA.AperFunction,SMDPad,CuDef*%
%ADD22RoundRect,0.250000X-0.450000X0.350000X-0.450000X-0.350000X0.450000X-0.350000X0.450000X0.350000X0*%
%TD*%
%TA.AperFunction,SMDPad,CuDef*%
%ADD23R,1.100000X1.800000*%
%TD*%
%TA.AperFunction,SMDPad,CuDef*%
%ADD24RoundRect,0.250000X0.350000X0.450000X-0.350000X0.450000X-0.350000X-0.450000X0.350000X-0.450000X0*%
%TD*%
%TA.AperFunction,SMDPad,CuDef*%
%ADD25RoundRect,0.250001X0.624999X-0.462499X0.624999X0.462499X-0.624999X0.462499X-0.624999X-0.462499X0*%
%TD*%
%TA.AperFunction,ViaPad*%
%ADD26C,0.600000*%
%TD*%
%TA.AperFunction,Conductor*%
%ADD27C,0.200000*%
%TD*%
%TA.AperFunction,Conductor*%
%ADD28C,0.381000*%
%TD*%
G04 APERTURE END LIST*
D10*
%TO.P,SW83,1,COL*%
%TO.N,COL12*%
X289083750Y-190182500D03*
%TO.P,SW83,2,ROW*%
%TO.N,Net-(D83-A)*%
X282733750Y-192722500D03*
%TD*%
%TO.P,SW11,1,COL*%
%TO.N,COL11*%
X277177500Y-92551250D03*
%TO.P,SW11,2,ROW*%
%TO.N,Net-(D11-A)*%
X270827500Y-95091250D03*
%TD*%
%TO.P,SW51,1,COL*%
%TO.N,COL0*%
X55721250Y-152082500D03*
%TO.P,SW51,2,ROW*%
%TO.N,Net-(D51-A)*%
X49371250Y-154622500D03*
%TD*%
%TO.P,SW15,1,COL*%
%TO.N,COL15*%
X358140000Y-92551250D03*
%TO.P,SW15,2,ROW*%
%TO.N,Net-(D15-A)*%
X351790000Y-95091250D03*
%TD*%
%TO.P,SW41,1,COL*%
%TO.N,COL7*%
X191452500Y-133032500D03*
%TO.P,SW41,2,ROW*%
%TO.N,Net-(D41-A)*%
X185102500Y-135572500D03*
%TD*%
%TO.P,SW55,1,COL*%
%TO.N,COL4*%
X139065000Y-152082500D03*
%TO.P,SW55,2,ROW*%
%TO.N,Net-(D55-A)*%
X132715000Y-154622500D03*
%TD*%
%TO.P,SW73,1,COL*%
%TO.N,COL10*%
X243840000Y-171132500D03*
%TO.P,SW73,2,ROW*%
%TO.N,Net-(D73-A)*%
X237490000Y-173672500D03*
%TD*%
%TO.P,SW79,1,COL*%
%TO.N,COL2*%
X98583750Y-190182500D03*
%TO.P,SW79,2,ROW*%
%TO.N,Net-(D79-A)*%
X92233750Y-192722500D03*
%TD*%
%TO.P,SW28,1,COL*%
%TO.N,COL11*%
X258127500Y-113982500D03*
%TO.P,SW28,2,ROW*%
%TO.N,Net-(D28-A)*%
X251777500Y-116522500D03*
%TD*%
%TO.P,SW71,1,COL*%
%TO.N,COL8*%
X205740000Y-171132500D03*
%TO.P,SW71,2,ROW*%
%TO.N,Net-(D71-A)*%
X199390000Y-173672500D03*
%TD*%
%TO.P,SW33,1,COL*%
%TO.N,COL16*%
X377190000Y-113982500D03*
%TO.P,SW33,2,ROW*%
%TO.N,Net-(D33-A)*%
X370840000Y-116522500D03*
%TD*%
%TO.P,SW5,1,COL*%
%TO.N,COL5*%
X137477500Y-92551250D03*
%TO.P,SW5,2,ROW*%
%TO.N,Net-(D5-A)*%
X131127500Y-95091250D03*
%TD*%
%TO.P,SW82,1,COL*%
%TO.N,COL11*%
X265271250Y-190182500D03*
%TO.P,SW82,2,ROW*%
%TO.N,Net-(D82-A)*%
X258921250Y-192722500D03*
%TD*%
%TO.P,SW8,1,COL*%
%TO.N,COL8*%
X207327500Y-92551250D03*
%TO.P,SW8,2,ROW*%
%TO.N,Net-(D8-A)*%
X200977500Y-95091250D03*
%TD*%
%TO.P,SW86,1,COL*%
%TO.N,COL15*%
X358140000Y-190182500D03*
%TO.P,SW86,2,ROW*%
%TO.N,Net-(D86-A)*%
X351790000Y-192722500D03*
%TD*%
%TO.P,SW31,1,COL*%
%TO.N,COL14*%
X339090000Y-113982500D03*
%TO.P,SW31,2,ROW*%
%TO.N,Net-(D31-A)*%
X332740000Y-116522500D03*
%TD*%
%TO.P,SW72,1,COL*%
%TO.N,COL9*%
X224790000Y-171132500D03*
%TO.P,SW72,2,ROW*%
%TO.N,Net-(D72-A)*%
X218440000Y-173672500D03*
%TD*%
%TO.P,SW70,1,COL*%
%TO.N,COL7*%
X186690000Y-171132500D03*
%TO.P,SW70,2,ROW*%
%TO.N,Net-(D70-A)*%
X180340000Y-173672500D03*
%TD*%
%TO.P,SW58,1,COL*%
%TO.N,COL7*%
X196215000Y-152082500D03*
%TO.P,SW58,2,ROW*%
%TO.N,Net-(D58-A)*%
X189865000Y-154622500D03*
%TD*%
%TO.P,SW26,1,COL*%
%TO.N,COL9*%
X220027500Y-113982500D03*
%TO.P,SW26,2,ROW*%
%TO.N,Net-(D26-A)*%
X213677500Y-116522500D03*
%TD*%
%TO.P,SW78,1,COL*%
%TO.N,COL1*%
X74771250Y-190182500D03*
%TO.P,SW78,2,ROW*%
%TO.N,Net-(D78-A)*%
X68421250Y-192722500D03*
%TD*%
%TO.P,SW87,1,COL*%
%TO.N,COL16*%
X377190000Y-190182500D03*
%TO.P,SW87,2,ROW*%
%TO.N,Net-(D87-A)*%
X370840000Y-192722500D03*
%TD*%
%TO.P,SW10,1,COL*%
%TO.N,COL10*%
X258127500Y-92551250D03*
%TO.P,SW10,2,ROW*%
%TO.N,Net-(D10-A)*%
X251777500Y-95091250D03*
%TD*%
%TO.P,SW19,1,COL*%
%TO.N,COL2*%
X86677500Y-113982500D03*
%TO.P,SW19,2,ROW*%
%TO.N,Net-(D19-A)*%
X80327500Y-116522500D03*
%TD*%
%TO.P,SW67,1,COL*%
%TO.N,COL4*%
X129540000Y-171132500D03*
%TO.P,SW67,2,ROW*%
%TO.N,Net-(D67-A)*%
X123190000Y-173672500D03*
%TD*%
%TO.P,SW35,1,COL*%
%TO.N,COL1*%
X77152500Y-133032500D03*
%TO.P,SW35,2,ROW*%
%TO.N,Net-(D35-A)*%
X70802500Y-135572500D03*
%TD*%
%TO.P,SW16,1,COL*%
%TO.N,COL16*%
X377190000Y-92551250D03*
%TO.P,SW16,2,ROW*%
%TO.N,Net-(D16-A)*%
X370840000Y-95091250D03*
%TD*%
%TO.P,SW36,1,COL*%
%TO.N,COL2*%
X96202500Y-133032500D03*
%TO.P,SW36,2,ROW*%
%TO.N,Net-(D36-A)*%
X89852500Y-135572500D03*
%TD*%
%TO.P,SW81,1,COL*%
%TO.N,COL10*%
X241458750Y-190182500D03*
%TO.P,SW81,2,ROW*%
%TO.N,Net-(D81-A)*%
X235108750Y-192722500D03*
%TD*%
%TO.P,SW12,1,COL*%
%TO.N,COL12*%
X296227500Y-92551250D03*
%TO.P,SW12,2,ROW*%
%TO.N,Net-(D12-A)*%
X289877500Y-95091250D03*
%TD*%
%TO.P,SW14,1,COL*%
%TO.N,COL14*%
X339090000Y-92551250D03*
%TO.P,SW14,2,ROW*%
%TO.N,Net-(D14-A)*%
X332740000Y-95091250D03*
%TD*%
%TO.P,SW34,1,COL*%
%TO.N,COL0*%
X53340000Y-133032500D03*
%TO.P,SW34,2,ROW*%
%TO.N,Net-(D34-A)*%
X46990000Y-135572500D03*
%TD*%
%TO.P,SW3,1,COL*%
%TO.N,COL3*%
X99377500Y-92551250D03*
%TO.P,SW3,2,ROW*%
%TO.N,Net-(D3-A)*%
X93027500Y-95091250D03*
%TD*%
%TO.P,SW18,1,COL*%
%TO.N,COL1*%
X67627500Y-113982500D03*
%TO.P,SW18,2,ROW*%
%TO.N,Net-(D18-A)*%
X61277500Y-116522500D03*
%TD*%
%TO.P,SW68,1,COL*%
%TO.N,COL5*%
X148590000Y-171132500D03*
%TO.P,SW68,2,ROW*%
%TO.N,Net-(D68-A)*%
X142240000Y-173672500D03*
%TD*%
%TO.P,SW52,1,COL*%
%TO.N,COL1*%
X81915000Y-152082500D03*
%TO.P,SW52,2,ROW*%
%TO.N,Net-(D52-A)*%
X75565000Y-154622500D03*
%TD*%
%TO.P,SW29,1,COL*%
%TO.N,COL12*%
X277177500Y-113982500D03*
%TO.P,SW29,2,ROW*%
%TO.N,Net-(D29-A)*%
X270827500Y-116522500D03*
%TD*%
%TO.P,SW54,1,COL*%
%TO.N,COL3*%
X120015000Y-152082500D03*
%TO.P,SW54,2,ROW*%
%TO.N,Net-(D54-A)*%
X113665000Y-154622500D03*
%TD*%
%TO.P,SW43,1,COL*%
%TO.N,COL9*%
X229552500Y-133032500D03*
%TO.P,SW43,2,ROW*%
%TO.N,Net-(D43-A)*%
X223202500Y-135572500D03*
%TD*%
%TO.P,SW44,1,COL*%
%TO.N,COL10*%
X248602500Y-133032500D03*
%TO.P,SW44,2,ROW*%
%TO.N,Net-(D44-A)*%
X242252500Y-135572500D03*
%TD*%
%TO.P,SW84,1,COL*%
%TO.N,COL13*%
X312896250Y-190182500D03*
%TO.P,SW84,2,ROW*%
%TO.N,Net-(D84-A)*%
X306546250Y-192722500D03*
%TD*%
%TO.P,SW56,1,COL*%
%TO.N,COL5*%
X158115000Y-152082500D03*
%TO.P,SW56,2,ROW*%
%TO.N,Net-(D56-A)*%
X151765000Y-154622500D03*
%TD*%
%TO.P,SW65,1,COL*%
%TO.N,COL2*%
X91440000Y-171132500D03*
%TO.P,SW65,2,ROW*%
%TO.N,Net-(D65-A)*%
X85090000Y-173672500D03*
%TD*%
%TO.P,SW60,1,COL*%
%TO.N,COL9*%
X234315000Y-152082500D03*
%TO.P,SW60,2,ROW*%
%TO.N,Net-(D60-A)*%
X227965000Y-154622500D03*
%TD*%
%TO.P,SW59,1,COL*%
%TO.N,COL8*%
X215265000Y-152082500D03*
%TO.P,SW59,2,ROW*%
%TO.N,Net-(D59-A)*%
X208915000Y-154622500D03*
%TD*%
%TO.P,SW80,1,COL*%
%TO.N,COL6*%
X170021250Y-190182500D03*
%TO.P,SW80,2,ROW*%
%TO.N,Net-(D80-A)*%
X163671250Y-192722500D03*
%TD*%
%TO.P,SW27,1,COL*%
%TO.N,COL10*%
X239077500Y-113982500D03*
%TO.P,SW27,2,ROW*%
%TO.N,Net-(D27-A)*%
X232727500Y-116522500D03*
%TD*%
%TO.P,SW40,1,COL*%
%TO.N,COL6*%
X172402500Y-133032500D03*
%TO.P,SW40,2,ROW*%
%TO.N,Net-(D40-A)*%
X166052500Y-135572500D03*
%TD*%
%TO.P,SW25,1,COL*%
%TO.N,COL8*%
X200977500Y-113982500D03*
%TO.P,SW25,2,ROW*%
%TO.N,Net-(D25-A)*%
X194627500Y-116522500D03*
%TD*%
%TO.P,SW21,1,COL*%
%TO.N,COL4*%
X124777500Y-113982500D03*
%TO.P,SW21,2,ROW*%
%TO.N,Net-(D21-A)*%
X118427500Y-116522500D03*
%TD*%
%TO.P,SW7,1,COL*%
%TO.N,COL7*%
X188277500Y-92551250D03*
%TO.P,SW7,2,ROW*%
%TO.N,Net-(D7-A)*%
X181927500Y-95091250D03*
%TD*%
%TO.P,SW46,1,COL*%
%TO.N,COL12*%
X286702500Y-133032500D03*
%TO.P,SW46,2,ROW*%
%TO.N,Net-(D46-A)*%
X280352500Y-135572500D03*
%TD*%
%TO.P,SW63,1,COL*%
%TO.N,COL13*%
X303371250Y-152082500D03*
%TO.P,SW63,2,ROW*%
%TO.N,Net-(D63-A)*%
X297021250Y-154622500D03*
%TD*%
%TO.P,SW49,1,COL*%
%TO.N,COL15*%
X358140000Y-133032500D03*
%TO.P,SW49,2,ROW*%
%TO.N,Net-(D49-A)*%
X351790000Y-135572500D03*
%TD*%
%TO.P,SW6,1,COL*%
%TO.N,COL6*%
X169227500Y-92551250D03*
%TO.P,SW6,2,ROW*%
%TO.N,Net-(D6-A)*%
X162877500Y-95091250D03*
%TD*%
%TO.P,SW30,1,COL*%
%TO.N,COL13*%
X305752500Y-113982500D03*
%TO.P,SW30,2,ROW*%
%TO.N,Net-(D30-A)*%
X299402500Y-116522500D03*
%TD*%
%TO.P,SW50,1,COL*%
%TO.N,COL16*%
X377190000Y-133032500D03*
%TO.P,SW50,2,ROW*%
%TO.N,Net-(D50-A)*%
X370840000Y-135572500D03*
%TD*%
%TO.P,SW45,1,COL*%
%TO.N,COL11*%
X267652500Y-133032500D03*
%TO.P,SW45,2,ROW*%
%TO.N,Net-(D45-A)*%
X261302500Y-135572500D03*
%TD*%
%TO.P,SW20,1,COL*%
%TO.N,COL3*%
X105727500Y-113982500D03*
%TO.P,SW20,2,ROW*%
%TO.N,Net-(D20-A)*%
X99377500Y-116522500D03*
%TD*%
%TO.P,SW61,1,COL*%
%TO.N,COL10*%
X253365000Y-152082500D03*
%TO.P,SW61,2,ROW*%
%TO.N,Net-(D61-A)*%
X247015000Y-154622500D03*
%TD*%
%TO.P,SW75,1,COL*%
%TO.N,COL13*%
X298608750Y-171132500D03*
%TO.P,SW75,2,ROW*%
%TO.N,Net-(D75-A)*%
X292258750Y-173672500D03*
%TD*%
%TO.P,SW42,1,COL*%
%TO.N,COL8*%
X210502500Y-133032500D03*
%TO.P,SW42,2,ROW*%
%TO.N,Net-(D42-A)*%
X204152500Y-135572500D03*
%TD*%
%TO.P,SW62,1,COL*%
%TO.N,COL11*%
X272415000Y-152082500D03*
%TO.P,SW62,2,ROW*%
%TO.N,Net-(D62-A)*%
X266065000Y-154622500D03*
%TD*%
%TO.P,SW17,1,COL*%
%TO.N,COL0*%
X48577500Y-113982500D03*
%TO.P,SW17,2,ROW*%
%TO.N,Net-(D17-A)*%
X42227500Y-116522500D03*
%TD*%
%TO.P,SW47,1,COL*%
%TO.N,COL13*%
X310515000Y-133032500D03*
%TO.P,SW47,2,ROW*%
%TO.N,Net-(D47-A)*%
X304165000Y-135572500D03*
%TD*%
%TO.P,SW1,1,COL*%
%TO.N,COL0*%
X48577500Y-92551250D03*
%TO.P,SW1,2,ROW*%
%TO.N,Net-(D1-A)*%
X42227500Y-95091250D03*
%TD*%
%TO.P,SW37,1,COL*%
%TO.N,COL3*%
X115252500Y-133032500D03*
%TO.P,SW37,2,ROW*%
%TO.N,Net-(D37-A)*%
X108902500Y-135572500D03*
%TD*%
%TO.P,SW24,1,COL*%
%TO.N,COL7*%
X181927500Y-113982500D03*
%TO.P,SW24,2,ROW*%
%TO.N,Net-(D24-A)*%
X175577500Y-116522500D03*
%TD*%
%TO.P,SW32,1,COL*%
%TO.N,COL15*%
X358140000Y-113982500D03*
%TO.P,SW32,2,ROW*%
%TO.N,Net-(D32-A)*%
X351790000Y-116522500D03*
%TD*%
%TO.P,SW2,1,COL*%
%TO.N,COL2*%
X80327500Y-92551250D03*
%TO.P,SW2,2,ROW*%
%TO.N,Net-(D2-A)*%
X73977500Y-95091250D03*
%TD*%
%TO.P,SW76,1,COL*%
%TO.N,COL15*%
X358140000Y-171132500D03*
%TO.P,SW76,2,ROW*%
%TO.N,Net-(D76-A)*%
X351790000Y-173672500D03*
%TD*%
%TO.P,SW69,1,COL*%
%TO.N,COL6*%
X167640000Y-171132500D03*
%TO.P,SW69,2,ROW*%
%TO.N,Net-(D69-A)*%
X161290000Y-173672500D03*
%TD*%
%TO.P,SW39,1,COL*%
%TO.N,COL5*%
X153352500Y-133032500D03*
%TO.P,SW39,2,ROW*%
%TO.N,Net-(D39-A)*%
X147002500Y-135572500D03*
%TD*%
%TO.P,SW48,1,COL*%
%TO.N,COL14*%
X339090000Y-133032500D03*
%TO.P,SW48,2,ROW*%
%TO.N,Net-(D48-A)*%
X332740000Y-135572500D03*
%TD*%
%TO.P,SW57,1,COL*%
%TO.N,COL6*%
X177165000Y-152082500D03*
%TO.P,SW57,2,ROW*%
%TO.N,Net-(D57-A)*%
X170815000Y-154622500D03*
%TD*%
%TO.P,SW77,1,COL*%
%TO.N,COL0*%
X50958750Y-190182500D03*
%TO.P,SW77,2,ROW*%
%TO.N,Net-(D77-A)*%
X44608750Y-192722500D03*
%TD*%
%TO.P,SW38,1,COL*%
%TO.N,COL4*%
X134302500Y-133032500D03*
%TO.P,SW38,2,ROW*%
%TO.N,Net-(D38-A)*%
X127952500Y-135572500D03*
%TD*%
%TO.P,SW9,1,COL*%
%TO.N,COL9*%
X226377500Y-92551250D03*
%TO.P,SW9,2,ROW*%
%TO.N,Net-(D9-A)*%
X220027500Y-95091250D03*
%TD*%
%TO.P,SW23,1,COL*%
%TO.N,COL6*%
X162877500Y-113982500D03*
%TO.P,SW23,2,ROW*%
%TO.N,Net-(D23-A)*%
X156527500Y-116522500D03*
%TD*%
%TO.P,SW13,1,COL*%
%TO.N,COL13*%
X315277500Y-92551250D03*
%TO.P,SW13,2,ROW*%
%TO.N,Net-(D13-A)*%
X308927500Y-95091250D03*
%TD*%
%TO.P,SW53,1,COL*%
%TO.N,COL2*%
X100965000Y-152082500D03*
%TO.P,SW53,2,ROW*%
%TO.N,Net-(D53-A)*%
X94615000Y-154622500D03*
%TD*%
%TO.P,SW64,1,COL*%
%TO.N,COL0*%
X60483750Y-171132500D03*
%TO.P,SW64,2,ROW*%
%TO.N,Net-(D64-A)*%
X54133750Y-173672500D03*
%TD*%
%TO.P,SW85,1,COL*%
%TO.N,COL14*%
X339090000Y-190182500D03*
%TO.P,SW85,2,ROW*%
%TO.N,Net-(D85-A)*%
X332740000Y-192722500D03*
%TD*%
%TO.P,SW22,1,COL*%
%TO.N,COL5*%
X143827500Y-113982500D03*
%TO.P,SW22,2,ROW*%
%TO.N,Net-(D22-A)*%
X137477500Y-116522500D03*
%TD*%
%TO.P,SW66,1,COL*%
%TO.N,COL3*%
X110490000Y-171132500D03*
%TO.P,SW66,2,ROW*%
%TO.N,Net-(D66-A)*%
X104140000Y-173672500D03*
%TD*%
%TO.P,SW4,1,COL*%
%TO.N,COL4*%
X118427500Y-92551250D03*
%TO.P,SW4,2,ROW*%
%TO.N,Net-(D4-A)*%
X112077500Y-95091250D03*
%TD*%
%TO.P,SW74,1,COL*%
%TO.N,COL11*%
X262890000Y-171132500D03*
%TO.P,SW74,2,ROW*%
%TO.N,Net-(D74-A)*%
X256540000Y-173672500D03*
%TD*%
D11*
%TO.P,D61,1,K*%
%TO.N,ROW3*%
X252475000Y-161925000D03*
%TO.P,D61,2,A*%
%TO.N,Net-(D61-A)*%
X249175000Y-161925000D03*
%TD*%
%TO.P,D47,1,K*%
%TO.N,ROW2*%
X309625000Y-142875000D03*
%TO.P,D47,2,A*%
%TO.N,Net-(D47-A)*%
X306325000Y-142875000D03*
%TD*%
%TO.P,D34,1,K*%
%TO.N,ROW2*%
X52450000Y-142875000D03*
%TO.P,D34,2,A*%
%TO.N,Net-(D34-A)*%
X49150000Y-142875000D03*
%TD*%
%TO.P,D79,1,K*%
%TO.N,ROW5*%
X97693750Y-200025000D03*
%TO.P,D79,2,A*%
%TO.N,Net-(D79-A)*%
X94393750Y-200025000D03*
%TD*%
%TO.P,D81,1,K*%
%TO.N,ROW5*%
X240568750Y-200025000D03*
%TO.P,D81,2,A*%
%TO.N,Net-(D81-A)*%
X237268750Y-200025000D03*
%TD*%
%TO.P,D84,1,K*%
%TO.N,ROW5*%
X312006250Y-200025000D03*
%TO.P,D84,2,A*%
%TO.N,Net-(D84-A)*%
X308706250Y-200025000D03*
%TD*%
%TO.P,D80,1,K*%
%TO.N,ROW5*%
X169131250Y-200025000D03*
%TO.P,D80,2,A*%
%TO.N,Net-(D80-A)*%
X165831250Y-200025000D03*
%TD*%
%TO.P,D48,1,K*%
%TO.N,ROW2*%
X338200000Y-142875000D03*
%TO.P,D48,2,A*%
%TO.N,Net-(D48-A)*%
X334900000Y-142875000D03*
%TD*%
%TO.P,D24,1,K*%
%TO.N,ROW1*%
X181037500Y-123825000D03*
%TO.P,D24,2,A*%
%TO.N,Net-(D24-A)*%
X177737500Y-123825000D03*
%TD*%
D12*
%TO.P,C2,1*%
%TO.N,+5V*%
X197037500Y-185500000D03*
%TO.P,C2,2*%
%TO.N,GND*%
X194962500Y-185500000D03*
%TD*%
D11*
%TO.P,D53,1,K*%
%TO.N,ROW3*%
X100075000Y-161925000D03*
%TO.P,D53,2,A*%
%TO.N,Net-(D53-A)*%
X96775000Y-161925000D03*
%TD*%
%TO.P,D31,1,K*%
%TO.N,ROW1*%
X338200000Y-123825000D03*
%TO.P,D31,2,A*%
%TO.N,Net-(D31-A)*%
X334900000Y-123825000D03*
%TD*%
%TO.P,D15,1,K*%
%TO.N,ROW0*%
X357250000Y-102393750D03*
%TO.P,D15,2,A*%
%TO.N,Net-(D15-A)*%
X353950000Y-102393750D03*
%TD*%
%TO.P,D63,1,K*%
%TO.N,ROW3*%
X302481250Y-161925000D03*
%TO.P,D63,2,A*%
%TO.N,Net-(D63-A)*%
X299181250Y-161925000D03*
%TD*%
D13*
%TO.P,C5,1*%
%TO.N,+5V*%
X210000000Y-200037500D03*
%TO.P,C5,2*%
%TO.N,GND*%
X210000000Y-197962500D03*
%TD*%
D11*
%TO.P,D64,1,K*%
%TO.N,ROW4*%
X59593750Y-180975000D03*
%TO.P,D64,2,A*%
%TO.N,Net-(D64-A)*%
X56293750Y-180975000D03*
%TD*%
%TO.P,D12,1,K*%
%TO.N,ROW0*%
X295337500Y-102393750D03*
%TO.P,D12,2,A*%
%TO.N,Net-(D12-A)*%
X292037500Y-102393750D03*
%TD*%
%TO.P,D8,1,K*%
%TO.N,ROW0*%
X206437500Y-102393750D03*
%TO.P,D8,2,A*%
%TO.N,Net-(D8-A)*%
X203137500Y-102393750D03*
%TD*%
%TO.P,D41,1,K*%
%TO.N,ROW2*%
X190562500Y-142875000D03*
%TO.P,D41,2,A*%
%TO.N,Net-(D41-A)*%
X187262500Y-142875000D03*
%TD*%
%TO.P,D22,1,K*%
%TO.N,ROW1*%
X142937500Y-123825000D03*
%TO.P,D22,2,A*%
%TO.N,Net-(D22-A)*%
X139637500Y-123825000D03*
%TD*%
%TO.P,D3,1,K*%
%TO.N,ROW0*%
X98487500Y-102393750D03*
%TO.P,D3,2,A*%
%TO.N,Net-(D3-A)*%
X95187500Y-102393750D03*
%TD*%
%TO.P,D35,1,K*%
%TO.N,ROW2*%
X76262500Y-142875000D03*
%TO.P,D35,2,A*%
%TO.N,Net-(D35-A)*%
X72962500Y-142875000D03*
%TD*%
%TO.P,D21,1,K*%
%TO.N,ROW1*%
X123887500Y-123825000D03*
%TO.P,D21,2,A*%
%TO.N,Net-(D21-A)*%
X120587500Y-123825000D03*
%TD*%
%TO.P,D2,1,K*%
%TO.N,ROW0*%
X79437500Y-102393750D03*
%TO.P,D2,2,A*%
%TO.N,Net-(D2-A)*%
X76137500Y-102393750D03*
%TD*%
%TO.P,D67,1,K*%
%TO.N,ROW4*%
X128650000Y-180975000D03*
%TO.P,D67,2,A*%
%TO.N,Net-(D67-A)*%
X125350000Y-180975000D03*
%TD*%
%TO.P,D14,1,K*%
%TO.N,ROW0*%
X338200000Y-102393750D03*
%TO.P,D14,2,A*%
%TO.N,Net-(D14-A)*%
X334900000Y-102393750D03*
%TD*%
%TO.P,D40,1,K*%
%TO.N,ROW2*%
X171512500Y-142875000D03*
%TO.P,D40,2,A*%
%TO.N,Net-(D40-A)*%
X168212500Y-142875000D03*
%TD*%
D14*
%TO.P,Y1,1,1*%
%TO.N,Net-(U1-XTAL1)*%
X189650000Y-191550000D03*
%TO.P,Y1,2,2*%
%TO.N,GND*%
X189650000Y-194450000D03*
%TO.P,Y1,3,3*%
%TO.N,Net-(U1-XTAL2)*%
X187350000Y-194450000D03*
%TO.P,Y1,4,4*%
%TO.N,GND*%
X187350000Y-191550000D03*
%TD*%
D13*
%TO.P,C4,1*%
%TO.N,+5V*%
X192000000Y-200537500D03*
%TO.P,C4,2*%
%TO.N,GND*%
X192000000Y-198462500D03*
%TD*%
D11*
%TO.P,D72,1,K*%
%TO.N,ROW4*%
X223900000Y-180975000D03*
%TO.P,D72,2,A*%
%TO.N,Net-(D72-A)*%
X220600000Y-180975000D03*
%TD*%
%TO.P,D9,1,K*%
%TO.N,ROW0*%
X225487500Y-102393750D03*
%TO.P,D9,2,A*%
%TO.N,Net-(D9-A)*%
X222187500Y-102393750D03*
%TD*%
%TO.P,D42,1,K*%
%TO.N,ROW2*%
X209612500Y-142875000D03*
%TO.P,D42,2,A*%
%TO.N,Net-(D42-A)*%
X206312500Y-142875000D03*
%TD*%
%TO.P,D25,1,K*%
%TO.N,ROW1*%
X200087500Y-123825000D03*
%TO.P,D25,2,A*%
%TO.N,Net-(D25-A)*%
X196787500Y-123825000D03*
%TD*%
D15*
%TO.P,R1,1*%
%TO.N,Net-(U1-~{HWB}{slash}PE2)*%
X205500000Y-186000000D03*
%TO.P,R1,2*%
%TO.N,GND*%
X207500000Y-186000000D03*
%TD*%
D11*
%TO.P,D45,1,K*%
%TO.N,ROW2*%
X266762500Y-142875000D03*
%TO.P,D45,2,A*%
%TO.N,Net-(D45-A)*%
X263462500Y-142875000D03*
%TD*%
%TO.P,D78,1,K*%
%TO.N,ROW5*%
X73881250Y-200025000D03*
%TO.P,D78,2,A*%
%TO.N,Net-(D78-A)*%
X70581250Y-200025000D03*
%TD*%
D16*
%TO.P,U1,1,PE6*%
%TO.N,unconnected-(U1-PE6-Pad1)*%
X205000000Y-199700000D03*
%TO.P,U1,2,UVCC*%
%TO.N,+5V*%
X204200000Y-199700000D03*
%TO.P,U1,3,D-*%
%TO.N,Net-(U1-D-)*%
X203400000Y-199700000D03*
%TO.P,U1,4,D+*%
%TO.N,Net-(U1-D+)*%
X202600000Y-199700000D03*
%TO.P,U1,5,UGND*%
%TO.N,GND*%
X201800000Y-199700000D03*
%TO.P,U1,6,UCAP*%
%TO.N,Net-(U1-UCAP)*%
X201000000Y-199700000D03*
%TO.P,U1,7,VBUS*%
%TO.N,+5V*%
X200200000Y-199700000D03*
%TO.P,U1,8,PB0*%
%TO.N,COL0*%
X199400000Y-199700000D03*
%TO.P,U1,9,PB1*%
%TO.N,COL1*%
X198600000Y-199700000D03*
%TO.P,U1,10,PB2*%
%TO.N,COL2*%
X197800000Y-199700000D03*
%TO.P,U1,11,PB3*%
%TO.N,COL3*%
X197000000Y-199700000D03*
D17*
%TO.P,U1,12,PB7*%
%TO.N,unconnected-(U1-PB7-Pad12)*%
X195300000Y-198000000D03*
%TO.P,U1,13,~{RESET}*%
%TO.N,Net-(U1-~{RESET})*%
X195300000Y-197200000D03*
%TO.P,U1,14,VCC*%
%TO.N,+5V*%
X195300000Y-196400000D03*
%TO.P,U1,15,GND*%
%TO.N,GND*%
X195300000Y-195600000D03*
%TO.P,U1,16,XTAL2*%
%TO.N,Net-(U1-XTAL2)*%
X195300000Y-194800000D03*
%TO.P,U1,17,XTAL1*%
%TO.N,Net-(U1-XTAL1)*%
X195300000Y-194000000D03*
%TO.P,U1,18,PD0*%
%TO.N,COL4*%
X195300000Y-193200000D03*
%TO.P,U1,19,PD1*%
%TO.N,COL5*%
X195300000Y-192400000D03*
%TO.P,U1,20,PD2*%
%TO.N,COL6*%
X195300000Y-191600000D03*
%TO.P,U1,21,PD3*%
%TO.N,COL7*%
X195300000Y-190800000D03*
%TO.P,U1,22,PD5*%
%TO.N,ROW4*%
X195300000Y-190000000D03*
D16*
%TO.P,U1,23,GND*%
%TO.N,GND*%
X197000000Y-188300000D03*
%TO.P,U1,24,AVCC*%
%TO.N,+5V*%
X197800000Y-188300000D03*
%TO.P,U1,25,PD4*%
%TO.N,ROW3*%
X198600000Y-188300000D03*
%TO.P,U1,26,PD6*%
%TO.N,ROW2*%
X199400000Y-188300000D03*
%TO.P,U1,27,PD7*%
%TO.N,ROW1*%
X200200000Y-188300000D03*
%TO.P,U1,28,PB4*%
%TO.N,ROW0*%
X201000000Y-188300000D03*
%TO.P,U1,29,PB5*%
%TO.N,COL8*%
X201800000Y-188300000D03*
%TO.P,U1,30,PB6*%
%TO.N,COL9*%
X202600000Y-188300000D03*
%TO.P,U1,31,PC6*%
%TO.N,COL10*%
X203400000Y-188300000D03*
%TO.P,U1,32,PC7*%
%TO.N,COL11*%
X204200000Y-188300000D03*
%TO.P,U1,33,~{HWB}/PE2*%
%TO.N,Net-(U1-~{HWB}{slash}PE2)*%
X205000000Y-188300000D03*
D17*
%TO.P,U1,34,VCC*%
%TO.N,+5V*%
X206700000Y-190000000D03*
%TO.P,U1,35,GND*%
%TO.N,GND*%
X206700000Y-190800000D03*
%TO.P,U1,36,PF7*%
%TO.N,COL12*%
X206700000Y-191600000D03*
%TO.P,U1,37,PF6*%
%TO.N,COL13*%
X206700000Y-192400000D03*
%TO.P,U1,38,PF5*%
%TO.N,COL14*%
X206700000Y-193200000D03*
%TO.P,U1,39,PF4*%
%TO.N,COL15*%
X206700000Y-194000000D03*
%TO.P,U1,40,PF1*%
%TO.N,COL16*%
X206700000Y-194800000D03*
%TO.P,U1,41,PF0*%
%TO.N,ROW5*%
X206700000Y-195600000D03*
%TO.P,U1,42,AREF*%
%TO.N,unconnected-(U1-AREF-Pad42)*%
X206700000Y-196400000D03*
%TO.P,U1,43,GND*%
%TO.N,GND*%
X206700000Y-197200000D03*
%TO.P,U1,44,AVCC*%
%TO.N,+5V*%
X206700000Y-198000000D03*
%TD*%
D11*
%TO.P,D39,1,K*%
%TO.N,ROW2*%
X152462500Y-142875000D03*
%TO.P,D39,2,A*%
%TO.N,Net-(D39-A)*%
X149162500Y-142875000D03*
%TD*%
%TO.P,D46,1,K*%
%TO.N,ROW2*%
X285812500Y-142875000D03*
%TO.P,D46,2,A*%
%TO.N,Net-(D46-A)*%
X282512500Y-142875000D03*
%TD*%
%TO.P,D62,1,K*%
%TO.N,ROW3*%
X271525000Y-161925000D03*
%TO.P,D62,2,A*%
%TO.N,Net-(D62-A)*%
X268225000Y-161925000D03*
%TD*%
D18*
%TO.P,C3,1*%
%TO.N,+5V*%
X210000000Y-187962500D03*
%TO.P,C3,2*%
%TO.N,GND*%
X210000000Y-190037500D03*
%TD*%
D11*
%TO.P,D71,1,K*%
%TO.N,ROW4*%
X204850000Y-180975000D03*
%TO.P,D71,2,A*%
%TO.N,Net-(D71-A)*%
X201550000Y-180975000D03*
%TD*%
%TO.P,D27,1,K*%
%TO.N,ROW1*%
X238187500Y-123825000D03*
%TO.P,D27,2,A*%
%TO.N,Net-(D27-A)*%
X234887500Y-123825000D03*
%TD*%
%TO.P,D36,1,K*%
%TO.N,ROW2*%
X95312500Y-142875000D03*
%TO.P,D36,2,A*%
%TO.N,Net-(D36-A)*%
X92012500Y-142875000D03*
%TD*%
%TO.P,D29,1,K*%
%TO.N,ROW1*%
X276287500Y-123825000D03*
%TO.P,D29,2,A*%
%TO.N,Net-(D29-A)*%
X272987500Y-123825000D03*
%TD*%
%TO.P,D50,1,K*%
%TO.N,ROW2*%
X376300000Y-142875000D03*
%TO.P,D50,2,A*%
%TO.N,Net-(D50-A)*%
X373000000Y-142875000D03*
%TD*%
%TO.P,D73,1,K*%
%TO.N,ROW4*%
X242950000Y-180975000D03*
%TO.P,D73,2,A*%
%TO.N,Net-(D73-A)*%
X239650000Y-180975000D03*
%TD*%
%TO.P,D5,1,K*%
%TO.N,ROW0*%
X136587500Y-102393750D03*
%TO.P,D5,2,A*%
%TO.N,Net-(D5-A)*%
X133287500Y-102393750D03*
%TD*%
%TO.P,D56,1,K*%
%TO.N,ROW3*%
X157225000Y-161925000D03*
%TO.P,D56,2,A*%
%TO.N,Net-(D56-A)*%
X153925000Y-161925000D03*
%TD*%
%TO.P,D44,1,K*%
%TO.N,ROW2*%
X247712500Y-142875000D03*
%TO.P,D44,2,A*%
%TO.N,Net-(D44-A)*%
X244412500Y-142875000D03*
%TD*%
%TO.P,D74,1,K*%
%TO.N,ROW4*%
X262000000Y-180975000D03*
%TO.P,D74,2,A*%
%TO.N,Net-(D74-A)*%
X258700000Y-180975000D03*
%TD*%
D19*
%TO.P,USB1,1,GND*%
%TO.N,GND*%
X241312500Y-94193750D03*
%TO.P,USB1,2,ID*%
%TO.N,unconnected-(USB1-ID-Pad2)*%
X240512500Y-94193750D03*
%TO.P,USB1,3,D+*%
%TO.N,D+*%
X239712500Y-94193750D03*
%TO.P,USB1,4,D-*%
%TO.N,D-*%
X238912500Y-94193750D03*
%TO.P,USB1,5,VBUS*%
%TO.N,VCC*%
X238112500Y-94193750D03*
D20*
%TO.P,USB1,6,SHIELD*%
%TO.N,unconnected-(USB1-SHIELD-Pad6)_1*%
X243362500Y-89693750D03*
%TO.N,unconnected-(USB1-SHIELD-Pad6)_2*%
X236062500Y-89693750D03*
%TO.N,unconnected-(USB1-SHIELD-Pad6)*%
X243362500Y-94193750D03*
%TO.N,unconnected-(USB1-SHIELD-Pad6)_3*%
X236062500Y-94193750D03*
%TD*%
D11*
%TO.P,D7,1,K*%
%TO.N,ROW0*%
X187387500Y-102393750D03*
%TO.P,D7,2,A*%
%TO.N,Net-(D7-A)*%
X184087500Y-102393750D03*
%TD*%
%TO.P,D38,1,K*%
%TO.N,ROW2*%
X133412500Y-142875000D03*
%TO.P,D38,2,A*%
%TO.N,Net-(D38-A)*%
X130112500Y-142875000D03*
%TD*%
%TO.P,D30,1,K*%
%TO.N,ROW1*%
X304862500Y-123825000D03*
%TO.P,D30,2,A*%
%TO.N,Net-(D30-A)*%
X301562500Y-123825000D03*
%TD*%
D21*
%TO.P,C6,1*%
%TO.N,GND*%
X187462500Y-188500000D03*
%TO.P,C6,2*%
%TO.N,Net-(U1-XTAL1)*%
X189537500Y-188500000D03*
%TD*%
D11*
%TO.P,D68,1,K*%
%TO.N,ROW4*%
X147700000Y-180975000D03*
%TO.P,D68,2,A*%
%TO.N,Net-(D68-A)*%
X144400000Y-180975000D03*
%TD*%
%TO.P,D28,1,K*%
%TO.N,ROW1*%
X257237500Y-123825000D03*
%TO.P,D28,2,A*%
%TO.N,Net-(D28-A)*%
X253937500Y-123825000D03*
%TD*%
D22*
%TO.P,R2,1*%
%TO.N,D+*%
X242137500Y-100287500D03*
%TO.P,R2,2*%
%TO.N,Net-(U1-D+)*%
X242137500Y-102287500D03*
%TD*%
D11*
%TO.P,D86,1,K*%
%TO.N,ROW5*%
X357250000Y-200025000D03*
%TO.P,D86,2,A*%
%TO.N,Net-(D86-A)*%
X353950000Y-200025000D03*
%TD*%
%TO.P,D70,1,K*%
%TO.N,ROW4*%
X185800000Y-180975000D03*
%TO.P,D70,2,A*%
%TO.N,Net-(D70-A)*%
X182500000Y-180975000D03*
%TD*%
%TO.P,D76,1,K*%
%TO.N,ROW4*%
X357250000Y-180975000D03*
%TO.P,D76,2,A*%
%TO.N,Net-(D76-A)*%
X353950000Y-180975000D03*
%TD*%
%TO.P,D49,1,K*%
%TO.N,ROW2*%
X357250000Y-142875000D03*
%TO.P,D49,2,A*%
%TO.N,Net-(D49-A)*%
X353950000Y-142875000D03*
%TD*%
%TO.P,D18,1,K*%
%TO.N,ROW1*%
X66737500Y-123825000D03*
%TO.P,D18,2,A*%
%TO.N,Net-(D18-A)*%
X63437500Y-123825000D03*
%TD*%
%TO.P,D26,1,K*%
%TO.N,ROW1*%
X219137500Y-123825000D03*
%TO.P,D26,2,A*%
%TO.N,Net-(D26-A)*%
X215837500Y-123825000D03*
%TD*%
D22*
%TO.P,R3,1*%
%TO.N,D-*%
X239137500Y-100287500D03*
%TO.P,R3,2*%
%TO.N,Net-(U1-D-)*%
X239137500Y-102287500D03*
%TD*%
D11*
%TO.P,D55,1,K*%
%TO.N,ROW3*%
X138175000Y-161925000D03*
%TO.P,D55,2,A*%
%TO.N,Net-(D55-A)*%
X134875000Y-161925000D03*
%TD*%
%TO.P,D1,1,K*%
%TO.N,ROW0*%
X47687500Y-102393750D03*
%TO.P,D1,2,A*%
%TO.N,Net-(D1-A)*%
X44387500Y-102393750D03*
%TD*%
%TO.P,D6,1,K*%
%TO.N,ROW0*%
X168337500Y-102393750D03*
%TO.P,D6,2,A*%
%TO.N,Net-(D6-A)*%
X165037500Y-102393750D03*
%TD*%
%TO.P,D11,1,K*%
%TO.N,ROW0*%
X276287500Y-102393750D03*
%TO.P,D11,2,A*%
%TO.N,Net-(D11-A)*%
X272987500Y-102393750D03*
%TD*%
D23*
%TO.P,SW88,1,1*%
%TO.N,GND*%
X183350000Y-196600000D03*
X183350000Y-190400000D03*
%TO.P,SW88,2,2*%
%TO.N,Net-(U1-~{RESET})*%
X179650000Y-196600000D03*
X179650000Y-190400000D03*
%TD*%
D21*
%TO.P,C1,1*%
%TO.N,Net-(U1-UCAP)*%
X200462500Y-202500000D03*
%TO.P,C1,2*%
%TO.N,GND*%
X202537500Y-202500000D03*
%TD*%
D11*
%TO.P,D20,1,K*%
%TO.N,ROW1*%
X104837500Y-123825000D03*
%TO.P,D20,2,A*%
%TO.N,Net-(D20-A)*%
X101537500Y-123825000D03*
%TD*%
%TO.P,D69,1,K*%
%TO.N,ROW4*%
X166750000Y-180975000D03*
%TO.P,D69,2,A*%
%TO.N,Net-(D69-A)*%
X163450000Y-180975000D03*
%TD*%
%TO.P,D82,1,K*%
%TO.N,ROW5*%
X264381250Y-200025000D03*
%TO.P,D82,2,A*%
%TO.N,Net-(D82-A)*%
X261081250Y-200025000D03*
%TD*%
%TO.P,D51,1,K*%
%TO.N,ROW3*%
X54831250Y-161925000D03*
%TO.P,D51,2,A*%
%TO.N,Net-(D51-A)*%
X51531250Y-161925000D03*
%TD*%
%TO.P,D43,1,K*%
%TO.N,ROW2*%
X228662500Y-142875000D03*
%TO.P,D43,2,A*%
%TO.N,Net-(D43-A)*%
X225362500Y-142875000D03*
%TD*%
%TO.P,D87,1,K*%
%TO.N,ROW5*%
X376300000Y-200025000D03*
%TO.P,D87,2,A*%
%TO.N,Net-(D87-A)*%
X373000000Y-200025000D03*
%TD*%
%TO.P,D77,1,K*%
%TO.N,ROW5*%
X50068750Y-200025000D03*
%TO.P,D77,2,A*%
%TO.N,Net-(D77-A)*%
X46768750Y-200025000D03*
%TD*%
%TO.P,D33,1,K*%
%TO.N,ROW1*%
X376300000Y-123825000D03*
%TO.P,D33,2,A*%
%TO.N,Net-(D33-A)*%
X373000000Y-123825000D03*
%TD*%
%TO.P,D75,1,K*%
%TO.N,ROW4*%
X297718750Y-180975000D03*
%TO.P,D75,2,A*%
%TO.N,Net-(D75-A)*%
X294418750Y-180975000D03*
%TD*%
%TO.P,D32,1,K*%
%TO.N,ROW1*%
X357250000Y-123825000D03*
%TO.P,D32,2,A*%
%TO.N,Net-(D32-A)*%
X353950000Y-123825000D03*
%TD*%
%TO.P,D23,1,K*%
%TO.N,ROW1*%
X161987500Y-123825000D03*
%TO.P,D23,2,A*%
%TO.N,Net-(D23-A)*%
X158687500Y-123825000D03*
%TD*%
%TO.P,D16,1,K*%
%TO.N,ROW0*%
X376300000Y-102393750D03*
%TO.P,D16,2,A*%
%TO.N,Net-(D16-A)*%
X373000000Y-102393750D03*
%TD*%
%TO.P,D57,1,K*%
%TO.N,ROW3*%
X176275000Y-161925000D03*
%TO.P,D57,2,A*%
%TO.N,Net-(D57-A)*%
X172975000Y-161925000D03*
%TD*%
D24*
%TO.P,R4,1*%
%TO.N,+5V*%
X189500000Y-200500000D03*
%TO.P,R4,2*%
%TO.N,Net-(U1-~{RESET})*%
X187500000Y-200500000D03*
%TD*%
D11*
%TO.P,D17,1,K*%
%TO.N,ROW1*%
X47687500Y-123825000D03*
%TO.P,D17,2,A*%
%TO.N,Net-(D17-A)*%
X44387500Y-123825000D03*
%TD*%
%TO.P,D4,1,K*%
%TO.N,ROW0*%
X117537500Y-102393750D03*
%TO.P,D4,2,A*%
%TO.N,Net-(D4-A)*%
X114237500Y-102393750D03*
%TD*%
D25*
%TO.P,F1,1*%
%TO.N,+5V*%
X236137500Y-102775000D03*
%TO.P,F1,2*%
%TO.N,VCC*%
X236137500Y-99800000D03*
%TD*%
D11*
%TO.P,D58,1,K*%
%TO.N,ROW3*%
X195325000Y-161925000D03*
%TO.P,D58,2,A*%
%TO.N,Net-(D58-A)*%
X192025000Y-161925000D03*
%TD*%
%TO.P,D10,1,K*%
%TO.N,ROW0*%
X257237500Y-102393750D03*
%TO.P,D10,2,A*%
%TO.N,Net-(D10-A)*%
X253937500Y-102393750D03*
%TD*%
%TO.P,D19,1,K*%
%TO.N,ROW1*%
X85787500Y-123825000D03*
%TO.P,D19,2,A*%
%TO.N,Net-(D19-A)*%
X82487500Y-123825000D03*
%TD*%
%TO.P,D59,1,K*%
%TO.N,ROW3*%
X214375000Y-161925000D03*
%TO.P,D59,2,A*%
%TO.N,Net-(D59-A)*%
X211075000Y-161925000D03*
%TD*%
%TO.P,D65,1,K*%
%TO.N,ROW4*%
X90550000Y-180975000D03*
%TO.P,D65,2,A*%
%TO.N,Net-(D65-A)*%
X87250000Y-180975000D03*
%TD*%
%TO.P,D37,1,K*%
%TO.N,ROW2*%
X114362500Y-142875000D03*
%TO.P,D37,2,A*%
%TO.N,Net-(D37-A)*%
X111062500Y-142875000D03*
%TD*%
%TO.P,D54,1,K*%
%TO.N,ROW3*%
X119125000Y-161925000D03*
%TO.P,D54,2,A*%
%TO.N,Net-(D54-A)*%
X115825000Y-161925000D03*
%TD*%
D12*
%TO.P,C7,1*%
%TO.N,GND*%
X189537500Y-197500000D03*
%TO.P,C7,2*%
%TO.N,Net-(U1-XTAL2)*%
X187462500Y-197500000D03*
%TD*%
D11*
%TO.P,D60,1,K*%
%TO.N,ROW3*%
X233425000Y-161925000D03*
%TO.P,D60,2,A*%
%TO.N,Net-(D60-A)*%
X230125000Y-161925000D03*
%TD*%
%TO.P,D83,1,K*%
%TO.N,ROW5*%
X288193750Y-200025000D03*
%TO.P,D83,2,A*%
%TO.N,Net-(D83-A)*%
X284893750Y-200025000D03*
%TD*%
%TO.P,D66,1,K*%
%TO.N,ROW4*%
X109600000Y-180975000D03*
%TO.P,D66,2,A*%
%TO.N,Net-(D66-A)*%
X106300000Y-180975000D03*
%TD*%
%TO.P,D13,1,K*%
%TO.N,ROW0*%
X314387500Y-102393750D03*
%TO.P,D13,2,A*%
%TO.N,Net-(D13-A)*%
X311087500Y-102393750D03*
%TD*%
%TO.P,D52,1,K*%
%TO.N,ROW3*%
X81025000Y-161925000D03*
%TO.P,D52,2,A*%
%TO.N,Net-(D52-A)*%
X77725000Y-161925000D03*
%TD*%
%TO.P,D85,1,K*%
%TO.N,ROW5*%
X338200000Y-200025000D03*
%TO.P,D85,2,A*%
%TO.N,Net-(D85-A)*%
X334900000Y-200025000D03*
%TD*%
D26*
%TO.N,GND*%
X212500000Y-190500000D03*
X234000000Y-184500000D03*
%TO.N,+5V*%
X198500000Y-185500000D03*
X229500000Y-184500000D03*
X210000000Y-201500000D03*
X210000000Y-186500000D03*
X192000000Y-202000000D03*
X199000000Y-202500000D03*
%TO.N,ROW0*%
X117475000Y-104775000D03*
X187325000Y-104775000D03*
X225425000Y-104775000D03*
X190000000Y-104775000D03*
X314325000Y-104775000D03*
X376237500Y-104775000D03*
X357187500Y-104775000D03*
X168275000Y-104775000D03*
X295275000Y-104775000D03*
X206375000Y-104775000D03*
X98425000Y-104775000D03*
X338137500Y-104775000D03*
X79375000Y-104775000D03*
X257175000Y-104775000D03*
X276225000Y-104775000D03*
X47625000Y-104775000D03*
X136525000Y-104775000D03*
%TO.N,ROW1*%
X85725000Y-126206250D03*
X142875000Y-126206250D03*
X123825000Y-126206250D03*
X104775000Y-126206250D03*
X47625000Y-126206250D03*
X338137500Y-126206250D03*
X376237500Y-126206250D03*
X180975000Y-126206250D03*
X188500000Y-126206250D03*
X276225000Y-126206250D03*
X66675000Y-126206250D03*
X357187500Y-126206250D03*
X257175000Y-126206250D03*
X161925000Y-126206250D03*
X304800000Y-126206250D03*
X238125000Y-126206250D03*
X200025000Y-126206250D03*
X219075000Y-126206250D03*
%TO.N,ROW2*%
X52387500Y-145256250D03*
X171450000Y-145256250D03*
X152400000Y-145256250D03*
X76200000Y-145256250D03*
X376237500Y-145256250D03*
X114300000Y-145256250D03*
X285750000Y-145256250D03*
X266700000Y-145256250D03*
X247650000Y-145256250D03*
X95250000Y-145256250D03*
X197500000Y-145256250D03*
X338137500Y-145256250D03*
X309562500Y-145256250D03*
X357187500Y-145256250D03*
X228600000Y-145256250D03*
X209550000Y-145256250D03*
X190500000Y-145256250D03*
X133350000Y-145256250D03*
%TO.N,ROW3*%
X119062500Y-164306250D03*
X54768750Y-164306250D03*
X252412500Y-164306250D03*
X271462500Y-164306250D03*
X80962500Y-164306250D03*
X233362500Y-164306250D03*
X214312500Y-164306250D03*
X100012500Y-164306250D03*
X138112500Y-164306250D03*
X176212500Y-164306250D03*
X197500000Y-164306250D03*
X302418750Y-164306250D03*
X157162500Y-164306250D03*
X195262500Y-164306250D03*
%TO.N,ROW4*%
X128587500Y-183356250D03*
X59531250Y-183356250D03*
X223837500Y-183356250D03*
X147637500Y-183356250D03*
X261937500Y-183356250D03*
X204787500Y-183356250D03*
X109537500Y-183356250D03*
X297656250Y-183356250D03*
X166687500Y-183356250D03*
X90487500Y-183356250D03*
X185737500Y-183356250D03*
X357187500Y-183356250D03*
X242887500Y-183356250D03*
X193000000Y-183356250D03*
%TO.N,ROW5*%
X211962500Y-203962500D03*
X288131250Y-202406250D03*
X357187500Y-202406250D03*
X311943750Y-202406250D03*
X240506250Y-202406250D03*
X264318750Y-202406250D03*
X50006250Y-202406250D03*
X97631250Y-202406250D03*
X338137500Y-202406250D03*
X376237500Y-202406250D03*
X169068750Y-202406250D03*
X73818750Y-202406250D03*
%TO.N,Net-(U1-D+)*%
X211000000Y-203000000D03*
X232500000Y-184500000D03*
%TO.N,Net-(U1-D-)*%
X231000000Y-184500000D03*
X211000000Y-202000000D03*
%TD*%
D27*
%TO.N,Net-(U1-UCAP)*%
X200462500Y-202500000D02*
X201000000Y-201962500D01*
X201000000Y-201962500D02*
X201000000Y-199700000D01*
D28*
%TO.N,GND*%
X244137500Y-98787500D02*
X241312500Y-95962500D01*
X198369000Y-195600000D02*
X200769000Y-193200000D01*
X243137500Y-163787500D02*
X243137500Y-150287500D01*
X194962500Y-185500000D02*
X194962500Y-186262500D01*
X235137500Y-111287500D02*
X244137500Y-102287500D01*
X211500000Y-186500000D02*
X210500000Y-185500000D01*
X244137500Y-102287500D02*
X244137500Y-98787500D01*
X211500000Y-189500000D02*
X211500000Y-186500000D01*
X189000000Y-199000000D02*
X189537500Y-198462500D01*
X209500000Y-186000000D02*
X207500000Y-186000000D01*
X189650000Y-194150000D02*
X189650000Y-194450000D01*
X183400000Y-190400000D02*
X183500000Y-190500000D01*
X187350000Y-191550000D02*
X187350000Y-188612500D01*
X187000000Y-188500000D02*
X185500000Y-190000000D01*
X203169000Y-193200000D02*
X205569000Y-190800000D01*
X234000000Y-184500000D02*
X233637500Y-184137500D01*
X203169000Y-197200000D02*
X206700000Y-197200000D01*
X189537500Y-197500000D02*
X190769000Y-197500000D01*
X201800000Y-198569000D02*
X203169000Y-197200000D01*
X241312500Y-95962500D02*
X241312500Y-94987500D01*
X183350000Y-196600000D02*
X185100000Y-196600000D01*
X183350000Y-190400000D02*
X183350000Y-196600000D01*
X212500000Y-190500000D02*
X211500000Y-189500000D01*
X189537500Y-198462500D02*
X189537500Y-197500000D01*
X209237500Y-197200000D02*
X206700000Y-197200000D01*
X183350000Y-190400000D02*
X183400000Y-190400000D01*
X185500000Y-198000000D02*
X186500000Y-199000000D01*
X209237500Y-190800000D02*
X206700000Y-190800000D01*
X185500000Y-190000000D02*
X185500000Y-197000000D01*
X202537500Y-202500000D02*
X201800000Y-201762500D01*
X201800000Y-201762500D02*
X201800000Y-199700000D01*
X200769000Y-193200000D02*
X197000000Y-189431000D01*
X192000000Y-197500000D02*
X191384500Y-196884500D01*
X203169000Y-197200000D02*
X203169000Y-193200000D01*
X233637500Y-173287500D02*
X243137500Y-163787500D01*
X187462500Y-188500000D02*
X187000000Y-188500000D01*
X189650000Y-194450000D02*
X190000000Y-194100000D01*
X197000000Y-189431000D02*
X197000000Y-188300000D01*
X238637500Y-145787500D02*
X238637500Y-131287500D01*
X185100000Y-196600000D02*
X185500000Y-197000000D01*
X205569000Y-190800000D02*
X206700000Y-190800000D01*
X192669000Y-195600000D02*
X191384500Y-196884500D01*
X201800000Y-199700000D02*
X201800000Y-198569000D01*
X228637500Y-112287500D02*
X229637500Y-111287500D01*
X203169000Y-193200000D02*
X200769000Y-193200000D01*
X210962500Y-190037500D02*
X211500000Y-189500000D01*
X185500000Y-197000000D02*
X185500000Y-198000000D01*
X210000000Y-197962500D02*
X209237500Y-197200000D01*
X192000000Y-198462500D02*
X192000000Y-197500000D01*
X243137500Y-150287500D02*
X238637500Y-145787500D01*
X210500000Y-185500000D02*
X210000000Y-185500000D01*
X186500000Y-199000000D02*
X189000000Y-199000000D01*
X229637500Y-111287500D02*
X235137500Y-111287500D01*
X194962500Y-186262500D02*
X197000000Y-188300000D01*
X210000000Y-190037500D02*
X210962500Y-190037500D01*
X187350000Y-188612500D02*
X187462500Y-188500000D01*
X187350000Y-191550000D02*
X187350000Y-191850000D01*
X190769000Y-197500000D02*
X191384500Y-196884500D01*
X228637500Y-121287500D02*
X228637500Y-112287500D01*
X210000000Y-190037500D02*
X209237500Y-190800000D01*
X210000000Y-185500000D02*
X209500000Y-186000000D01*
X187350000Y-191850000D02*
X189650000Y-194150000D01*
X238637500Y-131287500D02*
X228637500Y-121287500D01*
X195300000Y-195600000D02*
X192669000Y-195600000D01*
X233637500Y-184137500D02*
X233637500Y-173287500D01*
X195300000Y-195600000D02*
X198369000Y-195600000D01*
%TO.N,+5V*%
X192000000Y-200537500D02*
X192000000Y-202000000D01*
X235637500Y-145787500D02*
X240137500Y-150287500D01*
X208737500Y-200037500D02*
X206700000Y-198000000D01*
X191962500Y-200500000D02*
X192000000Y-200537500D01*
X240137500Y-150287500D02*
X240137500Y-163787500D01*
X210000000Y-200037500D02*
X210000000Y-201500000D01*
X189500000Y-200500000D02*
X191962500Y-200500000D01*
X204869000Y-201500000D02*
X204200000Y-200831000D01*
X193000000Y-199500000D02*
X193500000Y-199000000D01*
X225637500Y-121287500D02*
X235637500Y-131287500D01*
X230637500Y-183362500D02*
X229500000Y-184500000D01*
X193000000Y-199537500D02*
X193000000Y-199500000D01*
X199000000Y-202000000D02*
X199000000Y-202500000D01*
X193500000Y-199000000D02*
X193500000Y-197000000D01*
X240137500Y-163787500D02*
X230637500Y-173287500D01*
X193500000Y-197000000D02*
X194100000Y-196400000D01*
X204200000Y-200831000D02*
X204200000Y-199700000D01*
X194100000Y-196400000D02*
X195300000Y-196400000D01*
X210000000Y-187962500D02*
X208737500Y-187962500D01*
X229637500Y-108287500D02*
X225637500Y-112287500D01*
X197037500Y-185500000D02*
X198500000Y-185500000D01*
X236137500Y-102775000D02*
X236137500Y-107287500D01*
X235637500Y-131287500D02*
X235637500Y-145787500D01*
X210000000Y-200037500D02*
X208737500Y-200037500D01*
X235137500Y-108287500D02*
X229637500Y-108287500D01*
X197800000Y-186262500D02*
X197800000Y-188300000D01*
X192000000Y-200537500D02*
X193000000Y-199537500D01*
X197037500Y-185500000D02*
X197800000Y-186262500D01*
X210000000Y-201500000D02*
X204869000Y-201500000D01*
X236137500Y-107287500D02*
X235137500Y-108287500D01*
X208737500Y-187962500D02*
X206700000Y-190000000D01*
X200200000Y-200800000D02*
X199000000Y-202000000D01*
X230637500Y-183287500D02*
X230637500Y-183362500D01*
X200200000Y-199700000D02*
X200200000Y-200800000D01*
X225637500Y-112287500D02*
X225637500Y-121287500D01*
X230637500Y-173287500D02*
X230637500Y-183287500D01*
X210000000Y-187962500D02*
X210000000Y-186500000D01*
D27*
%TO.N,Net-(U1-XTAL1)*%
X192100000Y-194000000D02*
X195300000Y-194000000D01*
X189650000Y-188612500D02*
X189537500Y-188500000D01*
X189650000Y-191550000D02*
X192100000Y-194000000D01*
X189650000Y-191550000D02*
X189650000Y-188612500D01*
%TO.N,Net-(U1-XTAL2)*%
X191000000Y-196000000D02*
X192200000Y-194800000D01*
X187350000Y-194450000D02*
X187350000Y-197387500D01*
X187350000Y-194450000D02*
X187350000Y-195350000D01*
X192200000Y-194800000D02*
X195300000Y-194800000D01*
X187350000Y-197387500D02*
X187462500Y-197500000D01*
X188000000Y-196000000D02*
X191000000Y-196000000D01*
X187350000Y-195350000D02*
X188000000Y-196000000D01*
%TO.N,ROW0*%
X98487500Y-102393750D02*
X98487500Y-104712500D01*
X199000000Y-145500000D02*
X199000000Y-128934314D01*
X225487500Y-102393750D02*
X225487500Y-104712500D01*
X117537500Y-104712500D02*
X117475000Y-104775000D01*
X314387500Y-104712500D02*
X314325000Y-104775000D01*
X295337500Y-102393750D02*
X295337500Y-104712500D01*
X376300000Y-104712500D02*
X376237500Y-104775000D01*
X202631372Y-147000000D02*
X200500000Y-147000000D01*
X257237500Y-102393750D02*
X257237500Y-104712500D01*
X187387500Y-104712500D02*
X187325000Y-104775000D01*
X295337500Y-104712500D02*
X295275000Y-104775000D01*
X117537500Y-102393750D02*
X117537500Y-104712500D01*
X187387500Y-102393750D02*
X187387500Y-104712500D01*
X201000000Y-188300000D02*
X201000000Y-184000000D01*
X98487500Y-104712500D02*
X98425000Y-104775000D01*
X79437500Y-104712500D02*
X79375000Y-104775000D01*
X338200000Y-102393750D02*
X338200000Y-104712500D01*
X204000000Y-161800244D02*
X204000000Y-148368628D01*
X314387500Y-102393750D02*
X314387500Y-104712500D01*
X190000000Y-127434314D02*
X190000000Y-104775000D01*
X204000000Y-148368628D02*
X202631372Y-147000000D01*
X168337500Y-102393750D02*
X168337500Y-104712500D01*
X168337500Y-104712500D02*
X168275000Y-104775000D01*
X206437500Y-104712500D02*
X206375000Y-104775000D01*
X136587500Y-102393750D02*
X136587500Y-104712500D01*
X276287500Y-104712500D02*
X276225000Y-104775000D01*
X338200000Y-104712500D02*
X338137500Y-104775000D01*
X194500000Y-171300244D02*
X204000000Y-161800244D01*
X79437500Y-102393750D02*
X79437500Y-104712500D01*
X47687500Y-104712500D02*
X47625000Y-104775000D01*
X257237500Y-104712500D02*
X257175000Y-104775000D01*
X194500000Y-177500000D02*
X194500000Y-171300244D01*
X357250000Y-104712500D02*
X357187500Y-104775000D01*
X376300000Y-102393750D02*
X376300000Y-104712500D01*
X276287500Y-102393750D02*
X276287500Y-104712500D01*
X136587500Y-104712500D02*
X136525000Y-104775000D01*
X200500000Y-147000000D02*
X199000000Y-145500000D01*
X199000000Y-128934314D02*
X198065686Y-128000000D01*
X357250000Y-102393750D02*
X357250000Y-104712500D01*
X206437500Y-102393750D02*
X206437500Y-104712500D01*
X225487500Y-104712500D02*
X225425000Y-104775000D01*
X198065686Y-128000000D02*
X190565686Y-128000000D01*
X47687500Y-102393750D02*
X47687500Y-104712500D01*
X190565686Y-128000000D02*
X190000000Y-127434314D01*
X201000000Y-184000000D02*
X194500000Y-177500000D01*
%TO.N,Net-(D1-A)*%
X42862500Y-95726250D02*
X42227500Y-95091250D01*
X44387500Y-101537500D02*
X42862500Y-100012500D01*
X42862500Y-100012500D02*
X42862500Y-95726250D01*
X44387500Y-102393750D02*
X44387500Y-101537500D01*
%TO.N,Net-(D2-A)*%
X76137500Y-102393750D02*
X76137500Y-101537500D01*
X74612500Y-95726250D02*
X73977500Y-95091250D01*
X76137500Y-101537500D02*
X74612500Y-100012500D01*
X74612500Y-100012500D02*
X74612500Y-95726250D01*
%TO.N,Net-(D3-A)*%
X93662500Y-95726250D02*
X93027500Y-95091250D01*
X95187500Y-102393750D02*
X95187500Y-101537500D01*
X95187500Y-101537500D02*
X93662500Y-100012500D01*
X93662500Y-100012500D02*
X93662500Y-95726250D01*
%TO.N,Net-(D4-A)*%
X112712500Y-95726250D02*
X112077500Y-95091250D01*
X114237500Y-101537500D02*
X112712500Y-100012500D01*
X114237500Y-102393750D02*
X114237500Y-101537500D01*
X112712500Y-100012500D02*
X112712500Y-95726250D01*
%TO.N,Net-(D5-A)*%
X131762500Y-95726250D02*
X131127500Y-95091250D01*
X131762500Y-100012500D02*
X131762500Y-95726250D01*
X133287500Y-102393750D02*
X133287500Y-101537500D01*
X133287500Y-101537500D02*
X131762500Y-100012500D01*
%TO.N,Net-(D6-A)*%
X163512500Y-95726250D02*
X162877500Y-95091250D01*
X165037500Y-101537500D02*
X163512500Y-100012500D01*
X163512500Y-100012500D02*
X163512500Y-95726250D01*
X165037500Y-102393750D02*
X165037500Y-101537500D01*
%TO.N,Net-(D7-A)*%
X182562500Y-100012500D02*
X182562500Y-95726250D01*
X184087500Y-101537500D02*
X182562500Y-100012500D01*
X182562500Y-95726250D02*
X181927500Y-95091250D01*
X184087500Y-102393750D02*
X184087500Y-101537500D01*
%TO.N,Net-(D8-A)*%
X201612500Y-95726250D02*
X200977500Y-95091250D01*
X203137500Y-101537500D02*
X201612500Y-100012500D01*
X201612500Y-100012500D02*
X201612500Y-95726250D01*
X203137500Y-102393750D02*
X203137500Y-101537500D01*
%TO.N,Net-(D9-A)*%
X222187500Y-102393750D02*
X222187500Y-101537500D01*
X220662500Y-95726250D02*
X220027500Y-95091250D01*
X220662500Y-100012500D02*
X220662500Y-95726250D01*
X222187500Y-101537500D02*
X220662500Y-100012500D01*
%TO.N,Net-(D10-A)*%
X252412500Y-100012500D02*
X252412500Y-95726250D01*
X253937500Y-102393750D02*
X253937500Y-101537500D01*
X252412500Y-95726250D02*
X251777500Y-95091250D01*
X253937500Y-101537500D02*
X252412500Y-100012500D01*
%TO.N,Net-(D11-A)*%
X271462500Y-95726250D02*
X270827500Y-95091250D01*
X272987500Y-101537500D02*
X271462500Y-100012500D01*
X271462500Y-100012500D02*
X271462500Y-95726250D01*
X272987500Y-102393750D02*
X272987500Y-101537500D01*
%TO.N,Net-(D12-A)*%
X290512500Y-100012500D02*
X290512500Y-95726250D01*
X290512500Y-95726250D02*
X289877500Y-95091250D01*
X292037500Y-101537500D02*
X290512500Y-100012500D01*
X292037500Y-102393750D02*
X292037500Y-101537500D01*
%TO.N,Net-(D13-A)*%
X311087500Y-102393750D02*
X311087500Y-101537500D01*
X309562500Y-100012500D02*
X309562500Y-95726250D01*
X309562500Y-95726250D02*
X308927500Y-95091250D01*
X311087500Y-101537500D02*
X309562500Y-100012500D01*
%TO.N,Net-(D14-A)*%
X333375000Y-100012500D02*
X333375000Y-95726250D01*
X334900000Y-101537500D02*
X333375000Y-100012500D01*
X334900000Y-102393750D02*
X334900000Y-101537500D01*
X333375000Y-95726250D02*
X332740000Y-95091250D01*
%TO.N,Net-(D15-A)*%
X352425000Y-100012500D02*
X352425000Y-95726250D01*
X352425000Y-95726250D02*
X351790000Y-95091250D01*
X353950000Y-102393750D02*
X353950000Y-101537500D01*
X353950000Y-101537500D02*
X352425000Y-100012500D01*
%TO.N,Net-(D16-A)*%
X373000000Y-102393750D02*
X373000000Y-101537500D01*
X371475000Y-100012500D02*
X371475000Y-95726250D01*
X371475000Y-95726250D02*
X370840000Y-95091250D01*
X373000000Y-101537500D02*
X371475000Y-100012500D01*
%TO.N,Net-(D17-A)*%
X44387500Y-123825000D02*
X44387500Y-122968750D01*
X42862500Y-121443750D02*
X42862500Y-117157500D01*
X42862500Y-117157500D02*
X42227500Y-116522500D01*
X44387500Y-122968750D02*
X42862500Y-121443750D01*
%TO.N,ROW1*%
X238187500Y-123825000D02*
X238187500Y-126143750D01*
X276287500Y-126143750D02*
X276225000Y-126206250D01*
X200300000Y-184168628D02*
X200299999Y-184168628D01*
X188500000Y-126500000D02*
X188500000Y-126206250D01*
X276287500Y-123825000D02*
X276287500Y-126143750D01*
X200309436Y-147500000D02*
X198500000Y-145690564D01*
X200299999Y-184168628D02*
X194065685Y-177934314D01*
X47687500Y-126143750D02*
X47625000Y-126206250D01*
X257237500Y-126143750D02*
X257175000Y-126206250D01*
X198500000Y-145690564D02*
X198500000Y-129000000D01*
X104837500Y-126143750D02*
X104775000Y-126206250D01*
X376300000Y-126143750D02*
X376237500Y-126206250D01*
X219137500Y-123825000D02*
X219137500Y-126143750D01*
X123887500Y-126143750D02*
X123825000Y-126206250D01*
X198000000Y-128500000D02*
X190500000Y-128500000D01*
X181037500Y-126143750D02*
X180975000Y-126206250D01*
X194065685Y-171168873D02*
X203500000Y-161734558D01*
X304862500Y-123825000D02*
X304862500Y-126143750D01*
X200200000Y-187350000D02*
X200500000Y-187050000D01*
X142937500Y-126143750D02*
X142875000Y-126206250D01*
X200500000Y-184368629D02*
X200300000Y-184168628D01*
X123887500Y-123825000D02*
X123887500Y-126143750D01*
X200087500Y-123825000D02*
X200087500Y-126143750D01*
X194065685Y-177934314D02*
X194065685Y-171168873D01*
X66737500Y-123825000D02*
X66737500Y-126143750D01*
X104837500Y-123825000D02*
X104837500Y-126143750D01*
X376300000Y-123825000D02*
X376300000Y-126143750D01*
X200500000Y-187050000D02*
X200500000Y-184368629D01*
X200200000Y-188300000D02*
X200200000Y-187350000D01*
X47687500Y-123825000D02*
X47687500Y-126143750D01*
X357250000Y-126143750D02*
X357187500Y-126206250D01*
X338200000Y-126143750D02*
X338137500Y-126206250D01*
X219137500Y-126143750D02*
X219075000Y-126206250D01*
X202565686Y-147500000D02*
X200309436Y-147500000D01*
X238187500Y-126143750D02*
X238125000Y-126206250D01*
X198500000Y-129000000D02*
X198000000Y-128500000D01*
X85787500Y-123825000D02*
X85787500Y-126143750D01*
X181037500Y-123825000D02*
X181037500Y-126143750D01*
X338200000Y-123825000D02*
X338200000Y-126143750D01*
X203500000Y-161734558D02*
X203500000Y-148434314D01*
X142937500Y-123825000D02*
X142937500Y-126143750D01*
X357250000Y-123825000D02*
X357250000Y-126143750D01*
X161987500Y-126143750D02*
X161925000Y-126206250D01*
X66737500Y-126143750D02*
X66675000Y-126206250D01*
X203500000Y-148434314D02*
X202565686Y-147500000D01*
X85787500Y-126143750D02*
X85725000Y-126206250D01*
X190500000Y-128500000D02*
X188500000Y-126500000D01*
X257237500Y-123825000D02*
X257237500Y-126143750D01*
X161987500Y-123825000D02*
X161987500Y-126143750D01*
X200087500Y-126143750D02*
X200025000Y-126206250D01*
X304862500Y-126143750D02*
X304800000Y-126206250D01*
%TO.N,Net-(D18-A)*%
X63437500Y-123825000D02*
X63437500Y-122968750D01*
X61912500Y-121443750D02*
X61912500Y-117157500D01*
X63437500Y-122968750D02*
X61912500Y-121443750D01*
X61912500Y-117157500D02*
X61277500Y-116522500D01*
%TO.N,Net-(D19-A)*%
X82487500Y-123825000D02*
X82487500Y-122968750D01*
X80962500Y-117157500D02*
X80327500Y-116522500D01*
X80962500Y-121443750D02*
X80962500Y-117157500D01*
X82487500Y-122968750D02*
X80962500Y-121443750D01*
%TO.N,Net-(D20-A)*%
X101537500Y-123825000D02*
X101537500Y-122968750D01*
X100012500Y-117157500D02*
X99377500Y-116522500D01*
X100012500Y-121443750D02*
X100012500Y-117157500D01*
X101537500Y-122968750D02*
X100012500Y-121443750D01*
%TO.N,Net-(D21-A)*%
X120587500Y-123825000D02*
X120587500Y-122968750D01*
X119062500Y-121443750D02*
X119062500Y-117157500D01*
X119062500Y-117157500D02*
X118427500Y-116522500D01*
X120587500Y-122968750D02*
X119062500Y-121443750D01*
%TO.N,Net-(D22-A)*%
X138112500Y-117157500D02*
X137477500Y-116522500D01*
X139637500Y-122968750D02*
X138112500Y-121443750D01*
X138112500Y-121443750D02*
X138112500Y-117157500D01*
X139637500Y-123825000D02*
X139637500Y-122968750D01*
%TO.N,Net-(D23-A)*%
X157162500Y-117157500D02*
X156527500Y-116522500D01*
X157162500Y-121443750D02*
X157162500Y-117157500D01*
X158687500Y-122968750D02*
X157162500Y-121443750D01*
X158687500Y-123825000D02*
X158687500Y-122968750D01*
%TO.N,Net-(D24-A)*%
X177737500Y-122968750D02*
X176212500Y-121443750D01*
X176212500Y-117157500D02*
X175577500Y-116522500D01*
X177737500Y-123825000D02*
X177737500Y-122968750D01*
X176212500Y-121443750D02*
X176212500Y-117157500D01*
%TO.N,Net-(D25-A)*%
X196787500Y-122968750D02*
X195262500Y-121443750D01*
X196787500Y-123825000D02*
X196787500Y-122968750D01*
X195262500Y-121443750D02*
X195262500Y-117157500D01*
X195262500Y-117157500D02*
X194627500Y-116522500D01*
%TO.N,Net-(D26-A)*%
X214312500Y-121443750D02*
X214312500Y-117157500D01*
X215837500Y-122968750D02*
X214312500Y-121443750D01*
X215837500Y-123825000D02*
X215837500Y-122968750D01*
X214312500Y-117157500D02*
X213677500Y-116522500D01*
%TO.N,Net-(D27-A)*%
X233362500Y-121443750D02*
X233362500Y-117157500D01*
X234887500Y-122968750D02*
X233362500Y-121443750D01*
X234887500Y-123825000D02*
X234887500Y-122968750D01*
X233362500Y-117157500D02*
X232727500Y-116522500D01*
%TO.N,Net-(D28-A)*%
X252412500Y-117157500D02*
X251777500Y-116522500D01*
X252412500Y-121443750D02*
X252412500Y-117157500D01*
X253937500Y-123825000D02*
X253937500Y-122968750D01*
X253937500Y-122968750D02*
X252412500Y-121443750D01*
%TO.N,Net-(D29-A)*%
X272987500Y-123825000D02*
X272987500Y-122968750D01*
X272987500Y-122968750D02*
X271462500Y-121443750D01*
X271462500Y-121443750D02*
X271462500Y-117157500D01*
X271462500Y-117157500D02*
X270827500Y-116522500D01*
%TO.N,Net-(D30-A)*%
X301562500Y-123825000D02*
X301562500Y-122968750D01*
X301562500Y-122968750D02*
X300037500Y-121443750D01*
X300037500Y-117157500D02*
X299402500Y-116522500D01*
X300037500Y-121443750D02*
X300037500Y-117157500D01*
%TO.N,Net-(D31-A)*%
X333375000Y-117157500D02*
X332740000Y-116522500D01*
X334900000Y-123825000D02*
X334900000Y-122968750D01*
X334900000Y-122968750D02*
X333375000Y-121443750D01*
X333375000Y-121443750D02*
X333375000Y-117157500D01*
%TO.N,Net-(D32-A)*%
X352425000Y-117157500D02*
X351790000Y-116522500D01*
X353950000Y-122968750D02*
X352425000Y-121443750D01*
X352425000Y-121443750D02*
X352425000Y-117157500D01*
X353950000Y-123825000D02*
X353950000Y-122968750D01*
%TO.N,Net-(D33-A)*%
X373000000Y-123825000D02*
X373000000Y-122968750D01*
X371475000Y-121443750D02*
X371475000Y-117157500D01*
X371475000Y-117157500D02*
X370840000Y-116522500D01*
X373000000Y-122968750D02*
X371475000Y-121443750D01*
%TO.N,ROW2*%
X200000000Y-184434315D02*
X199900000Y-184334315D01*
X285812500Y-142875000D02*
X285812500Y-145193750D01*
X228662500Y-142875000D02*
X228662500Y-145193750D01*
X76262500Y-145193750D02*
X76200000Y-145256250D01*
X76262500Y-142875000D02*
X76262500Y-145193750D01*
X338200000Y-145193750D02*
X338137500Y-145256250D01*
X203000000Y-161668872D02*
X203000000Y-148500000D01*
X357250000Y-142875000D02*
X357250000Y-145193750D01*
X190562500Y-145193750D02*
X190500000Y-145256250D01*
X203000000Y-148500000D02*
X202500000Y-148000000D01*
X247712500Y-142875000D02*
X247712500Y-145193750D01*
X247712500Y-145193750D02*
X247650000Y-145256250D01*
X338200000Y-142875000D02*
X338200000Y-145193750D01*
X114362500Y-142875000D02*
X114362500Y-145193750D01*
X95312500Y-142875000D02*
X95312500Y-145193750D01*
X114362500Y-145193750D02*
X114300000Y-145256250D01*
X133412500Y-145193750D02*
X133350000Y-145256250D01*
X199900000Y-184334315D02*
X199900000Y-184334314D01*
X228662500Y-145193750D02*
X228600000Y-145256250D01*
X95312500Y-145193750D02*
X95250000Y-145256250D01*
X376300000Y-145193750D02*
X376237500Y-145256250D01*
X266762500Y-142875000D02*
X266762500Y-145193750D01*
X357250000Y-145193750D02*
X357187500Y-145256250D01*
X309625000Y-145193750D02*
X309562500Y-145256250D01*
X209612500Y-145193750D02*
X209550000Y-145256250D01*
X193500000Y-171168872D02*
X203000000Y-161668872D01*
X133412500Y-142875000D02*
X133412500Y-145193750D01*
X193500000Y-177934315D02*
X193500000Y-171168872D01*
X266762500Y-145193750D02*
X266700000Y-145256250D01*
X52450000Y-145193750D02*
X52387500Y-145256250D01*
X200000000Y-186565686D02*
X200000000Y-184434315D01*
X285812500Y-145193750D02*
X285750000Y-145256250D01*
X199900000Y-184334314D02*
X193565685Y-178000000D01*
X171512500Y-142875000D02*
X171512500Y-145193750D01*
X209612500Y-142875000D02*
X209612500Y-145193750D01*
X190562500Y-142875000D02*
X190562500Y-145193750D01*
X200243750Y-148000000D02*
X197500000Y-145256250D01*
X202500000Y-148000000D02*
X200243750Y-148000000D01*
X171512500Y-145193750D02*
X171450000Y-145256250D01*
X376300000Y-142875000D02*
X376300000Y-145193750D01*
X152462500Y-142875000D02*
X152462500Y-145193750D01*
X199400000Y-187165686D02*
X200000000Y-186565686D01*
X309625000Y-142875000D02*
X309625000Y-145193750D01*
X193565685Y-178000000D02*
X193500000Y-177934315D01*
X52450000Y-142875000D02*
X52450000Y-145193750D01*
X152462500Y-145193750D02*
X152400000Y-145256250D01*
X199400000Y-188300000D02*
X199400000Y-187165686D01*
%TO.N,Net-(D34-A)*%
X47625000Y-140493750D02*
X47625000Y-136207500D01*
X47625000Y-136207500D02*
X46990000Y-135572500D01*
X49150000Y-142875000D02*
X49150000Y-142018750D01*
X49150000Y-142018750D02*
X47625000Y-140493750D01*
%TO.N,Net-(D35-A)*%
X71437500Y-136207500D02*
X70802500Y-135572500D01*
X71437500Y-140493750D02*
X71437500Y-136207500D01*
X72962500Y-142875000D02*
X72962500Y-142018750D01*
X72962500Y-142018750D02*
X71437500Y-140493750D01*
%TO.N,Net-(D36-A)*%
X92012500Y-142018750D02*
X90487500Y-140493750D01*
X90487500Y-136207500D02*
X89852500Y-135572500D01*
X92012500Y-142875000D02*
X92012500Y-142018750D01*
X90487500Y-140493750D02*
X90487500Y-136207500D01*
%TO.N,Net-(D37-A)*%
X111062500Y-142875000D02*
X111062500Y-142018750D01*
X111062500Y-142018750D02*
X109537500Y-140493750D01*
X109537500Y-140493750D02*
X109537500Y-136207500D01*
X109537500Y-136207500D02*
X108902500Y-135572500D01*
%TO.N,Net-(D38-A)*%
X128587500Y-140493750D02*
X128587500Y-136207500D01*
X128587500Y-136207500D02*
X127952500Y-135572500D01*
X130112500Y-142875000D02*
X130112500Y-142018750D01*
X130112500Y-142018750D02*
X128587500Y-140493750D01*
%TO.N,Net-(D39-A)*%
X149162500Y-142018750D02*
X147637500Y-140493750D01*
X147637500Y-140493750D02*
X147637500Y-136207500D01*
X149162500Y-142875000D02*
X149162500Y-142018750D01*
X147637500Y-136207500D02*
X147002500Y-135572500D01*
%TO.N,Net-(D40-A)*%
X168212500Y-142018750D02*
X166687500Y-140493750D01*
X168212500Y-142875000D02*
X168212500Y-142018750D01*
X166687500Y-136207500D02*
X166052500Y-135572500D01*
X166687500Y-140493750D02*
X166687500Y-136207500D01*
%TO.N,Net-(D41-A)*%
X185737500Y-136207500D02*
X185102500Y-135572500D01*
X187262500Y-142875000D02*
X187262500Y-142018750D01*
X187262500Y-142018750D02*
X185737500Y-140493750D01*
X185737500Y-140493750D02*
X185737500Y-136207500D01*
%TO.N,Net-(D42-A)*%
X204787500Y-140493750D02*
X204787500Y-136207500D01*
X204787500Y-136207500D02*
X204152500Y-135572500D01*
X206312500Y-142875000D02*
X206312500Y-142018750D01*
X206312500Y-142018750D02*
X204787500Y-140493750D01*
%TO.N,Net-(D43-A)*%
X223837500Y-136207500D02*
X223202500Y-135572500D01*
X225362500Y-142018750D02*
X223837500Y-140493750D01*
X225362500Y-142875000D02*
X225362500Y-142018750D01*
X223837500Y-140493750D02*
X223837500Y-136207500D01*
%TO.N,Net-(D44-A)*%
X244412500Y-142018750D02*
X242887500Y-140493750D01*
X244412500Y-142875000D02*
X244412500Y-142018750D01*
X242887500Y-136207500D02*
X242252500Y-135572500D01*
X242887500Y-140493750D02*
X242887500Y-136207500D01*
%TO.N,Net-(D45-A)*%
X261937500Y-136207500D02*
X261302500Y-135572500D01*
X263462500Y-142875000D02*
X263462500Y-142018750D01*
X263462500Y-142018750D02*
X261937500Y-140493750D01*
X261937500Y-140493750D02*
X261937500Y-136207500D01*
%TO.N,Net-(D46-A)*%
X282512500Y-142875000D02*
X282512500Y-142018750D01*
X280987500Y-136207500D02*
X280352500Y-135572500D01*
X280987500Y-140493750D02*
X280987500Y-136207500D01*
X282512500Y-142018750D02*
X280987500Y-140493750D01*
%TO.N,Net-(D47-A)*%
X304800000Y-140493750D02*
X304800000Y-136207500D01*
X306325000Y-142018750D02*
X304800000Y-140493750D01*
X304800000Y-136207500D02*
X304165000Y-135572500D01*
X306325000Y-142875000D02*
X306325000Y-142018750D01*
%TO.N,Net-(D48-A)*%
X333375000Y-140493750D02*
X333375000Y-136207500D01*
X334900000Y-142018750D02*
X333375000Y-140493750D01*
X334900000Y-142875000D02*
X334900000Y-142018750D01*
X333375000Y-136207500D02*
X332740000Y-135572500D01*
%TO.N,Net-(D49-A)*%
X353950000Y-142018750D02*
X352425000Y-140493750D01*
X352425000Y-140493750D02*
X352425000Y-136207500D01*
X353950000Y-142875000D02*
X353950000Y-142018750D01*
X352425000Y-136207500D02*
X351790000Y-135572500D01*
%TO.N,Net-(D50-A)*%
X371475000Y-136207500D02*
X370840000Y-135572500D01*
X373000000Y-142018750D02*
X371475000Y-140493750D01*
X373000000Y-142875000D02*
X373000000Y-142018750D01*
X371475000Y-140493750D02*
X371475000Y-136207500D01*
%TO.N,ROW3*%
X271525000Y-164243750D02*
X271462500Y-164306250D01*
X138175000Y-164243750D02*
X138112500Y-164306250D01*
X302481250Y-161925000D02*
X302481250Y-164243750D01*
X199500000Y-186500000D02*
X199500000Y-184500000D01*
X100075000Y-164243750D02*
X100012500Y-164306250D01*
X198600000Y-187400000D02*
X199500000Y-186500000D01*
X157225000Y-161925000D02*
X157225000Y-164243750D01*
X81025000Y-164243750D02*
X80962500Y-164306250D01*
X138175000Y-161925000D02*
X138175000Y-164243750D01*
X81025000Y-161925000D02*
X81025000Y-164243750D01*
X214375000Y-164243750D02*
X214312500Y-164306250D01*
X233425000Y-161925000D02*
X233425000Y-164243750D01*
X199500000Y-184500000D02*
X193000000Y-178000000D01*
X197500000Y-166603186D02*
X197500000Y-164306250D01*
X193000000Y-171103186D02*
X197500000Y-166603186D01*
X252475000Y-161925000D02*
X252475000Y-164243750D01*
X271525000Y-161925000D02*
X271525000Y-164243750D01*
X157225000Y-164243750D02*
X157162500Y-164306250D01*
X119125000Y-161925000D02*
X119125000Y-164243750D01*
X198600000Y-188300000D02*
X198600000Y-187400000D01*
X302481250Y-164243750D02*
X302418750Y-164306250D01*
X195325000Y-164243750D02*
X195262500Y-164306250D01*
X252475000Y-164243750D02*
X252412500Y-164306250D01*
X233425000Y-164243750D02*
X233362500Y-164306250D01*
X176275000Y-164243750D02*
X176212500Y-164306250D01*
X100075000Y-161925000D02*
X100075000Y-164243750D01*
X176275000Y-161925000D02*
X176275000Y-164243750D01*
X54831250Y-161925000D02*
X54831250Y-164243750D01*
X214375000Y-161925000D02*
X214375000Y-164243750D01*
X195325000Y-161925000D02*
X195325000Y-164243750D01*
X54831250Y-164243750D02*
X54768750Y-164306250D01*
X119125000Y-164243750D02*
X119062500Y-164306250D01*
X193000000Y-178000000D02*
X193000000Y-171103186D01*
%TO.N,Net-(D51-A)*%
X50006250Y-159543750D02*
X50006250Y-155257500D01*
X51531250Y-161068750D02*
X50006250Y-159543750D01*
X50006250Y-155257500D02*
X49371250Y-154622500D01*
X51531250Y-161925000D02*
X51531250Y-161068750D01*
%TO.N,Net-(D52-A)*%
X76200000Y-159543750D02*
X76200000Y-155257500D01*
X77725000Y-161068750D02*
X76200000Y-159543750D01*
X77725000Y-161925000D02*
X77725000Y-161068750D01*
X76200000Y-155257500D02*
X75565000Y-154622500D01*
%TO.N,Net-(D53-A)*%
X95250000Y-159543750D02*
X95250000Y-155257500D01*
X95250000Y-155257500D02*
X94615000Y-154622500D01*
X96775000Y-161068750D02*
X95250000Y-159543750D01*
X96775000Y-161925000D02*
X96775000Y-161068750D01*
%TO.N,Net-(D54-A)*%
X114300000Y-155257500D02*
X113665000Y-154622500D01*
X115825000Y-161925000D02*
X115825000Y-161068750D01*
X114300000Y-159543750D02*
X114300000Y-155257500D01*
X115825000Y-161068750D02*
X114300000Y-159543750D01*
%TO.N,Net-(D55-A)*%
X133350000Y-155257500D02*
X132715000Y-154622500D01*
X134875000Y-161068750D02*
X133350000Y-159543750D01*
X133350000Y-159543750D02*
X133350000Y-155257500D01*
X134875000Y-161925000D02*
X134875000Y-161068750D01*
%TO.N,Net-(D56-A)*%
X153925000Y-161068750D02*
X152400000Y-159543750D01*
X152400000Y-155257500D02*
X151765000Y-154622500D01*
X153925000Y-161925000D02*
X153925000Y-161068750D01*
X152400000Y-159543750D02*
X152400000Y-155257500D01*
%TO.N,Net-(D57-A)*%
X172975000Y-161068750D02*
X171450000Y-159543750D01*
X171450000Y-159543750D02*
X171450000Y-155257500D01*
X171450000Y-155257500D02*
X170815000Y-154622500D01*
X172975000Y-161925000D02*
X172975000Y-161068750D01*
%TO.N,Net-(D58-A)*%
X192025000Y-161925000D02*
X192025000Y-161068750D01*
X190500000Y-159543750D02*
X190500000Y-155257500D01*
X190500000Y-155257500D02*
X189865000Y-154622500D01*
X192025000Y-161068750D02*
X190500000Y-159543750D01*
%TO.N,Net-(D59-A)*%
X209550000Y-159543750D02*
X209550000Y-155257500D01*
X211075000Y-161068750D02*
X209550000Y-159543750D01*
X209550000Y-155257500D02*
X208915000Y-154622500D01*
X211075000Y-161925000D02*
X211075000Y-161068750D01*
%TO.N,Net-(D60-A)*%
X228600000Y-159543750D02*
X228600000Y-155257500D01*
X230125000Y-161925000D02*
X230125000Y-161068750D01*
X230125000Y-161068750D02*
X228600000Y-159543750D01*
X228600000Y-155257500D02*
X227965000Y-154622500D01*
%TO.N,Net-(D61-A)*%
X249175000Y-161925000D02*
X249175000Y-161068750D01*
X249175000Y-161068750D02*
X247650000Y-159543750D01*
X247650000Y-155257500D02*
X247015000Y-154622500D01*
X247650000Y-159543750D02*
X247650000Y-155257500D01*
%TO.N,Net-(D62-A)*%
X266700000Y-159543750D02*
X266700000Y-155257500D01*
X266700000Y-155257500D02*
X266065000Y-154622500D01*
X268225000Y-161925000D02*
X268225000Y-161068750D01*
X268225000Y-161068750D02*
X266700000Y-159543750D01*
%TO.N,Net-(D63-A)*%
X299181250Y-161068750D02*
X297656250Y-159543750D01*
X297656250Y-159543750D02*
X297656250Y-155257500D01*
X299181250Y-161925000D02*
X299181250Y-161068750D01*
X297656250Y-155257500D02*
X297021250Y-154622500D01*
%TO.N,ROW4*%
X357250000Y-180975000D02*
X357250000Y-183293750D01*
X185800000Y-183293750D02*
X185737500Y-183356250D01*
X147700000Y-180975000D02*
X147700000Y-183293750D01*
X90550000Y-180975000D02*
X90550000Y-183293750D01*
X204850000Y-183293750D02*
X204787500Y-183356250D01*
X204850000Y-180975000D02*
X204850000Y-183293750D01*
X109600000Y-180975000D02*
X109600000Y-183293750D01*
X357250000Y-183293750D02*
X357187500Y-183356250D01*
X195300000Y-190000000D02*
X194500000Y-190000000D01*
X297718750Y-180975000D02*
X297718750Y-183293750D01*
X147700000Y-183293750D02*
X147637500Y-183356250D01*
X59593750Y-183293750D02*
X59531250Y-183356250D01*
X262000000Y-183293750D02*
X261937500Y-183356250D01*
X128650000Y-180975000D02*
X128650000Y-183293750D01*
X128650000Y-183293750D02*
X128587500Y-183356250D01*
X297718750Y-183293750D02*
X297656250Y-183356250D01*
X223900000Y-180975000D02*
X223900000Y-183293750D01*
X193000000Y-188500000D02*
X193000000Y-183356250D01*
X109600000Y-183293750D02*
X109537500Y-183356250D01*
X59593750Y-180975000D02*
X59593750Y-183293750D01*
X185800000Y-180975000D02*
X185800000Y-183293750D01*
X262000000Y-180975000D02*
X262000000Y-183293750D01*
X242950000Y-180975000D02*
X242950000Y-183293750D01*
X223900000Y-183293750D02*
X223837500Y-183356250D01*
X166750000Y-180975000D02*
X166750000Y-183293750D01*
X166750000Y-183293750D02*
X166687500Y-183356250D01*
X90550000Y-183293750D02*
X90487500Y-183356250D01*
X194500000Y-190000000D02*
X193000000Y-188500000D01*
X242950000Y-183293750D02*
X242887500Y-183356250D01*
%TO.N,Net-(D64-A)*%
X54768750Y-178593750D02*
X54768750Y-174307500D01*
X54768750Y-174307500D02*
X54133750Y-173672500D01*
X56293750Y-180118750D02*
X54768750Y-178593750D01*
X56293750Y-180975000D02*
X56293750Y-180118750D01*
%TO.N,Net-(D65-A)*%
X87250000Y-180118750D02*
X85725000Y-178593750D01*
X85725000Y-178593750D02*
X85725000Y-174307500D01*
X85725000Y-174307500D02*
X85090000Y-173672500D01*
X87250000Y-180975000D02*
X87250000Y-180118750D01*
%TO.N,Net-(D66-A)*%
X106300000Y-180118750D02*
X104775000Y-178593750D01*
X104775000Y-174307500D02*
X104140000Y-173672500D01*
X104775000Y-178593750D02*
X104775000Y-174307500D01*
X106300000Y-180975000D02*
X106300000Y-180118750D01*
%TO.N,Net-(D67-A)*%
X123825000Y-174307500D02*
X123190000Y-173672500D01*
X125350000Y-180118750D02*
X123825000Y-178593750D01*
X123825000Y-178593750D02*
X123825000Y-174307500D01*
X125350000Y-180975000D02*
X125350000Y-180118750D01*
%TO.N,Net-(D68-A)*%
X142875000Y-178593750D02*
X142875000Y-174307500D01*
X142875000Y-174307500D02*
X142240000Y-173672500D01*
X144400000Y-180118750D02*
X142875000Y-178593750D01*
X144400000Y-180975000D02*
X144400000Y-180118750D01*
%TO.N,Net-(D69-A)*%
X163450000Y-180975000D02*
X163450000Y-180118750D01*
X163450000Y-180118750D02*
X161925000Y-178593750D01*
X161925000Y-178593750D02*
X161925000Y-174307500D01*
X161925000Y-174307500D02*
X161290000Y-173672500D01*
%TO.N,Net-(D70-A)*%
X180975000Y-178593750D02*
X180975000Y-174307500D01*
X182500000Y-180975000D02*
X182500000Y-180118750D01*
X182500000Y-180118750D02*
X180975000Y-178593750D01*
X180975000Y-174307500D02*
X180340000Y-173672500D01*
%TO.N,Net-(D71-A)*%
X200025000Y-174307500D02*
X199390000Y-173672500D01*
X200025000Y-178593750D02*
X200025000Y-174307500D01*
X201550000Y-180975000D02*
X201550000Y-180118750D01*
X201550000Y-180118750D02*
X200025000Y-178593750D01*
%TO.N,Net-(D72-A)*%
X219075000Y-178593750D02*
X219075000Y-174307500D01*
X220600000Y-180118750D02*
X219075000Y-178593750D01*
X219075000Y-174307500D02*
X218440000Y-173672500D01*
X220600000Y-180975000D02*
X220600000Y-180118750D01*
%TO.N,Net-(D73-A)*%
X238125000Y-178593750D02*
X238125000Y-174307500D01*
X238125000Y-174307500D02*
X237490000Y-173672500D01*
X239650000Y-180975000D02*
X239650000Y-180118750D01*
X239650000Y-180118750D02*
X238125000Y-178593750D01*
%TO.N,Net-(D74-A)*%
X258700000Y-180118750D02*
X257175000Y-178593750D01*
X257175000Y-174307500D02*
X256540000Y-173672500D01*
X257175000Y-178593750D02*
X257175000Y-174307500D01*
X258700000Y-180975000D02*
X258700000Y-180118750D01*
%TO.N,Net-(D75-A)*%
X294418750Y-180118750D02*
X292893750Y-178593750D01*
X292893750Y-174307500D02*
X292258750Y-173672500D01*
X292893750Y-178593750D02*
X292893750Y-174307500D01*
X294418750Y-180975000D02*
X294418750Y-180118750D01*
%TO.N,Net-(D76-A)*%
X352425000Y-174307500D02*
X351790000Y-173672500D01*
X353950000Y-180118750D02*
X352425000Y-178593750D01*
X353950000Y-180975000D02*
X353950000Y-180118750D01*
X352425000Y-178593750D02*
X352425000Y-174307500D01*
%TO.N,ROW5*%
X240568750Y-202343750D02*
X240506250Y-202406250D01*
X357250000Y-202343750D02*
X357187500Y-202406250D01*
X357250000Y-200025000D02*
X357250000Y-202343750D01*
X264381250Y-200025000D02*
X264381250Y-202343750D01*
X264381250Y-202343750D02*
X264318750Y-202406250D01*
X206700000Y-195600000D02*
X210100000Y-195600000D01*
X210100000Y-195600000D02*
X211962500Y-197462500D01*
X50068750Y-200025000D02*
X50068750Y-202343750D01*
X338200000Y-200025000D02*
X338200000Y-202343750D01*
X97693750Y-200025000D02*
X97693750Y-202343750D01*
X288193750Y-200025000D02*
X288193750Y-202343750D01*
X312006250Y-202343750D02*
X311943750Y-202406250D01*
X338200000Y-202343750D02*
X338137500Y-202406250D01*
X73881250Y-202343750D02*
X73818750Y-202406250D01*
X240568750Y-200025000D02*
X240568750Y-202343750D01*
X376300000Y-202343750D02*
X376237500Y-202406250D01*
X73881250Y-200025000D02*
X73881250Y-202343750D01*
X211962500Y-197462500D02*
X211962500Y-203962500D01*
X50068750Y-202343750D02*
X50006250Y-202406250D01*
X312006250Y-200025000D02*
X312006250Y-202343750D01*
X169131250Y-202343750D02*
X169068750Y-202406250D01*
X376300000Y-200025000D02*
X376300000Y-202343750D01*
X288193750Y-202343750D02*
X288131250Y-202406250D01*
X169131250Y-200025000D02*
X169131250Y-202343750D01*
X97693750Y-202343750D02*
X97631250Y-202406250D01*
%TO.N,Net-(D77-A)*%
X46768750Y-200025000D02*
X46768750Y-199168750D01*
X45243750Y-193357500D02*
X44608750Y-192722500D01*
X45243750Y-197643750D02*
X45243750Y-193357500D01*
X46768750Y-199168750D02*
X45243750Y-197643750D01*
%TO.N,Net-(D78-A)*%
X70581250Y-199168750D02*
X69056250Y-197643750D01*
X70581250Y-200025000D02*
X70581250Y-199168750D01*
X69056250Y-197643750D02*
X69056250Y-193357500D01*
X69056250Y-193357500D02*
X68421250Y-192722500D01*
%TO.N,Net-(D79-A)*%
X94393750Y-199168750D02*
X92868750Y-197643750D01*
X92868750Y-193357500D02*
X92233750Y-192722500D01*
X94393750Y-200025000D02*
X94393750Y-199168750D01*
X92868750Y-197643750D02*
X92868750Y-193357500D01*
%TO.N,Net-(D80-A)*%
X164306250Y-193357500D02*
X163671250Y-192722500D01*
X165831250Y-199168750D02*
X164306250Y-197643750D01*
X165831250Y-200025000D02*
X165831250Y-199168750D01*
X164306250Y-197643750D02*
X164306250Y-193357500D01*
%TO.N,Net-(D81-A)*%
X237268750Y-199168750D02*
X235743750Y-197643750D01*
X235743750Y-197643750D02*
X235743750Y-193357500D01*
X235743750Y-193357500D02*
X235108750Y-192722500D01*
X237268750Y-200025000D02*
X237268750Y-199168750D01*
%TO.N,Net-(D82-A)*%
X259556250Y-197643750D02*
X259556250Y-193357500D01*
X259556250Y-193357500D02*
X258921250Y-192722500D01*
X261081250Y-200025000D02*
X261081250Y-199168750D01*
X261081250Y-199168750D02*
X259556250Y-197643750D01*
%TO.N,Net-(D83-A)*%
X284893750Y-200025000D02*
X284893750Y-199168750D01*
X283368750Y-193357500D02*
X282733750Y-192722500D01*
X284893750Y-199168750D02*
X283368750Y-197643750D01*
X283368750Y-197643750D02*
X283368750Y-193357500D01*
%TO.N,Net-(D84-A)*%
X307181250Y-197643750D02*
X307181250Y-193357500D01*
X307181250Y-193357500D02*
X306546250Y-192722500D01*
X308706250Y-200025000D02*
X308706250Y-199168750D01*
X308706250Y-199168750D02*
X307181250Y-197643750D01*
%TO.N,Net-(D85-A)*%
X333375000Y-197643750D02*
X333375000Y-193357500D01*
X334900000Y-199168750D02*
X333375000Y-197643750D01*
X333375000Y-193357500D02*
X332740000Y-192722500D01*
X334900000Y-200025000D02*
X334900000Y-199168750D01*
%TO.N,Net-(D86-A)*%
X352425000Y-197643750D02*
X352425000Y-193357500D01*
X353950000Y-199168750D02*
X352425000Y-197643750D01*
X353950000Y-200025000D02*
X353950000Y-199168750D01*
X352425000Y-193357500D02*
X351790000Y-192722500D01*
%TO.N,Net-(D87-A)*%
X371475000Y-193357500D02*
X370840000Y-192722500D01*
X373000000Y-200025000D02*
X373000000Y-199168750D01*
X371475000Y-197643750D02*
X371475000Y-193357500D01*
X373000000Y-199168750D02*
X371475000Y-197643750D01*
D28*
%TO.N,VCC*%
X238112500Y-97825000D02*
X238112500Y-94987500D01*
X238112500Y-97825000D02*
X236137500Y-99800000D01*
D27*
%TO.N,Net-(U1-~{HWB}{slash}PE2)*%
X205500000Y-185500000D02*
X205500000Y-186000000D01*
X205000000Y-186500000D02*
X205500000Y-186000000D01*
X205000000Y-188300000D02*
X205000000Y-186500000D01*
%TO.N,D+*%
X239712500Y-97862500D02*
X242137500Y-100287500D01*
X239712500Y-97862500D02*
X239712500Y-94987500D01*
%TO.N,Net-(U1-D+)*%
X232637500Y-184362500D02*
X232500000Y-184500000D01*
X242137500Y-103287500D02*
X235137500Y-110287500D01*
X237637500Y-131287500D02*
X237637500Y-145787500D01*
X202600000Y-200650000D02*
X204950000Y-203000000D01*
X232637500Y-183287500D02*
X232637500Y-184362500D01*
X232637500Y-173287500D02*
X232637500Y-183287500D01*
X237637500Y-145787500D02*
X242137500Y-150287500D01*
X227637500Y-112287500D02*
X227637500Y-121287500D01*
X204950000Y-203000000D02*
X211000000Y-203000000D01*
X202600000Y-199700000D02*
X202600000Y-200650000D01*
X227637500Y-121287500D02*
X237637500Y-131287500D01*
X235137500Y-110287500D02*
X229637500Y-110287500D01*
X242137500Y-102287500D02*
X242137500Y-103287500D01*
X229637500Y-110287500D02*
X227637500Y-112287500D01*
X242137500Y-163787500D02*
X232637500Y-173287500D01*
X242137500Y-150287500D02*
X242137500Y-163787500D01*
%TO.N,D-*%
X239137500Y-100287500D02*
X238912500Y-100062500D01*
X238912500Y-100062500D02*
X238912500Y-94987500D01*
%TO.N,Net-(U1-D-)*%
X236637500Y-131287500D02*
X236637500Y-145787500D01*
X226637500Y-121287500D02*
X236637500Y-131287500D01*
X210900000Y-202100000D02*
X211000000Y-202000000D01*
X241137500Y-163787500D02*
X231637500Y-173287500D01*
X226637500Y-112287500D02*
X226637500Y-121287500D01*
X204775328Y-202100000D02*
X210900000Y-202100000D01*
X231637500Y-183862500D02*
X231000000Y-184500000D01*
X241137500Y-150287500D02*
X241137500Y-163787500D01*
X231637500Y-183287500D02*
X231637500Y-183862500D01*
X239137500Y-102287500D02*
X239137500Y-105287500D01*
X203400000Y-200724672D02*
X204775328Y-202100000D01*
X236637500Y-145787500D02*
X241137500Y-150287500D01*
X235137500Y-109287500D02*
X229637500Y-109287500D01*
X231637500Y-173287500D02*
X231637500Y-183287500D01*
X203400000Y-199700000D02*
X203400000Y-200724672D01*
X229637500Y-109287500D02*
X226637500Y-112287500D01*
X239137500Y-105287500D02*
X235137500Y-109287500D01*
%TO.N,Net-(U1-~{RESET})*%
X192400000Y-202600000D02*
X194000000Y-201000000D01*
X179650000Y-197700000D02*
X179650000Y-196600000D01*
X194000000Y-197550000D02*
X194350000Y-197200000D01*
X187500000Y-200500000D02*
X187000000Y-200500000D01*
X179950000Y-198000000D02*
X179650000Y-197700000D01*
X194000000Y-201000000D02*
X194000000Y-197550000D01*
X184500000Y-198000000D02*
X179950000Y-198000000D01*
X194350000Y-197200000D02*
X195300000Y-197200000D01*
X187000000Y-200500000D02*
X184500000Y-198000000D01*
X187500000Y-200500000D02*
X189600000Y-202600000D01*
X189600000Y-202600000D02*
X192400000Y-202600000D01*
X179650000Y-190400000D02*
X179650000Y-196600000D01*
%TO.N,COL0*%
X60483750Y-163671250D02*
X60483750Y-171132500D01*
X199400000Y-199700000D02*
X199400000Y-200906328D01*
X60483750Y-171132500D02*
X51911250Y-171132500D01*
X51500000Y-197500000D02*
X51500000Y-190723750D01*
X49212500Y-93662500D02*
X49212500Y-113347500D01*
X50958750Y-172085000D02*
X50958750Y-190182500D01*
X111500000Y-204500000D02*
X58500000Y-204500000D01*
X56356250Y-159543750D02*
X60483750Y-163671250D01*
X199400000Y-200906328D02*
X195806328Y-204500000D01*
X53340000Y-133032500D02*
X53340000Y-133508750D01*
X58500000Y-204500000D02*
X51500000Y-197500000D01*
X49212500Y-115093750D02*
X49212500Y-121443750D01*
X48577500Y-114458750D02*
X49212500Y-115093750D01*
X48577500Y-113982500D02*
X48577500Y-114458750D01*
X123500000Y-204500000D02*
X119000000Y-200000000D01*
X55721250Y-142240000D02*
X55721250Y-152082500D01*
X49212500Y-113347500D02*
X48577500Y-113982500D01*
X51911250Y-171132500D02*
X50958750Y-172085000D01*
X55721250Y-152558750D02*
X56356250Y-153193750D01*
X195806328Y-204500000D02*
X123500000Y-204500000D01*
X53975000Y-134143750D02*
X53975000Y-140493750D01*
X55721250Y-152082500D02*
X55721250Y-152558750D01*
X49212500Y-121443750D02*
X53340000Y-125571250D01*
X53340000Y-133508750D02*
X53975000Y-134143750D01*
X56356250Y-153193750D02*
X56356250Y-159543750D01*
X48577500Y-92551250D02*
X48577500Y-93027500D01*
X51500000Y-190723750D02*
X50958750Y-190182500D01*
X119000000Y-200000000D02*
X116000000Y-200000000D01*
X48577500Y-93027500D02*
X49212500Y-93662500D01*
X116000000Y-200000000D02*
X111500000Y-204500000D01*
X53340000Y-125571250D02*
X53340000Y-133032500D01*
X53975000Y-140493750D02*
X55721250Y-142240000D01*
%TO.N,COL2*%
X97155000Y-171132500D02*
X91440000Y-171132500D01*
X91440000Y-171608750D02*
X92075000Y-172243750D01*
X92075000Y-178593750D02*
X98583750Y-185102500D01*
X99500000Y-197500000D02*
X99500000Y-191098750D01*
X100965000Y-152558750D02*
X101600000Y-153193750D01*
X101600000Y-166687500D02*
X97155000Y-171132500D01*
X87312500Y-121443750D02*
X96202500Y-130333750D01*
X197800000Y-199700000D02*
X197800000Y-200650000D01*
X115000000Y-199000000D02*
X110500000Y-203500000D01*
X80327500Y-92551250D02*
X80327500Y-93027500D01*
X86677500Y-113982500D02*
X86677500Y-114458750D01*
X120000000Y-199000000D02*
X115000000Y-199000000D01*
X80962500Y-93662500D02*
X80962500Y-100012500D01*
X86677500Y-114458750D02*
X87312500Y-115093750D01*
X197800000Y-200650000D02*
X194950000Y-203500000D01*
X96202500Y-133032500D02*
X96202500Y-133508750D01*
X110500000Y-203500000D02*
X105500000Y-203500000D01*
X92075000Y-172243750D02*
X92075000Y-178593750D01*
X99500000Y-191098750D02*
X98583750Y-190182500D01*
X96202500Y-133508750D02*
X96837500Y-134143750D01*
X96202500Y-130333750D02*
X96202500Y-133032500D01*
X101600000Y-153193750D02*
X101600000Y-166687500D01*
X86677500Y-105727500D02*
X86677500Y-113982500D01*
X124500000Y-203500000D02*
X120000000Y-199000000D01*
X87312500Y-115093750D02*
X87312500Y-121443750D01*
X96837500Y-134143750D02*
X96837500Y-140493750D01*
X100965000Y-144621250D02*
X100965000Y-152082500D01*
X105500000Y-203500000D02*
X99500000Y-197500000D01*
X91440000Y-171132500D02*
X91440000Y-171608750D01*
X194950000Y-203500000D02*
X124500000Y-203500000D01*
X80962500Y-100012500D02*
X86677500Y-105727500D01*
X98583750Y-185102500D02*
X98583750Y-190182500D01*
X96837500Y-140493750D02*
X100965000Y-144621250D01*
X100965000Y-152082500D02*
X100965000Y-152558750D01*
X80327500Y-93027500D02*
X80962500Y-93662500D01*
%TO.N,COL3*%
X125006250Y-203006250D02*
X120500000Y-198500000D01*
X111000000Y-171642500D02*
X110490000Y-171132500D01*
X115252500Y-133032500D02*
X115252500Y-133508750D01*
X116205000Y-171132500D02*
X110490000Y-171132500D01*
X120500000Y-198500000D02*
X114500000Y-198500000D01*
X106362500Y-121443750D02*
X115252500Y-130333750D01*
X100012500Y-93662500D02*
X100012500Y-100012500D01*
X106362500Y-115093750D02*
X106362500Y-121443750D01*
X105727500Y-105727500D02*
X105727500Y-113982500D01*
X115887500Y-140493750D02*
X120015000Y-144621250D01*
X114500000Y-198500000D02*
X111000000Y-195000000D01*
X197000000Y-199700000D02*
X197000000Y-200500000D01*
X99377500Y-92551250D02*
X99377500Y-93027500D01*
X120015000Y-144621250D02*
X120015000Y-152082500D01*
X105727500Y-113982500D02*
X105727500Y-114458750D01*
X115887500Y-134143750D02*
X115887500Y-140493750D01*
X115252500Y-130333750D02*
X115252500Y-133032500D01*
X100012500Y-100012500D02*
X105727500Y-105727500D01*
X120650000Y-153193750D02*
X120650000Y-166687500D01*
X194500000Y-203000000D02*
X192500000Y-203000000D01*
X192493750Y-203006250D02*
X125006250Y-203006250D01*
X120015000Y-152082500D02*
X120015000Y-152558750D01*
X99377500Y-93027500D02*
X100012500Y-93662500D01*
X105727500Y-114458750D02*
X106362500Y-115093750D01*
X192500000Y-203000000D02*
X192493750Y-203006250D01*
X197000000Y-200500000D02*
X194500000Y-203000000D01*
X120650000Y-166687500D02*
X116205000Y-171132500D01*
X115252500Y-133508750D02*
X115887500Y-134143750D01*
X111000000Y-195000000D02*
X111000000Y-171642500D01*
X120015000Y-152558750D02*
X120650000Y-153193750D01*
%TO.N,COL4*%
X173065686Y-187000000D02*
X172500000Y-187565686D01*
X118427500Y-92551250D02*
X118427500Y-93027500D01*
X134937500Y-134143750D02*
X134937500Y-140493750D01*
X191000000Y-187500000D02*
X190500000Y-187000000D01*
X124777500Y-105727500D02*
X124777500Y-113982500D01*
X167500000Y-191565686D02*
X167500000Y-187565686D01*
X190500000Y-187000000D02*
X173065686Y-187000000D01*
X130000000Y-178500000D02*
X130000000Y-171592500D01*
X119062500Y-93662500D02*
X119062500Y-100012500D01*
X194350000Y-193200000D02*
X191000000Y-189850000D01*
X134302500Y-133508750D02*
X134937500Y-134143750D01*
X139065000Y-152082500D02*
X139065000Y-152558750D01*
X135255000Y-171132500D02*
X129540000Y-171132500D01*
X166934314Y-187000000D02*
X138500000Y-187000000D01*
X191000000Y-189850000D02*
X191000000Y-187500000D01*
X124777500Y-113982500D02*
X124777500Y-114458750D01*
X125412500Y-121443750D02*
X134302500Y-130333750D01*
X167500000Y-187565686D02*
X166934314Y-187000000D01*
X139065000Y-152558750D02*
X139700000Y-153193750D01*
X124777500Y-114458750D02*
X125412500Y-115093750D01*
X134302500Y-133032500D02*
X134302500Y-133508750D01*
X172500000Y-191565686D02*
X171565686Y-192500000D01*
X139065000Y-144621250D02*
X139065000Y-152082500D01*
X195300000Y-193200000D02*
X194350000Y-193200000D01*
X139700000Y-166687500D02*
X135255000Y-171132500D01*
X138500000Y-187000000D02*
X130000000Y-178500000D01*
X130000000Y-171592500D02*
X129540000Y-171132500D01*
X125412500Y-115093750D02*
X125412500Y-121443750D01*
X172500000Y-187565686D02*
X172500000Y-191565686D01*
X171565686Y-192500000D02*
X168434314Y-192500000D01*
X134937500Y-140493750D02*
X139065000Y-144621250D01*
X168434314Y-192500000D02*
X167500000Y-191565686D01*
X139700000Y-153193750D02*
X139700000Y-166687500D01*
X118427500Y-93027500D02*
X119062500Y-93662500D01*
X134302500Y-130333750D02*
X134302500Y-133032500D01*
X119062500Y-100012500D02*
X124777500Y-105727500D01*
%TO.N,COL5*%
X158115000Y-152558750D02*
X158750000Y-153193750D01*
X153352500Y-133508750D02*
X153987500Y-134143750D01*
X158115000Y-152082500D02*
X158115000Y-152558750D01*
X173000000Y-186500000D02*
X172000000Y-187500000D01*
X156500000Y-186500000D02*
X149000000Y-179000000D01*
X143827500Y-114458750D02*
X144462500Y-115093750D01*
X149000000Y-179000000D02*
X149000000Y-171542500D01*
X153987500Y-140493750D02*
X158115000Y-144621250D01*
X137477500Y-93027500D02*
X138112500Y-93662500D01*
X144462500Y-115093750D02*
X144462500Y-121443750D01*
X172000000Y-187500000D02*
X172000000Y-191500000D01*
X195300000Y-192400000D02*
X194350000Y-192400000D01*
X168000000Y-191500000D02*
X168000000Y-187500000D01*
X194350000Y-192400000D02*
X191500000Y-189550000D01*
X149000000Y-171542500D02*
X148590000Y-171132500D01*
X172000000Y-191500000D02*
X171500000Y-192000000D01*
X143827500Y-113982500D02*
X143827500Y-114458750D01*
X191500000Y-189550000D02*
X191500000Y-187434314D01*
X138112500Y-100012500D02*
X143827500Y-105727500D01*
X154305000Y-171132500D02*
X148590000Y-171132500D01*
X153352500Y-130333750D02*
X153352500Y-133032500D01*
X168500000Y-192000000D02*
X168000000Y-191500000D01*
X138112500Y-93662500D02*
X138112500Y-100012500D01*
X191500000Y-187434314D02*
X190565686Y-186500000D01*
X158750000Y-153193750D02*
X158750000Y-166687500D01*
X143827500Y-105727500D02*
X143827500Y-113982500D01*
X167000000Y-186500000D02*
X156500000Y-186500000D01*
X144462500Y-121443750D02*
X153352500Y-130333750D01*
X158750000Y-166687500D02*
X154305000Y-171132500D01*
X137477500Y-92551250D02*
X137477500Y-93027500D01*
X171500000Y-192000000D02*
X168500000Y-192000000D01*
X168000000Y-187500000D02*
X167000000Y-186500000D01*
X190565686Y-186500000D02*
X173000000Y-186500000D01*
X153352500Y-133032500D02*
X153352500Y-133508750D01*
X158115000Y-144621250D02*
X158115000Y-152082500D01*
X153987500Y-134143750D02*
X153987500Y-140493750D01*
%TO.N,COL6*%
X173355000Y-171132500D02*
X167640000Y-171132500D01*
X177800000Y-153193750D02*
X177800000Y-166687500D01*
X190631372Y-186000000D02*
X172934314Y-186000000D01*
X192000000Y-187368628D02*
X190631372Y-186000000D01*
X168275000Y-178593750D02*
X170021250Y-180340000D01*
X169227500Y-93027500D02*
X169862500Y-93662500D01*
X195300000Y-191600000D02*
X194350000Y-191600000D01*
X172934314Y-186000000D02*
X171500000Y-187434314D01*
X177165000Y-152082500D02*
X177165000Y-152558750D01*
X192000000Y-189250000D02*
X192000000Y-187368628D01*
X177165000Y-152558750D02*
X177800000Y-153193750D01*
X163512500Y-121443750D02*
X172402500Y-130333750D01*
X171500000Y-187434314D02*
X171500000Y-188703750D01*
X163512500Y-115093750D02*
X163512500Y-121443750D01*
X177800000Y-166687500D02*
X173355000Y-171132500D01*
X167640000Y-171132500D02*
X167640000Y-171608750D01*
X177165000Y-144621250D02*
X177165000Y-152082500D01*
X162877500Y-114458750D02*
X163512500Y-115093750D01*
X171500000Y-188703750D02*
X170021250Y-190182500D01*
X172402500Y-130333750D02*
X172402500Y-133032500D01*
X162877500Y-113982500D02*
X162877500Y-114458750D01*
X194350000Y-191600000D02*
X192000000Y-189250000D01*
X169227500Y-92551250D02*
X169227500Y-93027500D01*
X170021250Y-180340000D02*
X170021250Y-190182500D01*
X167640000Y-171608750D02*
X168275000Y-172243750D01*
X169862500Y-109537500D02*
X165417500Y-113982500D01*
X172402500Y-133032500D02*
X172402500Y-133508750D01*
X168275000Y-172243750D02*
X168275000Y-178593750D01*
X173037500Y-140493750D02*
X177165000Y-144621250D01*
X165417500Y-113982500D02*
X162877500Y-113982500D01*
X173037500Y-134143750D02*
X173037500Y-140493750D01*
X169862500Y-93662500D02*
X169862500Y-109537500D01*
X172402500Y-133508750D02*
X173037500Y-134143750D01*
%TO.N,COL7*%
X187500000Y-171942500D02*
X186690000Y-171132500D01*
X187500000Y-182302942D02*
X187500000Y-171942500D01*
X182562500Y-121443750D02*
X191452500Y-130333750D01*
X191452500Y-133032500D02*
X191452500Y-133508750D01*
X196215000Y-152082500D02*
X196215000Y-152558750D01*
X191452500Y-130333750D02*
X191452500Y-133032500D01*
X196850000Y-153193750D02*
X196850000Y-166687500D01*
X188912500Y-93662500D02*
X188912500Y-109537500D01*
X195300000Y-190800000D02*
X194350000Y-190800000D01*
X192087500Y-140493750D02*
X196215000Y-144621250D01*
X184467500Y-113982500D02*
X181927500Y-113982500D01*
X192405000Y-171132500D02*
X186690000Y-171132500D01*
X192087500Y-134143750D02*
X192087500Y-140493750D01*
X181927500Y-113982500D02*
X181927500Y-114458750D01*
X192500000Y-187302942D02*
X187500000Y-182302942D01*
X182562500Y-115093750D02*
X182562500Y-121443750D01*
X188912500Y-109537500D02*
X184467500Y-113982500D01*
X194350000Y-190800000D02*
X192500000Y-188950000D01*
X196215000Y-152558750D02*
X196850000Y-153193750D01*
X191452500Y-133508750D02*
X192087500Y-134143750D01*
X181927500Y-114458750D02*
X182562500Y-115093750D01*
X196850000Y-166687500D02*
X192405000Y-171132500D01*
X188277500Y-92551250D02*
X188277500Y-93027500D01*
X192500000Y-188950000D02*
X192500000Y-187302942D01*
X188277500Y-93027500D02*
X188912500Y-93662500D01*
X196215000Y-144621250D02*
X196215000Y-152082500D01*
%TO.N,COL8*%
X201612500Y-115093750D02*
X201612500Y-121443750D01*
X195867500Y-171132500D02*
X205740000Y-171132500D01*
X215900000Y-153193750D02*
X215900000Y-166687500D01*
X207962500Y-109537500D02*
X203517500Y-113982500D01*
X207327500Y-93027500D02*
X207962500Y-93662500D01*
X207327500Y-92551250D02*
X207327500Y-93027500D01*
X194900000Y-177334315D02*
X194900000Y-172100000D01*
X215265000Y-145415000D02*
X215265000Y-152082500D01*
X201800000Y-187300000D02*
X201500000Y-187000000D01*
X203517500Y-113982500D02*
X200977500Y-113982500D01*
X194900000Y-172100000D02*
X195867500Y-171132500D01*
X210502500Y-130333750D02*
X210502500Y-133032500D01*
X215265000Y-152082500D02*
X215265000Y-152558750D01*
X195065685Y-177500000D02*
X194900000Y-177334315D01*
X210502500Y-133032500D02*
X210502500Y-133508750D01*
X201612500Y-121443750D02*
X210502500Y-130333750D01*
X207962500Y-93662500D02*
X207962500Y-109537500D01*
X211455000Y-171132500D02*
X205740000Y-171132500D01*
X215900000Y-166687500D02*
X211455000Y-171132500D01*
X211137500Y-134143750D02*
X211137500Y-141287500D01*
X201800000Y-188300000D02*
X201800000Y-187300000D01*
X210502500Y-133508750D02*
X211137500Y-134143750D01*
X215265000Y-152558750D02*
X215900000Y-153193750D01*
X200977500Y-114458750D02*
X201612500Y-115093750D01*
X201400000Y-183834315D02*
X201400000Y-183834314D01*
X200977500Y-113982500D02*
X200977500Y-114458750D01*
X201400000Y-183834314D02*
X195065685Y-177500000D01*
X211137500Y-141287500D02*
X215265000Y-145415000D01*
X201500000Y-183934315D02*
X201400000Y-183834315D01*
X201500000Y-187000000D02*
X201500000Y-183934315D01*
%TO.N,COL9*%
X220662500Y-121443750D02*
X229552500Y-130333750D01*
X220662500Y-115093750D02*
X220662500Y-121443750D01*
X202600000Y-188300000D02*
X202600000Y-187534314D01*
X229552500Y-133508750D02*
X230187500Y-134143750D01*
X205000000Y-173000000D02*
X206500000Y-173000000D01*
X195500000Y-172065686D02*
X196033186Y-171532500D01*
X234315000Y-152558750D02*
X234950000Y-153193750D01*
X229552500Y-130333750D02*
X229552500Y-133032500D01*
X234950000Y-153193750D02*
X234950000Y-166687500D01*
X224390000Y-171532500D02*
X224790000Y-171132500D01*
X220027500Y-114458750D02*
X220662500Y-115093750D01*
X196033186Y-171532500D02*
X203532500Y-171532500D01*
X227012500Y-93662500D02*
X227012500Y-109537500D01*
X195500000Y-177000000D02*
X195500000Y-172065686D01*
X226377500Y-92551250D02*
X226377500Y-93027500D01*
X202600000Y-187534314D02*
X202000000Y-186934314D01*
X203532500Y-171532500D02*
X205000000Y-173000000D01*
X230505000Y-171132500D02*
X224790000Y-171132500D01*
X229552500Y-133032500D02*
X229552500Y-133508750D01*
X202000000Y-186934314D02*
X202000000Y-183500000D01*
X230187500Y-140493750D02*
X234315000Y-144621250D01*
X220027500Y-113982500D02*
X220027500Y-114458750D01*
X202000000Y-183500000D02*
X195500000Y-177000000D01*
X226377500Y-93027500D02*
X227012500Y-93662500D01*
X230187500Y-134143750D02*
X230187500Y-140493750D01*
X206500000Y-173000000D02*
X207967500Y-171532500D01*
X207967500Y-171532500D02*
X224390000Y-171532500D01*
X227012500Y-109537500D02*
X222567500Y-113982500D01*
X234950000Y-166687500D02*
X230505000Y-171132500D01*
X222567500Y-113982500D02*
X220027500Y-113982500D01*
X234315000Y-144621250D02*
X234315000Y-152082500D01*
X234315000Y-152082500D02*
X234315000Y-152558750D01*
%TO.N,COL10*%
X254000000Y-166687500D02*
X249555000Y-171132500D01*
X239712500Y-115093750D02*
X239712500Y-121443750D01*
X233000000Y-189500000D02*
X240776250Y-189500000D01*
X249237500Y-134143750D02*
X249237500Y-140493750D01*
X239712500Y-121443750D02*
X248602500Y-130333750D01*
X254317500Y-113982500D02*
X239077500Y-113982500D01*
X258762500Y-93662500D02*
X258762500Y-109537500D01*
X258127500Y-93027500D02*
X258762500Y-93662500D01*
X203400000Y-188300000D02*
X203400000Y-185600000D01*
X203400000Y-185600000D02*
X205000000Y-184000000D01*
X254000000Y-153193750D02*
X254000000Y-166687500D01*
X244475000Y-172243750D02*
X244475000Y-187166250D01*
X253365000Y-144621250D02*
X253365000Y-152082500D01*
X258127500Y-92551250D02*
X258127500Y-93027500D01*
X249237500Y-140493750D02*
X253365000Y-144621250D01*
X239077500Y-113982500D02*
X239077500Y-114458750D01*
X248602500Y-133032500D02*
X248602500Y-133508750D01*
X248602500Y-130333750D02*
X248602500Y-133032500D01*
X244475000Y-187166250D02*
X241458750Y-190182500D01*
X253365000Y-152558750D02*
X254000000Y-153193750D01*
X243840000Y-171132500D02*
X243840000Y-171608750D01*
X248602500Y-133508750D02*
X249237500Y-134143750D01*
X258762500Y-109537500D02*
X254317500Y-113982500D01*
X243840000Y-171608750D02*
X244475000Y-172243750D01*
X253365000Y-152082500D02*
X253365000Y-152558750D01*
X249555000Y-171132500D02*
X243840000Y-171132500D01*
X205000000Y-184000000D02*
X227500000Y-184000000D01*
X239077500Y-114458750D02*
X239712500Y-115093750D01*
X227500000Y-184000000D02*
X233000000Y-189500000D01*
X240776250Y-189500000D02*
X241458750Y-190182500D01*
%TO.N,COL11*%
X272415000Y-144621250D02*
X272415000Y-152082500D01*
X258127500Y-113982500D02*
X258127500Y-114458750D01*
X262890000Y-171132500D02*
X262890000Y-171608750D01*
X273367500Y-113982500D02*
X258127500Y-113982500D01*
X258762500Y-121443750D02*
X267652500Y-130333750D01*
X204200000Y-185365686D02*
X205000000Y-184565686D01*
X277812500Y-93662500D02*
X277812500Y-109537500D01*
X273050000Y-166687500D02*
X268605000Y-171132500D01*
X258762500Y-115093750D02*
X258762500Y-121443750D01*
X258127500Y-114458750D02*
X258762500Y-115093750D01*
X265271250Y-180340000D02*
X265271250Y-190182500D01*
X227500000Y-184565686D02*
X232934314Y-190000000D01*
X263525000Y-172243750D02*
X263525000Y-178593750D01*
X240500000Y-192000000D02*
X242500000Y-192000000D01*
X277177500Y-92551250D02*
X277177500Y-93027500D01*
X262890000Y-171608750D02*
X263525000Y-172243750D01*
X267652500Y-133508750D02*
X268287500Y-134143750D01*
X232934314Y-190000000D02*
X238500000Y-190000000D01*
X272415000Y-152558750D02*
X273050000Y-153193750D01*
X242500000Y-192000000D02*
X244317500Y-190182500D01*
X268287500Y-140493750D02*
X272415000Y-144621250D01*
X267652500Y-133032500D02*
X267652500Y-133508750D01*
X272415000Y-152082500D02*
X272415000Y-152558750D01*
X263525000Y-178593750D02*
X265271250Y-180340000D01*
X244317500Y-190182500D02*
X265271250Y-190182500D01*
X268287500Y-134143750D02*
X268287500Y-140493750D01*
X205000000Y-184565686D02*
X227500000Y-184565686D01*
X273050000Y-153193750D02*
X273050000Y-166687500D01*
X267652500Y-130333750D02*
X267652500Y-133032500D01*
X238500000Y-190000000D02*
X240500000Y-192000000D01*
X204200000Y-188300000D02*
X204200000Y-185365686D01*
X277812500Y-109537500D02*
X273367500Y-113982500D01*
X268605000Y-171132500D02*
X262890000Y-171132500D01*
X277177500Y-93027500D02*
X277812500Y-93662500D01*
%TO.N,COL12*%
X292893750Y-115093750D02*
X277812500Y-115093750D01*
X296862500Y-111125000D02*
X292893750Y-115093750D01*
X286702500Y-133508750D02*
X287337500Y-134143750D01*
X286702500Y-130333750D02*
X286702500Y-133032500D01*
X277812500Y-115093750D02*
X277812500Y-121443750D01*
X206700000Y-191600000D02*
X233400000Y-191600000D01*
X277177500Y-114458750D02*
X277812500Y-115093750D01*
X296227500Y-93027500D02*
X296862500Y-93662500D01*
X287337500Y-147637500D02*
X285750000Y-149225000D01*
X287337500Y-134143750D02*
X287337500Y-147637500D01*
X286702500Y-133032500D02*
X286702500Y-133508750D01*
X277177500Y-113982500D02*
X277177500Y-114458750D01*
X234000000Y-191000000D02*
X238934314Y-191000000D01*
X268317500Y-190182500D02*
X289083750Y-190182500D01*
X243000000Y-192500000D02*
X244917500Y-190582500D01*
X233400000Y-191600000D02*
X234000000Y-191000000D01*
X262582500Y-190582500D02*
X264000000Y-192000000D01*
X240434314Y-192500000D02*
X243000000Y-192500000D01*
X264000000Y-192000000D02*
X266500000Y-192000000D01*
X266500000Y-192000000D02*
X268317500Y-190182500D01*
X244917500Y-190582500D02*
X262582500Y-190582500D01*
X277812500Y-121443750D02*
X286702500Y-130333750D01*
X285750000Y-149225000D02*
X285750000Y-166687500D01*
X289083750Y-170021250D02*
X289083750Y-190182500D01*
X296862500Y-93662500D02*
X296862500Y-111125000D01*
X238934314Y-191000000D02*
X240434314Y-192500000D01*
X296227500Y-92551250D02*
X296227500Y-93027500D01*
X285750000Y-166687500D02*
X289083750Y-170021250D01*
%TO.N,COL13*%
X304006250Y-153193750D02*
X304006250Y-166687500D01*
X306387500Y-115093750D02*
X306387500Y-121443750D01*
X310515000Y-133508750D02*
X311150000Y-134143750D01*
X311150000Y-134143750D02*
X311150000Y-147637500D01*
X298608750Y-171132500D02*
X298608750Y-171608750D01*
X298608750Y-171608750D02*
X299243750Y-172243750D01*
X221400000Y-192400000D02*
X232006250Y-203006250D01*
X303371250Y-152082500D02*
X303371250Y-152558750D01*
X315912500Y-93662500D02*
X315912500Y-105568750D01*
X310515000Y-125571250D02*
X310515000Y-133032500D01*
X313500000Y-190786250D02*
X312896250Y-190182500D01*
X312993750Y-203006250D02*
X313500000Y-202500000D01*
X232006250Y-203006250D02*
X312993750Y-203006250D01*
X299243750Y-181768750D02*
X307657500Y-190182500D01*
X305752500Y-114458750D02*
X306387500Y-115093750D01*
X311150000Y-147637500D02*
X306705000Y-152082500D01*
X315277500Y-92551250D02*
X315277500Y-93027500D01*
X313500000Y-202500000D02*
X313500000Y-190786250D01*
X307498750Y-113982500D02*
X305752500Y-113982500D01*
X299243750Y-172243750D02*
X299243750Y-181768750D01*
X306387500Y-121443750D02*
X310515000Y-125571250D01*
X307657500Y-190182500D02*
X312896250Y-190182500D01*
X315912500Y-105568750D02*
X307498750Y-113982500D01*
X299561250Y-171132500D02*
X298608750Y-171132500D01*
X306705000Y-152082500D02*
X303371250Y-152082500D01*
X315277500Y-93027500D02*
X315912500Y-93662500D01*
X305752500Y-113982500D02*
X305752500Y-114458750D01*
X310515000Y-133032500D02*
X310515000Y-133508750D01*
X304006250Y-166687500D02*
X299561250Y-171132500D01*
X206700000Y-192400000D02*
X221400000Y-192400000D01*
X303371250Y-152558750D02*
X304006250Y-153193750D01*
%TO.N,COL14*%
X339090000Y-93027500D02*
X339725000Y-93662500D01*
X231840564Y-203406250D02*
X338593750Y-203406250D01*
X339500000Y-202500000D02*
X339500000Y-190592500D01*
X221634314Y-193200000D02*
X231840564Y-203406250D01*
X339725000Y-132397500D02*
X339090000Y-133032500D01*
X339725000Y-189547500D02*
X339090000Y-190182500D01*
X339725000Y-134143750D02*
X339725000Y-189547500D01*
X339090000Y-133508750D02*
X339725000Y-134143750D01*
X339725000Y-113347500D02*
X339090000Y-113982500D01*
X339090000Y-92551250D02*
X339090000Y-93027500D01*
X338593750Y-203406250D02*
X339500000Y-202500000D01*
X339725000Y-115093750D02*
X339725000Y-132397500D01*
X339725000Y-93662500D02*
X339725000Y-113347500D01*
X339090000Y-114458750D02*
X339725000Y-115093750D01*
X339500000Y-190592500D02*
X339090000Y-190182500D01*
X206700000Y-193200000D02*
X221634314Y-193200000D01*
X339090000Y-133032500D02*
X339090000Y-133508750D01*
X339090000Y-113982500D02*
X339090000Y-114458750D01*
%TO.N,COL15*%
X358140000Y-114458750D02*
X358775000Y-115093750D01*
X358775000Y-172243750D02*
X358775000Y-189547500D01*
X358140000Y-93027500D02*
X358775000Y-93662500D01*
X358775000Y-189547500D02*
X358140000Y-190182500D01*
X358140000Y-171132500D02*
X358140000Y-171608750D01*
X221868628Y-194000000D02*
X231674878Y-203806250D01*
X358775000Y-113347500D02*
X358140000Y-113982500D01*
X358140000Y-92551250D02*
X358140000Y-93027500D01*
X358775000Y-170497500D02*
X358140000Y-171132500D01*
X358775000Y-132397500D02*
X358140000Y-133032500D01*
X358140000Y-133508750D02*
X358775000Y-134143750D01*
X231674878Y-203806250D02*
X357693750Y-203806250D01*
X206700000Y-194000000D02*
X221868628Y-194000000D01*
X359000000Y-191042500D02*
X358140000Y-190182500D01*
X357693750Y-203806250D02*
X359000000Y-202500000D01*
X359000000Y-202500000D02*
X359000000Y-191042500D01*
X358775000Y-115093750D02*
X358775000Y-132397500D01*
X358140000Y-171608750D02*
X358775000Y-172243750D01*
X358775000Y-134143750D02*
X358775000Y-170497500D01*
X358775000Y-93662500D02*
X358775000Y-113347500D01*
X358140000Y-133032500D02*
X358140000Y-133508750D01*
X358140000Y-113982500D02*
X358140000Y-114458750D01*
%TO.N,COL16*%
X377190000Y-113982500D02*
X377190000Y-114458750D01*
X377190000Y-92551250D02*
X377190000Y-93027500D01*
X377190000Y-114458750D02*
X377825000Y-115093750D01*
X206700000Y-194800000D02*
X212102152Y-194800000D01*
X377190000Y-133032500D02*
X377190000Y-133508750D01*
X378000000Y-202500000D02*
X378000000Y-190992500D01*
X377190000Y-93027500D02*
X377825000Y-93662500D01*
X377825000Y-93662500D02*
X377825000Y-113347500D01*
X377825000Y-132397500D02*
X377190000Y-133032500D01*
X212102152Y-194800000D02*
X221508402Y-204206250D01*
X377190000Y-133508750D02*
X377825000Y-134143750D01*
X377825000Y-189547500D02*
X377190000Y-190182500D01*
X377825000Y-115093750D02*
X377825000Y-132397500D01*
X378000000Y-190992500D02*
X377190000Y-190182500D01*
X221508402Y-204206250D02*
X376293750Y-204206250D01*
X377825000Y-113347500D02*
X377190000Y-113982500D01*
X377825000Y-134143750D02*
X377825000Y-189547500D01*
X376293750Y-204206250D02*
X378000000Y-202500000D01*
%TO.N,COL1*%
X81915000Y-152558750D02*
X82550000Y-153193750D01*
X68262500Y-121443750D02*
X77152500Y-130333750D01*
X82550000Y-166687500D02*
X74771250Y-174466250D01*
X75500000Y-197500000D02*
X75500000Y-190911250D01*
X198500000Y-200515686D02*
X195015686Y-204000000D01*
X198500000Y-200000000D02*
X198500000Y-200515686D01*
X77152500Y-133508750D02*
X77787500Y-134143750D01*
X124000000Y-204000000D02*
X119500000Y-199500000D01*
X68262500Y-115093750D02*
X68262500Y-121443750D01*
X67627500Y-114458750D02*
X68262500Y-115093750D01*
X119500000Y-199500000D02*
X115500000Y-199500000D01*
X198600000Y-199700000D02*
X198600000Y-199900000D01*
X111000000Y-204000000D02*
X82000000Y-204000000D01*
X81915000Y-144621250D02*
X81915000Y-152082500D01*
X74771250Y-174466250D02*
X74771250Y-190182500D01*
X77787500Y-140493750D02*
X81915000Y-144621250D01*
X67627500Y-113982500D02*
X67627500Y-114458750D01*
X77787500Y-134143750D02*
X77787500Y-140493750D01*
X195015686Y-204000000D02*
X124000000Y-204000000D01*
X81915000Y-152082500D02*
X81915000Y-152558750D01*
X115500000Y-199500000D02*
X111000000Y-204000000D01*
X75500000Y-190911250D02*
X74771250Y-190182500D01*
X77152500Y-130333750D02*
X77152500Y-133032500D01*
X198600000Y-199900000D02*
X198500000Y-200000000D01*
X77152500Y-133032500D02*
X77152500Y-133508750D01*
X82000000Y-204000000D02*
X75500000Y-197500000D01*
X82550000Y-153193750D02*
X82550000Y-166687500D01*
%TD*%
M02*
